<?xml version="1.0" encoding="UTF-8" standalone="no"?>
<!-- Generator: Adobe Illustrator 28.2.0, SVG Export Plug-In . SVG Version: 6.00 Build 0)  -->

<svg
   version="1.1"
   id="图层_1"
   x="0px"
   y="0px"
   viewBox="0 0 837.2 366.2"
   style="enable-background:new 0 0 837.2 366.2;"
   xml:space="preserve"
   sodipodi:docname="goldminer logoV2.svg"
   inkscape:version="1.4 (86a8ad7, 2024-10-11)"
   xmlns:inkscape="http://www.inkscape.org/namespaces/inkscape"
   xmlns:sodipodi="http://sodipodi.sourceforge.net/DTD/sodipodi-0.dtd"
   xmlns="http://www.w3.org/2000/svg"
   xmlns:svg="http://www.w3.org/2000/svg"><defs
   id="defs39" /><sodipodi:namedview
   id="namedview39"
   pagecolor="#ffffff"
   bordercolor="#000000"
   borderopacity="0.25"
   inkscape:showpageshadow="2"
   inkscape:pageopacity="0.0"
   inkscape:pagecheckerboard="0"
   inkscape:deskcolor="#d1d1d1"
   inkscape:zoom="0.51406334"
   inkscape:cx="278.17584"
   inkscape:cy="-234.40691"
   inkscape:window-width="1200"
   inkscape:window-height="1886"
   inkscape:window-x="1911"
   inkscape:window-y="-9"
   inkscape:window-maximized="1"
   inkscape:current-layer="O" />
<style
   type="text/css"
   id="style1">
	.st0{fill:#8F8F8F;}
	.st1{fill:url(#SVGID_1_);}
	.st2{fill:url(#SVGID_00000140008857220794224300000004303703856616554380_);}
	.st3{fill:url(#SVGID_00000040569090761241975040000017168926493844924802_);}
	.st4{fill:url(#SVGID_00000114783827932137630710000002337409501696406158_);}
	.st5{fill:url(#SVGID_00000006674820740377367660000016488481004142668730_);}
	.st6{fill:url(#SVGID_00000011020312268315460480000009894320151537170606_);}
	.st7{fill:url(#SVGID_00000012441615742199945790000017983319061609384125_);}
	.st8{fill:#8F8F8F;stroke:#FFFFFF;stroke-width:3;stroke-miterlimit:10;}
	.st9{fill:url(#SVGID_00000060008944938350071410000003513889228046938301_);stroke:#FFFFFF;stroke-width:3;stroke-miterlimit:10;}
	.st10{fill:url(#SVGID_00000147196573990264396450000006916152681336656021_);}
	.st11{fill:url(#SVGID_00000003802017889555789210000007891948748014553987_);}
	.st12{fill:url(#SVGID_00000089558127353162379230000010345446603001009546_);}
	.st13{fill:url(#SVGID_00000118355428520690527850000009995703720245667223_);}
	.st14{fill:url(#SVGID_00000009561043979140475960000014579854849270057367_);}
	.st15{fill:url(#SVGID_00000140695734806626531150000002686732058105253015_);}
	.st16{fill:url(#SVGID_00000134965155939274905620000011184230188195778226_);}
	.st17{fill:#8F8F8F;stroke:#FFFFFF;stroke-width:3;}
	.st18{fill:#FFFFFF;stroke:#FFFFFF;stroke-width:3;stroke-miterlimit:10;}
</style>
<g
   id="g18">
	<path
   class="st0"
   d="M383.9,278.1h-20.7l18.6-130.2h19.4l-1.1,12.6c3.6-5.3,7.5-9,11.8-11.3c4.3-2.3,8.6-3.4,12.7-3.4   c5.7,0,10.7,1.5,15.1,4.5c4.3,3,7.2,8,8.4,15.2c3.7-7.1,8-12.2,12.9-15.2c4.9-3,9.8-4.5,14.6-4.5c5.1,0,9.7,1.2,13.8,3.7   c4.1,2.5,7,6.5,9,12.1s2.2,13.1,0.7,22.6L486,278.1h-20.9l13-90.5c2.1-15.1-1.5-22.6-10.9-22.6c-4.7,0-8.8,2.2-12.2,6.6   c-3.4,4.4-5.9,10.1-7.5,17.1L435,278.1H414l13-90.5c2.1-15.1-1.5-22.6-10.9-22.6c-4.6,0-8.5,2.1-12,6.4c-3.4,4.3-5.9,9.8-7.5,16.4   L383.9,278.1z"
   id="path1"
   style="fill:#4caf50;fill-opacity:1" />
	<path
   class="st0"
   d="M530,278.1h-20.7l18.4-130.2h20.7L530,278.1z"
   id="path2"
   style="fill:#4caf50;fill-opacity:1" />
	<g
   id="O_00000152955809035774211120000011066137841195719317_">
		
			<linearGradient
   id="SVGID_1_"
   gradientUnits="userSpaceOnUse"
   x1="4.7652"
   y1="-32.822"
   x2="4.7652"
   y2="-32.7577"
   gradientTransform="matrix(523.7134 292.787 -195.1913 349.1423 -8354.2578 10172.207)">
			<stop
   offset="0"
   style="stop-color:#D2A14F"
   id="stop2" />
			<stop
   offset="1"
   style="stop-color:#8B5E1E"
   id="stop3" />
		</linearGradient>
		<path
   class="st1"
   d="M533.7,109.7c6.6,3.3,14.5,5.1,21.3,8.9c-0.3-4.2-2.6-8.2-6.6-10.5C543.6,105.4,537.7,106.2,533.7,109.7z"
   id="path3" />
		
			<linearGradient
   id="SVGID_00000093894125397352726140000013512894546304279436_"
   gradientUnits="userSpaceOnUse"
   x1="4.7663"
   y1="-32.822"
   x2="4.7663"
   y2="-32.7577"
   gradientTransform="matrix(523.7134 292.787 -195.1913 349.1423 -8354.2578 10172.207)">
			<stop
   offset="0"
   style="stop-color:#D2A14F"
   id="stop4" />
			<stop
   offset="1"
   style="stop-color:#8B5E1E"
   id="stop5" />
		</linearGradient>
		<path
   style="fill:url(#SVGID_00000093894125397352726140000013512894546304279436_);"
   d="M531,113.1c-0.2,0.3-0.3,0.6-0.4,0.8    c7.1,3.9,15.7,8,22.7,12c0.1-0.1,0.1-0.2,0.2-0.3c1.2-2.2,1.8-4.7,1.6-7c-6.8-3.8-14.7-5.7-21.3-8.9    C532.7,110.7,531.7,111.8,531,113.1z"
   id="path5" />
		
			<linearGradient
   id="SVGID_00000032609022127280498270000012919651494243185560_"
   gradientUnits="userSpaceOnUse"
   x1="4.7625"
   y1="-28.5041"
   x2="4.7693"
   y2="-28.2972"
   gradientTransform="matrix(523.7134 292.787 -26.4826 47.37 -2705.4717 68.1211)">
			<stop
   offset="0"
   style="stop-color:#D2A14F"
   id="stop6" />
			<stop
   offset="1"
   style="stop-color:#8B5E1E"
   id="stop7" />
		</linearGradient>
		<path
   style="fill:url(#SVGID_00000032609022127280498270000012919651494243185560_);"
   d="M531,113.1c-0.2,0.3-0.3,0.6-0.4,0.8    c7.1,3.9,15.7,8,22.7,12c0.1-0.1,0.1-0.2,0.2-0.3c1.2-2.2,1.8-4.7,1.6-7c-6.8-3.8-14.7-5.7-21.3-8.9    C532.7,110.7,531.7,111.8,531,113.1z"
   id="path7" />
		
			<linearGradient
   id="SVGID_00000092427048369913904320000012581884384038132096_"
   gradientUnits="userSpaceOnUse"
   x1="4.7663"
   y1="-32.822"
   x2="4.7663"
   y2="-32.7577"
   gradientTransform="matrix(523.7134 292.787 -195.1913 349.1423 -8354.2578 10172.207)">
			<stop
   offset="0"
   style="stop-color:#D2A14F"
   id="stop8" />
			<stop
   offset="1"
   style="stop-color:#8B5E1E"
   id="stop9" />
		</linearGradient>
		<path
   style="fill:url(#SVGID_00000092427048369913904320000012581884384038132096_);"
   d="M550.7,129l-21.2-11.8    c-0.9,5.2,1.5,10.7,6.4,13.4C540.8,133.4,546.7,132.5,550.7,129z"
   id="path9" />
		
			<linearGradient
   id="SVGID_00000063595288168995277120000017089810925087318149_"
   gradientUnits="userSpaceOnUse"
   x1="4.7663"
   y1="-32.822"
   x2="4.7663"
   y2="-32.7577"
   gradientTransform="matrix(523.7134 292.787 -195.1913 349.1423 -8354.2578 10172.207)">
			<stop
   offset="0"
   style="stop-color:#D2A14F"
   id="stop10" />
			<stop
   offset="1"
   style="stop-color:#8B5E1E"
   id="stop11" />
		</linearGradient>
		<path
   style="fill:url(#SVGID_00000063595288168995277120000017089810925087318149_);"
   d="M530.5,114c-0.5,1.1-0.8,2.1-1,3.2    l21.2,11.8c1-0.9,1.9-1.9,2.5-3.1C546.2,122,537.6,117.8,530.5,114z"
   id="path11" />
		
			<linearGradient
   id="SVGID_00000112619991980772147560000011736581377365399681_"
   gradientUnits="userSpaceOnUse"
   x1="4.7613"
   y1="-28.5043"
   x2="4.7681"
   y2="-28.2974"
   gradientTransform="matrix(523.7134 292.787 -26.4826 47.37 -2705.4717 68.1211)">
			<stop
   offset="0"
   style="stop-color:#D2A14F"
   id="stop12" />
			<stop
   offset="1"
   style="stop-color:#8B5E1E"
   id="stop13" />
		</linearGradient>
		<path
   style="fill:url(#SVGID_00000112619991980772147560000011736581377365399681_);"
   d="M530.5,114c-0.5,1.1-0.8,2.1-1,3.2    l21.2,11.8c1-0.9,1.9-1.9,2.5-3.1C546.2,122,537.6,117.8,530.5,114z"
   id="path13" />
		
			<linearGradient
   id="SVGID_00000029731837353168648520000013287747837371583672_"
   gradientUnits="userSpaceOnUse"
   x1="463.7836"
   y1="407.446"
   x2="463.7836"
   y2="447.2661"
   gradientTransform="matrix(0.8729 0.488 0.488 -0.8729 -67.7013 259.9471)">
			<stop
   offset="0"
   style="stop-color:#C39C44"
   id="stop14" />
			<stop
   offset="1"
   style="stop-color:#7A5217"
   id="stop15" />
		</linearGradient>
		<path
   style="fill:url(#SVGID_00000029731837353168648520000013287747837371583672_);"
   d="M530.5,114c-0.5,1.1-0.8,2.1-1,3.2    c-0.9,5.2,1.5,10.7,6.4,13.4c4.9,2.7,10.8,1.9,14.8-1.6c1-0.9,1.9-1.9,2.5-3.1C546.2,122,537.6,117.8,530.5,114z"
   id="path15" />
	</g>
	<path
   class="st0"
   d="M574.6,278.1h-20.7l18.6-130.2h19.4l-1.1,12.6c3.6-5.3,7.5-9,11.8-11.3c4.3-2.3,8.6-3.4,12.7-3.4   c5.1,0,9.7,1.2,13.8,3.7c4.1,2.5,7,6.5,9,12.1c1.9,5.6,2.2,13.1,0.7,22.6l-13.2,93.9h-20.9l13-90.5c2.1-15.1-1.5-22.6-10.9-22.6   c-4.6,0-8.5,2.1-12,6.4c-3.4,4.3-5.9,9.8-7.5,16.4L574.6,278.1z"
   id="path16"
   style="fill:#4caf50;fill-opacity:1" />
	<path
   class="st0"
   d="M729.4,242.9c-3.4,11.8-8.9,21-16.4,27.5c-7.5,6.5-16.4,9.8-26.7,9.8c-10.8,0-18.8-3-23.9-8.9   c-5.1-5.9-8.2-14-9.1-24.2c-0.9-10.2-0.6-21.9,1-35c1.7-13.1,4.4-24.6,8.2-34.6c3.8-10,9-17.8,15.7-23.4c6.7-5.6,15-8.4,25-8.4   c10.4,0,18.1,2.9,23.3,8.6c5.1,5.8,8.1,14.1,9.1,24.9c0.9,10.8,0.3,23.8-1.8,39.1h-59.8c-0.9,7.4-1.2,14.3-1.1,20.8   c0.1,6.5,1.4,11.7,3.6,15.8c2.3,4.1,6.2,6.1,11.7,6.1c10.2,0,17.6-7,22.2-20.9L729.4,242.9z M701.4,164.9c-6.1,0-11.2,3.1-15.2,9.2   c-4,6.1-7.2,15-9.6,26.7h37.8c0.6-6.8,0.6-13,0.2-18.4c-0.4-5.4-1.7-9.7-3.7-12.8C708.9,166.5,705.7,164.9,701.4,164.9z"
   id="path17"
   style="fill:#4caf50;fill-opacity:1" />
	<path
   class="st0"
   d="M763.1,278.1h-20.3l18.4-130.9h20.3l-2.3,16.4c4.1-6.3,9-10.7,14.7-13.5c5.7-2.7,11.7-4.1,17.9-4.1l-2.8,21.1   c-7.8-1-14.9,1-21.4,5.9c-6.4,4.9-10.7,12.7-13,23.4L763.1,278.1z"
   id="path18"
   style="fill:#4caf50;fill-opacity:1" />
</g>
<path
   class="st8"
   d="M341.7,278.1H322l1.1-11.7c-3.1,4.3-6.7,7.7-10.6,10.1c-3.9,2.5-8,3.7-12.3,3.7c-4.7,0-9.1-1.1-13.2-3.4  c-4.1-2.3-7.5-6.1-10.2-11.5c-2.7-5.4-4.4-12.6-5.1-21.7c-0.7-9-0.1-20.3,1.7-33.8c3.1-21.6,8.6-37.7,16.4-48.1  c7.8-10.5,16.9-15.7,27.3-15.7c9.5,0,16.4,4.3,20.7,13l8.5-60.2h20.7L341.7,278.1z M294.5,212.1c-1.1,9.1-1.8,17.4-1.9,24.8  c-0.1,7.4,0.8,13.3,2.8,17.6c2,4.3,5.5,6.5,10.5,6.5c3.4,0,6.5-1.2,9.3-3.7c2.8-2.5,5.2-5.7,7.2-9.7c2-4,3.6-8.3,4.7-12.8l6.8-47.2  c0.1-6.5-1.1-11.9-3.6-16.1c-2.6-4.2-6.3-6.3-11.1-6.3c-4.4,0-8.3,2.1-11.5,6.4c-3.3,4.3-6,10-8.1,17.1  C297.3,195.8,295.6,203.6,294.5,212.1z"
   id="path19" />
<linearGradient
   id="SVGID_00000072246030290309774030000010482109657174625201_"
   gradientUnits="userSpaceOnUse"
   x1="209.20622"
   y1="348.18344"
   x2="240.3308"
   y2="119.6728">
	<stop
   offset="0"
   style="stop-color:#FFFFFF"
   id="stop19" />
	<stop
   offset="1"
   style="stop-color:#4caf50;stop-opacity:1;"
   id="stop20" />
</linearGradient>
<path
   style="fill:url(#SVGID_00000072246030290309774030000010482109657174625201_);stroke:#FFFFFF;stroke-width:3;stroke-miterlimit:10"
   d="  M238.7,277.2h-19.1L242,119.7H261L238.7,277.2z"
   id="path20" />
<g
   id="O">
	
		<linearGradient
   id="SVGID_00000170957079284935806800000014250080304183769216_"
   gradientUnits="userSpaceOnUse"
   x1="4.2863"
   y1="-32.3518"
   x2="4.2863"
   y2="-31.9615"
   gradientTransform="matrix(523.7134 292.787 -195.1913 349.1423 -8354.2578 10172.207)">
		<stop
   offset="0"
   style="stop-color:#D2A14F"
   id="stop21" />
		<stop
   offset="1"
   style="stop-color:#8B5E1E"
   id="stop22" />
	</linearGradient>
	<path
   style="fill:url(#SVGID_00000170957079284935806800000014250080304183769216_);"
   d="M119.1,143.1   c40.4,19.8,88.3,31.2,129.4,54.1c-1.6-25.6-15.7-50-39.8-63.5C179,117.1,143.4,121.9,119.1,143.1z"
   id="path22" />
	
		<linearGradient
   id="SVGID_00000163781445295980569380000000417241707149180095_"
   gradientUnits="userSpaceOnUse"
   x1="4.2928"
   y1="-32.3518"
   x2="4.2928"
   y2="-31.9615"
   gradientTransform="matrix(523.7134 292.787 -195.1913 349.1423 -8354.2578 10172.207)">
		<stop
   offset="0"
   style="stop-color:#D2A14F"
   id="stop23" />
		<stop
   offset="1"
   style="stop-color:#8B5E1E"
   id="stop24" />
	</linearGradient>
	<path
   style="fill:url(#SVGID_00000163781445295980569380000000417241707149180095_);"
   d="M102.5,163.7c-0.9,1.7-1.8,3.4-2.7,5.1   c43.2,23.5,95.1,48.7,138,72.8c0.3-0.6,0.6-1.1,1-1.8c7.6-13.6,10.7-28.3,9.8-42.7c-41.1-22.9-89-34.4-129.4-54.1   C112.6,148.8,107,155.7,102.5,163.7z"
   id="path24" />
	
		<linearGradient
   id="SVGID_00000135667818188127887290000001559278770158426033_"
   gradientUnits="userSpaceOnUse"
   x1="4.27"
   y1="-24.4808"
   x2="4.3114"
   y2="-23.224"
   gradientTransform="matrix(523.7134 292.787 -26.4826 47.37 -2705.4717 68.1211)">
		<stop
   offset="0"
   style="stop-color:#D2A14F"
   id="stop25" />
		<stop
   offset="1"
   style="stop-color:#8B5E1E"
   id="stop26" />
	</linearGradient>
	<path
   style="fill:url(#SVGID_00000135667818188127887290000001559278770158426033_);"
   d="M102.5,163.7c-0.9,1.7-1.8,3.4-2.7,5.1   c43.2,23.5,95.1,48.7,138,72.8c0.3-0.6,0.6-1.1,1-1.8c7.6-13.6,10.7-28.3,9.8-42.7c-41.1-22.9-89-34.4-129.4-54.1   C112.6,148.8,107,155.7,102.5,163.7z"
   id="path26" />
	
		<linearGradient
   id="SVGID_00000029747877108270922050000013373020759092542340_"
   gradientUnits="userSpaceOnUse"
   x1="4.2928"
   y1="-32.3518"
   x2="4.2928"
   y2="-31.9615"
   gradientTransform="matrix(523.7134 292.787 -195.1913 349.1423 -8354.2578 10172.207)">
		<stop
   offset="0"
   style="stop-color:#D2A14F"
   id="stop27" />
		<stop
   offset="1"
   style="stop-color:#8B5E1E"
   id="stop28" />
	</linearGradient>
	<path
   style="fill:url(#SVGID_00000029747877108270922050000013373020759092542340_);"
   d="M222.3,260.4L93.7,188.5   c-5.5,31.7,9.1,64.9,38.9,81.5S198.1,281.7,222.3,260.4z"
   id="path28" />
	
		<linearGradient
   id="SVGID_00000065787377170082558600000000589737907828627340_"
   gradientUnits="userSpaceOnUse"
   x1="4.2929"
   y1="-32.3518"
   x2="4.2929"
   y2="-31.9615"
   gradientTransform="matrix(523.7134 292.787 -195.1913 349.1423 -8354.2578 10172.207)">
		<stop
   offset="0"
   style="stop-color:#D2A14F"
   id="stop29" />
		<stop
   offset="1"
   style="stop-color:#8B5E1E"
   id="stop30" />
	</linearGradient>
	<path
   style="fill:url(#SVGID_00000065787377170082558600000000589737907828627340_);"
   d="M99.8,168.9c-3,6.4-5,12.9-6.1,19.6   l128.6,71.9c6-5.3,11.3-11.5,15.5-18.7C194.9,217.6,143,192.4,99.8,168.9z"
   id="path30" />
	
		<linearGradient
   id="SVGID_00000089567978549144530730000013250940535949155224_"
   gradientUnits="userSpaceOnUse"
   x1="4.2626"
   y1="-24.4815"
   x2="4.3039"
   y2="-23.2248"
   gradientTransform="matrix(523.7134 292.787 -26.4826 47.37 -2705.4717 68.1211)">
		<stop
   offset="0"
   style="stop-color:#D2A14F"
   id="stop31" />
		<stop
   offset="1"
   style="stop-color:#8B5E1E"
   id="stop32" />
	</linearGradient>
	<path
   style="fill:url(#SVGID_00000089567978549144530730000013250940535949155224_);"
   d="M99.8,168.9c-3,6.4-5,12.9-6.1,19.6   l128.6,71.9c6-5.3,11.3-11.5,15.5-18.7C194.9,217.6,143,192.4,99.8,168.9z"
   id="path32" />
	
		<linearGradient
   id="SVGID_00000170237410047787646180000005119500126125093035_"
   gradientUnits="userSpaceOnUse"
   x1="179.7462"
   y1="88.9387"
   x2="267.14331"
   y2="201.40593"
   gradientTransform="matrix(0.8729 0.488 0.488 -0.8729 -67.7013 259.9471)">
		<stop
   offset="0"
   style="stop-color:#C39C44"
   id="stop33" />
		<stop
   offset="1"
   style="stop-color:#7A5217"
   id="stop34" />
	</linearGradient>
	<path
   style="fill:url(#SVGID_00000170237410047787646180000005119500126125093035_)"
   d="M99.8,168.9c-3,6.4-5,12.9-6.1,19.6   c-5.5,31.7,9.1,64.9,38.9,81.5s65.6,11.7,89.8-9.6c6-5.3,11.3-11.5,15.5-18.7C194.9,217.6,143,192.4,99.8,168.9z"
   id="path34" />
</g>
<g
   id="G">
	<path
   class="st8"
   d="M59.6,185.2c-1.2,7.2-6.9,41.8,1.9,70.2c1.4,4.7,3.7,10.3,8.8,14.8c5.8,5.1,13.8,7.7,24.1,7.7   c8.1,0,15.8-2.3,23.1-6.8c10-6.2,15.8-14.1,18.7-18.3c6.3-9.1,9.5-18.1,11.1-24.8c0,1.4-4.1,43.3-4.4,46.4   c-0.4,4.2-4.9,6.5-11.1,12.1c-0.6,0.5-7.6,6.5-15.3,10.3c0,0,0,0,0,0c-11,5.8-22.9,8.7-35.8,8.7c-24.7,0-42.2-9.7-52.4-29.2   s-11.8-49.7-4.7-90.6c7.3-41.7,19.8-72.2,37.5-91.7c17.7-19.5,41-29.2,70-29.2c13.4,0,24.4,2.3,33.1,7c8.7,4.7,15.6,10.7,20.6,18   c2,2.9,5.5,7.6,7.8,14.7c1.8,5.7,2.2,10.7,2.3,14.2c-14,0.3-28,0.5-42,0.8c0.1-2.2,0.3-11.6-6.5-18.6c-6.2-6.4-14.3-7-19.5-7   c-14.6,0-25.4,6.6-29.7,9.7c-4.1,3-12.5,9.8-22.3,30.2C72.1,139.7,64.5,156.6,59.6,185.2z"
   id="path35"
   style="fill:#4caf50;fill-opacity:1" />
	<path
   class="st17"
   d="M154.8,174.4c0,0.4-1,0.8-1.9,1c-1.2,10.9-2.4,21.9-3.5,32.9c-3.2,31.1-6.1,61.8-8.6,92.1   c3.1,0,6.1-0.1,9.2-0.1c6.5,0,12.9,0,19.3,0c-0.4-1.5-0.9-3.1-1.3-4.7c-0.2-30,2.1-74.6,8-118c0.1-0.4,0.2-0.8,0.4-1.1L154.8,174.4   C154.8,174.3,154.8,174.4,154.8,174.4z"
   id="path36"
   style="fill:#4caf50;fill-opacity:1" />
	<path
   class="st17"
   d="M186.7,142.8c-0.5-0.9,0-1.6-0.6-2.6c-0.7-1.2-4.2-2.7-4.2-2.7c0.4-1.5,0.6-3.5-0.4-4.8   c-0.8-1.1-2.2-1.5-8.7-1.8c-4.7-0.2-4.8-0.1-9-0.2c-6.3-0.2-8.1-0.6-9.3,0.7c-1.1,1.2-1,3.2-0.7,4.8c0,0-2.2,0.6-2.8,1.7   s-0.1,2.4-1,3.1c-0.2,0.2-39.1-1.2-42.9,22.1c5.1,0.1,42.9-5.7,42.9-5.7s0.2,2.7,0.2,4.7c0.1,3.1-0.2,3.8,0.1,5.8   c0.3,2.2,0.7,4.7,2.4,5.6c1,0.5,1.9,0.6,2,1l21.6,2.3c0.1-0.1,0.1-0.2,0.2-0.2c0.4-0.3,1.1-0.4,1.5-0.6c1.8-0.7,2.2-3,2.9-4.6   c0.7-1.9,0.6-4,0.9-6c0.2-1.4,2-14.1,2-14.1l-1.5,10.9c0.3-0.5,0.3-2,0.3-2l47.2,5.9c3-2-9.4-21.4-39-21.5   C190.8,144.2,187.4,144.1,186.7,142.8z M150.3,163l0-15.6L150.3,163z M173.6,168.5l3.1-22.5L173.6,168.5z M152.6,136.8l30.3,1.3   L152.6,136.8z"
   id="path37"
   style="fill:#4caf50;fill-opacity:1" />
</g>
<line
   class="st18"
   x1="236.6"
   y1="157.8"
   x2="221.1"
   y2="267.1"
   id="line37" />
<path
   class="st8"
   d="M153.2,419.5"
   id="path38" />
<path
   class="st8"
   d="M346,278.1h-19.6l1.1-11.7c-3.1,4.3-6.7,7.7-10.6,10.1c-3.9,2.5-8,3.7-12.3,3.7c-4.7,0-9.1-1.1-13.2-3.4  c-4.1-2.3-7.5-6.1-10.2-11.5c-2.7-5.4-4.4-12.6-5.1-21.7c-0.7-9-0.1-20.3,1.7-33.8c3.1-21.6,8.6-37.7,16.4-48.1  c7.8-10.5,16.9-15.7,27.3-15.7c9.5,0,16.4,4.3,20.7,13l8.5-60.2h20.7L346,278.1z M298.8,212.1c-1.1,9.1-1.8,17.4-1.9,24.8  c-0.1,7.4,0.8,13.3,2.8,17.6c2,4.3,5.5,6.5,10.5,6.5c3.4,0,6.5-1.2,9.3-3.7c2.8-2.5,5.2-5.7,7.2-9.7c2-4,3.6-8.3,4.7-12.8l6.8-47.2  c0.1-6.5-1.1-11.9-3.6-16.1c-2.6-4.2-6.3-6.3-11.1-6.3c-4.4,0-8.3,2.1-11.5,6.4c-3.3,4.3-6,10-8.1,17.1  C301.6,195.8,300,203.6,298.8,212.1z"
   id="path39"
   style="fill:#4caf50;fill-opacity:1" />
</svg>
