<?xml version="1.0" encoding="utf-8"?>
<!-- Generator: Adobe Illustrator 28.2.0, SVG Export Plug-In . SVG Version: 6.00 Build 0)  -->
<svg version="1.1" id="图层_1" xmlns="http://www.w3.org/2000/svg" xmlns:xlink="http://www.w3.org/1999/xlink" x="0px" y="0px"
	 viewBox="0 0 155.48 59.35" style="enable-background:new 0 0 155.48 59.35;" xml:space="preserve">
<style type="text/css">
	.st0{fill:#8E5724;stroke:#FFFFFF;stroke-width:0.5;stroke-linecap:round;stroke-linejoin:round;}
	.st1{fill-rule:evenodd;clip-rule:evenodd;fill:#F6EBC9;}
	.st2{fill:#F6EBC9;}
	.st3{fill-rule:evenodd;clip-rule:evenodd;fill:#EFC756;}
	.st4{fill:#EFC756;}
	.st5{fill-rule:evenodd;clip-rule:evenodd;fill:#C08B39;}
	.st6{fill:#C08B39;}
	.st7{fill-rule:evenodd;clip-rule:evenodd;fill:#F3D46A;}
	.st8{fill:#F3D46A;}
	.st9{fill-rule:evenodd;clip-rule:evenodd;fill:#F3D064;}
	.st10{fill:#F3D064;}
	.st11{fill-rule:evenodd;clip-rule:evenodd;fill:#E0AA3D;}
	.st12{fill:#E0AA3D;}
	.st13{fill-rule:evenodd;clip-rule:evenodd;fill:#EAC356;}
	.st14{fill:#EAC356;}
	.st15{fill-rule:evenodd;clip-rule:evenodd;fill:#C38C38;}
	.st16{fill:#C38C38;}
	.st17{fill-rule:evenodd;clip-rule:evenodd;fill:#FAE6B2;}
	.st18{fill-rule:evenodd;clip-rule:evenodd;fill:#EFCA57;}
	.st19{fill-rule:evenodd;clip-rule:evenodd;fill:#F3D065;}
	.st20{fill:#F3D065;}
	.st21{fill-rule:evenodd;clip-rule:evenodd;fill:#F3D86E;}
	.st22{fill:#F3D86E;}
	.st23{fill-rule:evenodd;clip-rule:evenodd;fill:#F3D468;}
	.st24{fill:#F3D468;}
	.st25{fill-rule:evenodd;clip-rule:evenodd;fill:#C08B3A;}
	.st26{fill:#C08B3A;}
	.st27{fill-rule:evenodd;clip-rule:evenodd;fill:#BF8939;}
	.st28{fill:#BF8939;}
	.st29{fill-rule:evenodd;clip-rule:evenodd;fill:#E2AB40;}
	.st30{fill:#E2AB40;}
	.st31{fill-rule:evenodd;clip-rule:evenodd;fill:#F2D56B;}
	.st32{fill:#F2D56B;}
	.st33{fill-rule:evenodd;clip-rule:evenodd;fill:#EDC453;}
	.st34{fill:#EDC453;}
	.st35{fill-rule:evenodd;clip-rule:evenodd;fill:#F8EAC4;}
	.st36{fill:#F8EAC4;}
	.st37{fill-rule:evenodd;clip-rule:evenodd;fill:#E2AB3F;}
	.st38{fill:#E2AB3F;}
	.st39{fill-rule:evenodd;clip-rule:evenodd;fill:#F3D66C;}
	.st40{fill:#F3D66C;}
	.st41{fill-rule:evenodd;clip-rule:evenodd;fill:#F8E5B3;}
	.st42{fill:#F8E5B3;}
	.st43{fill-rule:evenodd;clip-rule:evenodd;fill:#C38D39;}
	.st44{fill:#C38D39;}
	.st45{fill-rule:evenodd;clip-rule:evenodd;fill:#F1D872;}
	.st46{fill:#F1D872;}
	.st47{fill-rule:evenodd;clip-rule:evenodd;fill:#F2D873;}
	.st48{fill-rule:evenodd;clip-rule:evenodd;fill:#F4CF63;}
	.st49{fill:#F4CF63;}
	.st50{fill-rule:evenodd;clip-rule:evenodd;fill:#F6EBC5;}
	.st51{fill:#F6EBC5;}
	.st52{fill-rule:evenodd;clip-rule:evenodd;fill:#F2D670;}
	.st53{fill:#F2D670;}
	.st54{fill-rule:evenodd;clip-rule:evenodd;fill:#F3CE64;}
	.st55{fill:#F3CE64;}
	.st56{fill-rule:evenodd;clip-rule:evenodd;fill:#E1AD41;}
	.st57{fill:#E1AD41;}
	.st58{fill-rule:evenodd;clip-rule:evenodd;fill:#C08B35;}
	.st59{fill:#C08B35;}
	.st60{fill-rule:evenodd;clip-rule:evenodd;fill:#C18D37;}
	.st61{fill:#C18D37;}
	.st62{fill-rule:evenodd;clip-rule:evenodd;fill:#F2D56C;}
	.st63{fill:#F2D56C;}
	.st64{fill-rule:evenodd;clip-rule:evenodd;fill:#F3D773;}
	.st65{fill:#F3D773;}
	.st66{fill-rule:evenodd;clip-rule:evenodd;fill:#F2CF66;}
	.st67{fill:#F2CF66;}
	.st68{fill-rule:evenodd;clip-rule:evenodd;fill:#C18C3A;}
	.st69{fill:#C18C3A;}
	.st70{fill:#138B3B;stroke:#FFFFFF;stroke-width:0.5;stroke-miterlimit:10;}
</style>
<g>
	<path class="st0" d="M98.74,15.79c0.07-0.17,0.25-0.28,0.38-0.43c0.46-0.5,0.22-1.25,0.15-1.83c-0.09-0.7-0.5-1.32-0.78-1.96
		c-0.14-0.33-0.58-1.32-0.3-1.59c0.15-0.15,12.88-3.24,14.94-3.6c0.04-0.01,1.11-0.31,1.16-0.34c0.36-0.18,0.79-0.85,0.82-0.93
		c0.02-0.07,0.37-1.17-0.47-2.04c-0.6-0.62-4.01-0.71-4.55-0.72c0,0,0,0,0,0c-5.42-0.08-8.03,0.41-8.03,0.41
		c-2.71,0.51-4.07,0.76-4.67,1.08c-0.19,0.1-0.87,0.47-1.35,0.24c-0.35-0.16-0.28-0.49-0.67-0.69c-0.45-0.23-1.33-0.04-1.33-0.04
		s-0.12-0.87-1.08-1.23c-0.73-0.1-1.32-0.08-1.68-0.05c-1.22,0.1-5.39,1.89-5.62,2c-0.68,0.34-1.34,0.76-1.69,1.38
		c-0.36,0.62,0.24,1.98,0.24,1.98s-0.61,0.55-0.61,0.94c0,0.5,0.31,0.7,0.24,1.08c-0.1,0.56-1.07,0.81-1.3,0.87
		c-2.53,0.8-4.43,1.9-5.68,2.75c-2.16,1.46-3.71,3.09-4.41,4.08c-0.23,0.33-0.67,1.03-1.06,1.7c-0.45,0.76-0.55,1.02-0.6,1.14
		c-0.54,1.25-0.46,1.78-0.24,2.09c0.28,0.41,0.9,0.63,1.36,0.66c0.06,0,0.3,0.02,0.61-0.05c0.4-0.09,0.68-0.26,0.77-0.32
		c0.18-0.13,12.9-7.69,13.46-8.04c0.03,0.05,0.08,0.1,0.11,0.16l-1.7-3.12l1.7,3.12c0.21,0.29,0.49,0.7,0.8,1.21
		c0.58,0.94,0.61,1.17,1.06,1.71c0.48,0.59,1.07,1.31,1.77,1.27c0.3-0.02,0.6-0.17,0.85-0.02c0.02,0.01,0.04,0.03,0.06,0.05
		l7.34-2.79C98.71,15.88,98.72,15.84,98.74,15.79z M84.27,7.32l9.63-3.94L84.27,7.32z M96.45,13.96l-2.96-7.21 M98.87,12.39
		l-2.26-5.3L98.87,12.39z"/>
	<path class="st0" d="M98.76,16.29c-0.03-0.12-0.06-0.24-0.05-0.36l-7.34,2.79c0.15,0.13,0.18,0.32,0.19,0.35
		c0.09,0.45,7.12,14.68,18.52,37.56c0.69,0.82,1.36,1.03,1.82,0.95c0.54-0.09,5.34-2.03,5.44-2.15c0.69-0.79-0.15-1.85-0.47-2.59
		C116.45,51.87,99.13,17.73,98.76,16.29z"/>
</g>
<g>
	<polygon class="st1" points="50.76,40.16 51.35,40.93 52.52,41.68 53.83,42.31 55.36,42.45 56.75,42.45 58.17,42.21 59.27,41.77 
		58.24,41.98 57.37,42.05 56.09,42.05 54.92,41.84 53.36,41.58 52.19,41.11 	"/>
	<path class="st2" d="M52.22,41.06h-0.02l1.17,0.47h-0.02l1.57,0.24L56.11,42h-0.02h1.28l0.87-0.09v0.02l1.5-0.33l0.02,0.03
		l-1.57,0.63l-1.43,0.26h-1.4l-1.54-0.16l-1.33-0.61l-1.19-0.79l-0.82-1.07L52.22,41.06z M50.72,40.22l0.09-0.1l0.59,0.77
		l-0.02-0.02l1.17,0.77h-0.02l1.31,0.63l-0.02-0.02l1.54,0.16h-0.02h1.4h-0.02l1.43-0.26h-0.02l1.1-0.44l0.03,0.12l-1.03,0.23
		l-0.89,0.07h-1.28l-1.17-0.23l-1.57-0.24l-1.19-0.49L50.72,40.22z"/>
	<path class="st3" d="M56.86,34.86l0.12,2.92l0.03,0.26l3.66-0.03l0.47,0.28l5.65-1.28c0.02-0.7,0.02-1.38,0.03-2.08L56.86,34.86z"
		/>
	<path class="st4" d="M66.9,34.88l-0.05,2.19l-5.72,1.29l-0.49-0.3h0.03l-3.71,0.03l-0.05-0.31l-0.12-2.99L66.9,34.88z M56.86,34.93
		l0.07-0.07l0.1,2.92v-0.02l0.05,0.26l-0.07-0.05l3.67-0.03l0.49,0.3h-0.05l5.65-1.28l-0.05,0.05l0.03-2.08L66.83,35L56.86,34.93z"
		/>
	<polygon class="st5" points="52.4,46.41 51.33,48.12 53.2,48.58 54.92,48.77 57.91,48.82 61.23,48.7 63.91,48.38 66.06,47.58 
		67.34,46.65 68.54,45.8 68.88,45.29 66.3,43.85 65.87,44.64 65.06,45.38 64.08,46.22 63.35,46.3 61.16,46.56 58.85,46.72 
		55.53,46.84 	"/>
	<path class="st6" d="M55.55,46.77h-0.02l3.32-0.1l2.31-0.16h-0.02l2.2-0.28l0.73-0.07l-0.03,0.02l0.98-0.86l0.8-0.73l-0.02,0.02
		l0.47-0.84l2.68,1.5l-0.38,0.58l-1.21,0.86l-1.29,0.93l-2.17,0.82l-2.68,0.31l-3.32,0.1l-2.99-0.03l-1.73-0.19l-1.94-0.49l1.12-1.8
		L55.55,46.77z M52.38,46.48l0.07-0.03l-1.07,1.71l-0.03-0.1l1.87,0.47H53.2l1.71,0.19l2.99,0.03l3.32-0.12l2.66-0.3h-0.02
		l2.15-0.82v0.02l1.28-0.93l1.21-0.86l-0.02,0.02l0.31-0.51l0.03,0.09l-2.55-1.42l0.09-0.03l-0.45,0.79l-0.8,0.73l-1,0.87
		l-0.75,0.07l-2.2,0.28l-2.29,0.16l-3.34,0.1L52.38,46.48z"/>
	<polygon class="st7" points="50.21,22.32 54.22,22.17 60.41,22.32 66.11,24.91 66.18,25.17 68.53,23.58 65.69,21.9 61.91,20.64 
		55.72,20.31 52.63,20.64 	"/>
	<path class="st8" d="M52.61,20.59l3.11-0.33l6.21,0.33l3.78,1.26l2.94,1.73l-2.5,1.68l-0.1-0.31l0.03,0.03l-5.68-2.61l0.02,0.02
		l-6.19-0.17h0.02l-4.25,0.17L52.61,20.59z M50.25,22.37l-0.03-0.12l4.01-0.16l6.21,0.16l5.74,2.62l0.09,0.28l-0.1-0.03l2.34-1.59
		v0.1l-2.83-1.68l0.02,0.02l-3.78-1.26h0.02l-6.19-0.33h0.02l-3.1,0.33l0.03-0.02L50.25,22.37z"/>
	<polygon class="st5" points="68.67,23.58 66.01,25.49 63.23,30.23 64.14,30.84 64.57,30.81 65.01,30.46 65.19,30.26 68.68,25.28 
		68.88,25.03 69.02,24.67 68.96,24.32 68.84,24.04 	"/>
	<path class="st6" d="M68.91,24.02l0.1,0.28l0.07,0.38l-0.16,0.38l-0.19,0.24l-3.5,4.98l-0.17,0.19l-0.45,0.38l-0.49,0.02
		l-0.96-0.65l2.8-4.79l2.73-1.98L68.91,24.02z M68.6,23.6l0.1,0.03l-2.66,1.91l0.02-0.02l-2.76,4.74l-0.03-0.09l0.91,0.61
		l-0.03-0.02l0.44-0.02h-0.03l0.44-0.35h-0.02l0.17-0.19v0.02l3.5-4.98L68.82,25l0.12-0.35v0.03l-0.05-0.35l-0.1-0.26L68.6,23.6z"/>
	<polygon class="st1" points="50,22.34 45.35,27.17 44.25,29.11 43.92,31.09 44.48,29.58 45.11,28.76 46.09,27.57 47.08,26.31 
		48.36,25 50.06,23.49 50.3,23.3 54.15,23.06 57.87,23.16 60.46,23.49 64.12,24.86 65.67,25.82 66.13,25.23 64.33,24.18 63.1,23.63 
		60.9,22.67 60.25,22.43 	"/>
	<path class="st2" d="M60.25,22.36l0.68,0.26l2.19,0.96l1.24,0.54l1.87,1.08l-0.54,0.7l-1.61-1v0.02l-3.64-1.38l0.02,0.02
		l-2.61-0.33l-3.73-0.1h0.02l-3.83,0.24l0.03-0.02l-0.26,0.19h0.02l-1.7,1.5l-1.29,1.31l-0.98,1.26l-0.98,1.17l-0.63,0.82V29.6
		l-0.72,1.98h-0.03l0.42-2.48l1.1-1.96l4.69-4.84L60.25,22.36z M50,22.41l0.05-0.02l-4.67,4.81h0.02l-1.1,1.94l0.02-0.02l-0.33,1.96
		l-0.12-0.02l0.54-1.52l0.65-0.84l0.98-1.17l1-1.26l1.29-1.31l1.7-1.52l0.26-0.19l3.85-0.26l3.74,0.12l2.61,0.31l3.66,1.38
		l1.57,0.96l-0.09,0.02l0.47-0.61l0.02,0.1l-1.82-1.05l0.02,0.02l-1.24-0.56l-2.19-0.96l-0.66-0.24l0.03,0.02L50,22.41z"/>
	<polygon class="st5" points="58.07,28.72 56.05,28.76 54.78,28.88 53.97,29.06 53.47,29.27 52.96,29.46 52.22,29.9 51.72,30.26 
		51.28,30.7 50.91,31.17 50.76,31.61 50.55,32.2 50.44,32.82 50.21,33.39 50.18,33.99 50.18,34.9 50.18,35.91 50.18,36.68 
		50.25,37.42 50.41,38.22 50.58,38.69 50.72,39.13 51.02,39.83 51.24,40.04 51.38,40.3 54.11,38.36 53.87,37.75 53.54,37.05 
		53.33,36.32 53.33,34.97 53.24,34.29 53.47,32.99 53.68,31.8 54.04,31.07 54.41,30.63 55.04,30.12 55.51,29.72 55.88,29.35 
		56.25,29.16 56.75,29.06 57.4,28.88 	"/>
	<path class="st6" d="M57.42,28.93L57.42,28.93l-0.65,0.19l-0.52,0.1l0.02-0.02l-0.37,0.19l0.02-0.02l-0.37,0.37l-0.47,0.4
		l-0.61,0.52v-0.02L54.1,31.1l0.02-0.02l-0.37,0.73V31.8l-0.23,1.21h0.02l-0.23,1.28v-0.02l0.07,0.7v1.35V36.3l0.23,0.73h-0.02
		l0.33,0.68l0.28,0.68l-2.83,1.99l-0.19-0.31l0.02,0.02l-0.23-0.23l-0.3-0.7l-0.16-0.45h0.02l-0.19-0.47l-0.14-0.8l-0.09-0.73v-0.79
		V34.9v-0.91l0.03-0.59l0.23-0.59l0.1-0.61l0.23-0.59l0.14-0.45l0.38-0.49l0.44-0.44l0.52-0.37l0.73-0.44l0.52-0.19h-0.02l0.52-0.23
		l0.82-0.17l1.28-0.1l2.52-0.05v0.02L57.42,28.93z M58.05,28.67l0.02,0.12l-2.01,0.03l-1.28,0.1h0.02l-0.8,0.19l0.02-0.02
		l-0.52,0.23l-0.51,0.17h0.02l-0.73,0.44l-0.51,0.37V30.3l-0.44,0.44h0.02l-0.37,0.47v-0.02l-0.14,0.44l-0.23,0.59V32.2l-0.1,0.63
		l-0.23,0.59l0.02-0.02l-0.03,0.58v0.91v1.01v0.77l0.07,0.73V37.4l0.14,0.8l0.17,0.47l0.16,0.44l0.28,0.68v-0.02l0.21,0.23
		l0.16,0.26l-0.09-0.02l2.73-1.94l-0.02,0.09l-0.26-0.63h0.02l-0.33-0.68l-0.23-0.75v-1.36v0.02l-0.07-0.72l0.21-1.28l0.23-1.22
		l0.37-0.73l0.38-0.45l0.61-0.51l0.47-0.4l0.38-0.37l0.37-0.19l0.52-0.12l0.66-0.17L58.05,28.67z"/>
	<polygon class="st9" points="58.64,32.17 57.73,32.92 57.03,33.73 56.77,34.02 66.64,34.09 68.11,33.18 68.88,32.71 69.02,32.61 
		68.65,32.38 68.25,32.34 67.84,32.34 66.71,32.27 	"/>
	<path class="st10" d="M66.71,32.2l1.14,0.07h0.4l0.42,0.03l0.45,0.28l-0.21,0.17l-0.77,0.47l-1.49,0.93l-10.02-0.07l0.35-0.4
		l0.7-0.8l0.94-0.79L66.71,32.2z M58.64,32.22l0.03-0.02l-0.91,0.77l-0.68,0.8l-0.26,0.28l-0.05-0.1l9.86,0.09H66.6l1.47-0.91
		l0.77-0.47h-0.02l0.16-0.1v0.1l-0.37-0.23l0.03,0.02l-0.4-0.03h-0.4l-1.14-0.09L58.64,32.22z"/>
	<polygon class="st1" points="66.83,34.23 66.36,34.86 56.86,34.76 56.79,34.43 56.75,34.16 	"/>
	<path class="st2" d="M56.75,34.23l0.05-0.07l0.05,0.24h-0.02l0.09,0.33l-0.07-0.05l9.5,0.1l-0.05,0.03l0.47-0.63l0.05,0.1
		L56.75,34.23z M66.95,34.18l-0.56,0.75l-9.58-0.12l-0.09-0.37l-0.03-0.33L66.95,34.18z"/>
	<path class="st5" d="M69.24,32.71l-0.73,0.17l-0.7,0.63l-1.28,0.72l-0.21,0.4l0.07,0.49c-0.02,2.8-0.05,5.61-0.07,8.43l0.07,0.3
		l2.55,1.38l0.4-0.66l0.16-0.37l-0.12-10.84L69.24,32.71z"/>
	<path class="st6" d="M69.45,33.36l0.1,10.86l-0.16,0.38l-0.42,0.72l-2.64-1.43l-0.09-0.33l0.07-8.43l-0.07-0.49l0.24-0.44
		l1.29-0.73h-0.02l0.7-0.63l0.82-0.21L69.45,33.36z M69.17,32.73l0.09,0.03l-0.73,0.19l0.03-0.02l-0.7,0.63l-1.29,0.73l0.03-0.03
		l-0.23,0.4v-0.03l0.09,0.47l-0.07,8.45l-0.02-0.02l0.09,0.3l-0.03-0.05l2.55,1.4l-0.09,0.02l0.4-0.66v0.02l0.14-0.37v0.03
		l-0.1-10.86v0.02L69.17,32.73z"/>
	<polygon class="st7" points="54.15,38.36 51.33,40.34 51.86,40.71 52.14,40.93 52.73,41.21 53.78,41.48 54.78,41.68 55.76,41.88 
		56.63,41.95 57.54,41.95 58.82,41.77 59.66,41.44 60.03,41.32 60.25,41.32 60.59,41 60.66,40.27 60.59,39.9 60.59,39.76 
		59.69,39.94 59.01,40.08 58.14,40.08 57.51,40.08 56.74,39.94 56.23,39.83 55.46,39.57 54.95,39.29 54.52,38.89 	"/>
	<path class="st8" d="M54.57,38.83h-0.02l0.44,0.4v-0.02l0.51,0.3h-0.02l0.77,0.24l0.51,0.12l0.77,0.14h-0.02h0.63h0.87h-0.02
		l0.7-0.14l0.94-0.21v0.23v-0.02l0.07,0.38l-0.07,0.75l-0.37,0.37h-0.24h0.02l-0.37,0.1h0.02l-0.86,0.33l-1.29,0.19h-0.91
		l-0.89-0.09l-0.98-0.17l-1-0.23l-1.07-0.24l-0.59-0.3l-0.3-0.23l-0.58-0.42l2.94-2.06L54.57,38.83z M54.1,38.4l0.09,0.02
		l-2.82,1.98v-0.1l0.52,0.37l0.28,0.23v-0.02l0.58,0.3h-0.02l1.07,0.24l0.98,0.23l1,0.17h-0.02l0.87,0.07h0.91l1.28-0.17H58.8
		l0.84-0.33l0.38-0.1h0.23l-0.05,0.02l0.33-0.33l-0.02,0.03l0.07-0.72v0.02l-0.07-0.38v-0.14l0.07,0.05l-0.87,0.19l-0.7,0.14h-0.87
		h-0.63l-0.77-0.14l-0.52-0.12l-0.77-0.24l-0.52-0.3l-0.45-0.42L54.1,38.4z"/>
	<polygon class="st11" points="46.37,41.23 47.06,42.24 47.9,42.98 48.64,43.61 50.02,44.73 51.66,46.01 52.47,46.49 55.22,46.67 
		57.26,46.7 59.34,46.63 62.21,46.41 63.61,46.3 64.49,45.76 65.26,45.1 65.99,44.41 66.27,44.08 68.65,45.39 68.91,45.13 
		66.23,43.64 66.3,36.84 60.59,38.31 60.66,39.25 60.73,39.99 60.59,40.86 60.25,41.41 59.59,41.67 58.42,42.21 56.67,42.51 
		55.53,42.51 53.89,42.28 52.98,41.96 51.73,41.23 51,40.76 50.65,40.2 	"/>
	<path class="st12" d="M50.67,40.13l0.4,0.59l-0.03-0.02l0.73,0.47l1.24,0.73l-0.02-0.02l0.93,0.33H53.9l1.64,0.21h-0.02h1.14
		l1.75-0.28H58.4l1.17-0.54l0.65-0.26l-0.02,0.02l0.31-0.54v0.02l0.14-0.87v0.02l-0.07-0.73l-0.07-1l5.86-1.49l-0.07,6.87
		l-0.03-0.05l2.75,1.52l-0.35,0.35l-2.43-1.33l0.09-0.02l-0.3,0.33l-0.73,0.7l-0.77,0.66l-0.89,0.56l-1.4,0.1l-2.89,0.23l-2.08,0.07
		l-2.06-0.03l-2.75-0.19l-0.82-0.49l-1.64-1.28l-1.4-1.14l-0.72-0.61l-0.86-0.73l-0.75-1.1L50.67,40.13z M46.38,41.28l0.03-0.09
		l0.7,1.01H47.1l0.84,0.72l0.73,0.63l1.38,1.14v-0.02l1.64,1.29v-0.02l0.8,0.47h-0.03l2.75,0.17l2.05,0.03h-0.02l2.08-0.07
		l2.89-0.21l1.4-0.12l-0.03,0.02l0.87-0.54l0.75-0.66v0.02l0.73-0.7l0.31-0.37l2.43,1.35H68.6l0.26-0.24l0.02,0.1l-2.71-1.52
		l0.09-6.84l0.07,0.07l-5.74,1.45l0.05-0.05l0.07,0.94l0.09,0.73l-0.16,0.89l-0.35,0.58l-0.68,0.26h0.02l-1.19,0.56l-1.77,0.3h-1.14
		l-1.64-0.23l-0.93-0.33l-1.26-0.73l-0.73-0.49l-0.37-0.56l0.05,0.03L46.38,41.28z"/>
	<path class="st9" d="M65.62,25.84l-1.57-0.94l-3.13-1.07l-1.07-0.28l-4.78-0.37l-4.36,0.17l-0.54,0.03l-3.15,3.04l-0.68,0.98
		l-1.21,1.61l-0.51,0.58l-0.84,2.01l0.28-1.85l-0.21,0.47l-0.12,0.91l-0.24,0.47v0.84l-0.14,1v1.01v0.8l0.07,1.82l0.1,1.43L44,40.88
		l0.66,1.03l0.54-0.47l0.8-0.19l1.07-0.31l3.39-0.77l0.37-0.03l0.17,0.17l0.26-0.14l-0.49-0.73l-0.31-0.63l-0.12-0.65l-0.24-1.17
		v-1.07c-0.02-0.51-0.03-1.01-0.03-1.52v-0.77l0.21-0.91l0.51-1.36l0.49-0.91l1.24-0.98l1.64-0.8l1.64-0.23l1.12-0.03l1.17,0.09
		l1.35,0.24l1.07,0.33l1.45,0.61l0.84,0.3l0.3,0.3L65.62,25.84z"/>
	<path class="st10" d="M63.12,30.37l-0.35-0.35l0.02,0.02l-0.84-0.3l-1.47-0.63h0.02l-1.07-0.31h0.02l-1.36-0.26h0.02l-1.17-0.07
		l-1.12,0.03l-1.64,0.23l0.02-0.02l-1.64,0.8h0.02l-1.24,0.98l0.02-0.02l-0.47,0.91l-0.51,1.35l-0.23,0.91v-0.02v0.77l0.03,1.52
		v1.07v-0.02l0.26,1.17l0.1,0.66v-0.02l0.33,0.61l0.51,0.79L51,40.39l-0.21-0.23l0.05,0.02l-0.37,0.03h0.02l-3.41,0.77h0.02
		l-1.07,0.33l-0.8,0.17h0.02l-0.59,0.52l-0.7-1.1l-0.49-2.4l-0.1-1.42l-0.07-1.84v-0.8v-1.03l0.14-0.98v-0.86l0.26-0.49v0.03
		l0.1-0.93l0.42-0.91l-0.37,2.33l-0.12-0.03l0.86-2.03l0.51-0.58l1.21-1.61l0.7-1l3.15-3.04l0.58-0.03l4.36-0.19l4.79,0.37l1.07,0.3
		l3.15,1.07l1.63,0.98L63.12,30.37z M65.57,25.8l0.02,0.09l-1.56-0.94L60.9,23.9l-1.07-0.3h0.02l-4.79-0.37h0.02l-4.36,0.19h0.02
		l-0.56,0.03l0.05-0.02l-3.15,3.03l-0.68,0.98l-1.21,1.61l-0.52,0.59l0.02-0.02l-1.03,2.47h-0.02l0.38-2.36l0.12,0.03l-0.23,0.47
		v-0.02l-0.1,0.93l-0.26,0.49l0.02-0.03v0.84l-0.16,1v1.01v0.8l0.07,1.82l0.12,1.43V38.5l0.47,2.38l-0.02-0.03l0.66,1.03l-0.1-0.02
		l0.56-0.49L46,41.2l1.07-0.33l3.39-0.77l0.4-0.03l0.21,0.21l-0.09-0.02l0.26-0.14l-0.02,0.09l-0.49-0.73l-0.33-0.63l-0.1-0.66
		l-0.26-1.19v-1.05L50,34.39v-0.77l0.23-0.93l0.51-1.36l0.49-0.93l1.26-1l1.66-0.82l1.64-0.21l1.14-0.03l1.19,0.07l1.35,0.26
		L60.53,29L62,29.62l0.84,0.3l0.31,0.3l-0.1,0.02L65.57,25.8z"/>
	<polygon class="st13" points="46.38,41.28 44.63,42.02 45.14,42.96 45.84,43.77 46.85,44.94 47.76,45.81 49.06,46.79 50.44,47.7 
		51.24,48 52.38,46.49 51.38,45.78 50.11,44.78 48.69,43.5 47.66,42.73 	"/>
	<path class="st14" d="M47.71,42.7l-0.02-0.02l1.03,0.77l1.43,1.28h-0.02l1.28,1l1.05,0.77l-1.21,1.57l-0.86-0.3l-1.4-0.93l-1.28-1
		l-0.91-0.87l-1.03-1.17l-0.7-0.8l-0.54-1.01l1.85-0.79L47.71,42.7z M46.33,41.32l0.07,0.02l-1.75,0.73l0.03-0.09l0.51,0.94v-0.02
		l0.7,0.8l1.01,1.17l0.91,0.87l1.28,0.98l1.38,0.91h-0.02l0.8,0.3l-0.07,0.02l1.14-1.5v0.09l-0.98-0.73l-1.28-0.98l-1.43-1.28
		l-1.01-0.77L46.33,41.32z"/>
	<polygon class="st15" points="91.68,46.77 92.75,48.31 92.93,48.61 92.56,48.79 91.58,49.01 88.73,49.26 87.78,49.26 85.95,49.26 
		83.22,49.05 80.66,48.72 79.13,48.12 79.37,47.25 79.86,46.84 80.17,46.88 80.87,47.04 84.06,47.11 86.51,47.11 	"/>
	<path class="st16" d="M86.51,47.18h-2.45l-3.18-0.09l-0.7-0.14l-0.33-0.03l0.05-0.02l-0.47,0.4l0.02-0.03l-0.26,0.89l-0.03-0.09
		l1.54,0.58h-0.02l2.55,0.33l2.75,0.23h-0.02h1.84h0.94l2.85-0.26h-0.02l0.98-0.21l0.35-0.19l-0.02,0.1l-0.17-0.3l-1.07-1.54
		l0.05,0.03L86.51,47.18z M91.72,46.7l1.08,1.57l0.21,0.35l-0.44,0.23l-1,0.21l-2.85,0.26h-0.94h-1.84L83.2,49.1l-2.55-0.33
		l-1.61-0.59l0.28-0.96l0.51-0.42l0.37,0.03l0.7,0.14h-0.02l3.18,0.07h2.45h-0.02L91.72,46.7z"/>
	<path class="st17" d="M80,40.76l2.82,2.48l3.9-0.03l3.39-0.96l-0.21-0.91l-1.24-0.3l-1.57,0.26l-2.05,0.3l-0.73-0.03l-2.4-0.63
		c-0.21-0.09-0.38-0.17-0.59-0.24c-0.05-0.03-0.17-0.05-0.17-0.05L80,40.76z"/>
	<polygon class="st18" points="99.68,40.23 96.84,39.39 95.88,40.57 96.28,41.34 99.07,41.77 99.33,41.48 99.71,41 	"/>
	<polygon class="st19" points="78.93,24.09 77.41,25.17 76.69,26 75.92,26.61 75.1,27.43 74.56,27.97 73.56,29.39 73.13,30.26 
		72.74,30.82 72.64,31.16 72.48,31.98 72.25,33.5 72.2,35.42 72.36,38.38 72.48,39.74 72.74,40.74 77.78,37.94 78.72,37.45 
		78.99,37.28 78.99,36.53 78.99,35.86 78.93,34.81 79.27,33.39 79.7,32.29 80.42,31.09 81.07,30.39 82.12,29.9 83.53,29.34 
		84.53,29.23 85.89,29.23 87.15,29.34 87.87,29.51 88.75,30.05 89.67,30.88 90.06,31.59 90.39,32.34 90.44,32.8 90.67,33.94 
		90.72,34.65 96.53,33.11 96.63,32.9 96.25,29.39 90.06,23.86 85.02,23.58 84.09,23.58 82.45,23.58 	"/>
	<path class="st20" d="M82.43,23.53h1.66h0.93l5.07,0.26l6.21,5.58l0.4,3.53l-0.14,0.26l-5.91,1.57l-0.05-0.79l-0.23-1.15
		l-0.05-0.44v0.02L90,31.61l-0.38-0.7l0.02,0.02l-0.94-0.82h0.02l-0.87-0.54h0.02l-0.72-0.16h0.02l-1.26-0.1h-1.36l-0.98,0.1h0.02
		l-1.43,0.54l-1.03,0.49l0.02-0.02l-0.65,0.72v-0.02l-0.72,1.21h0.02l-0.45,1.08h0.02L79,34.83v-0.02l0.05,1.05v0.66v0.79l-0.3,0.19
		l-0.94,0.49l-5.11,2.83l-0.3-1.07l-0.1-1.38l-0.17-2.96l0.07-1.92l0.21-1.54l0.17-0.82l0.1-0.35l0.38-0.56v0.02l0.44-0.89l1-1.42
		l0.54-0.56l0.84-0.82l0.77-0.61l-0.02,0.02l0.72-0.84l1.56-1.1L82.43,23.53z M78.95,24.14h0.02l-1.52,1.08l-0.72,0.82l-0.77,0.59
		h0.02l-0.82,0.82l-0.56,0.56l0.02-0.02l-1,1.42h0.02l-0.45,0.87l-0.38,0.56l0.02-0.02l-0.1,0.33v-0.02l-0.17,0.82l-0.21,1.54V33.5
		l-0.05,1.92l0.16,2.96l0.1,1.36v-0.02l0.28,1l-0.09-0.05l5.04-2.78l0.93-0.49l0.28-0.17l-0.03,0.05v-0.75v-0.66l-0.05-1.05
		l0.33-1.43l0.44-1.1l0.72-1.22l0.66-0.72l1.05-0.51l1.43-0.54l1.01-0.12h1.36l1.28,0.12l0.72,0.16L88.78,30l0.94,0.84l0.38,0.72
		l0.33,0.79l0.07,0.44l0.21,1.15l0.05,0.72l-0.07-0.07l5.81-1.52l-0.05,0.03l0.12-0.23l-0.02,0.03l-0.38-3.5l0.03,0.03l-6.19-5.53
		l0.03,0.02l-5.04-0.28h-0.93h-1.64L78.95,24.14z"/>
	<polygon class="st5" points="85.81,29.25 84.02,29.42 83.03,29.65 81.21,30.42 80.61,30.93 79.96,32.06 79.49,32.97 79.16,34.15 
		78.99,35.16 78.99,36.3 79.02,37.14 79.13,37.61 79.37,38.61 79.74,39.45 80.17,40.2 80.7,40.9 81.82,39.95 83.25,38.96 
		82.78,38.08 82.22,36.4 82.22,35.02 82.22,33.99 82.52,32.71 82.69,31.77 83.29,30.79 83.69,30.35 84.09,29.91 84.57,29.55 	"/>
	<path class="st6" d="M84.58,29.6h0.02l-0.47,0.35h0.02l-0.4,0.44l-0.4,0.44l-0.58,0.98v-0.02l-0.17,0.94l-0.3,1.28v-0.02v1.03v1.38
		v-0.02l0.54,1.68l0.51,0.93l-1.49,1.01h0.02l-1.19,0.98l-0.56-0.75l-0.44-0.77l-0.37-0.84l-0.26-1l-0.1-0.49l-0.03-0.84v-1.14
		l0.17-1.03l0.33-1.17l0.49-0.93l0.66-1.14l0.59-0.52l1.84-0.79l1-0.21l2.29-0.24l0.02,0.07L84.58,29.6z M85.79,29.18l0.02,0.14
		l-1.78,0.17l-0.98,0.23l0.02-0.02l-1.84,0.77h0.02l-0.58,0.51l0.02-0.02l-0.66,1.14v-0.02l-0.47,0.93v-0.02l-0.33,1.17l0.02-0.02
		l-0.19,1.03v-0.02v1.14l0.03,0.84v-0.02l0.1,0.47l0.26,1v-0.02l0.37,0.84l0.44,0.77l-0.02-0.02l0.52,0.7l-0.1-0.02l1.14-0.94
		l1.43-1l-0.02,0.09l-0.49-0.87l-0.54-1.7v-1.4v-1.03l0.28-1.28l0.19-0.96l0.59-1l0.4-0.45l0.4-0.44l0.49-0.38L85.79,29.18z"/>
	<polygon class="st21" points="78.5,23.37 79.74,23.14 83.36,22.9 85.3,22.86 89.64,23.07 90.51,23.07 91.72,21.66 91.11,21.33 
		88.87,21.1 86.47,21.1 83.94,21.06 82.55,21.26 80.77,21.47 	"/>
	<path class="st22" d="M80.73,21.41l1.82-0.23l1.38-0.17l2.54,0.03h2.41l2.24,0.21l0.7,0.38l-1.28,1.5h-0.91l-4.34-0.23l-1.94,0.03
		l-3.6,0.26l-1.47,0.26L80.73,21.41z M78.55,23.42L78.5,23.3l1.24-0.21l3.62-0.26l1.94-0.03L89.64,23h0.87l-0.03,0.03l1.19-1.43
		l0.03,0.1l-0.63-0.33l0.02,0.02l-2.22-0.23h-2.4l-2.54-0.03h0.02l-1.38,0.17l-1.8,0.23l0.03-0.02L78.55,23.42z"/>
	<polygon class="st23" points="91.88,21.62 90.58,23.14 91.75,24.07 92.82,25.05 95.01,27.24 96.21,28.37 96.91,28.85 99,27.03 
		97.93,25.66 96.28,24.18 94.43,22.83 93.03,21.94 	"/>
	<path class="st24" d="M93.07,21.89l1.4,0.87l1.87,1.36l1.64,1.5l1.1,1.4l-2.17,1.91l-0.73-0.51l-1.21-1.14l-2.2-2.2v0.02l-1.05-1
		l-1.22-0.94l1.35-1.63L93.07,21.89z M91.86,21.68l0.05-0.02l-1.28,1.54v-0.1l1.17,0.93L92.86,25l2.2,2.2v-0.02l1.21,1.14h-0.02
		l0.7,0.47h-0.09l2.08-1.82v0.09l-1.07-1.35h0.02l-1.64-1.5v0.02l-1.85-1.36v0.02L93,21.99l0.02,0.02L91.86,21.68z"/>
	<path class="st25" d="M99.07,27.1l-2.71,2.22l0.16,1.24l0.03,1.24l0.1,0.8c0.02,0.59,0.02,1.17,0.03,1.75l0.1,4.13l-0.03,1.03
		l0.03,0.37l0.33,0.35l0.73,0.19l1.07,0.26l0.65,0.14h0.19l0.24-1.21l0.16-2.31v-2.59l-0.3-4.3l-0.19-1.98L99.07,27.1z"/>
	<path class="st26" d="M99.75,28.43l0.19,1.99l0.28,4.3v2.61l-0.14,2.29l-0.26,1.28h-0.24l-0.66-0.16l-1.07-0.26l-0.75-0.17
		l-0.35-0.4l-0.03-0.38l0.03-1.03l-0.1-4.13l-0.05-1.75l0.02,0.02l-0.12-0.82l-0.03-1.24v0.02L96.3,29.3l2.78-2.31L99.75,28.43z
		 M99.01,27.12l0.09,0.03l-2.69,2.22l0.02-0.05l0.14,1.24l0.05,1.24l0.1,0.8l0.03,1.75l0.1,4.13l-0.03,1.03V39.5l0.03,0.37
		l-0.02-0.03l0.33,0.37l-0.03-0.02l0.73,0.17l1.05,0.26l0.66,0.14h-0.02h0.19l-0.07,0.05l0.26-1.21v0.02l0.14-2.31v-2.59l-0.3-4.3
		l-0.17-1.98v0.03L99.01,27.12z"/>
	<polygon class="st27" points="96.21,40.9 91.68,46.7 92.16,47.47 92.96,48.38 93.26,48.38 94.31,47.68 95.48,46.53 97.05,44.85 
		98.63,42.77 99.33,41.37 	"/>
	<path class="st28" d="M99.41,41.32l-0.73,1.47l-1.57,2.1l-1.57,1.68l-1.17,1.17l-1.08,0.72h-0.33l-0.84-0.94l-0.49-0.8l4.57-5.88
		L99.41,41.32z M96.2,40.97l0.07-0.03l-4.53,5.81v-0.07l0.47,0.77v-0.02l0.8,0.93l-0.05-0.03h0.3l-0.03,0.02l1.05-0.7v0.02
		l1.17-1.17L97,44.8l1.57-2.08v0.02l0.68-1.38l0.05,0.09L96.2,40.97z"/>
	<polygon class="st29" points="90.77,34.76 90.95,36.4 90.88,37.1 90.7,38.61 89.97,40.06 88.99,41.2 87.85,42.28 86.35,42.68 
		84.02,42.72 82.22,42.37 81.54,41.84 80.7,40.97 80.14,40.32 79.83,39.8 79.53,39.32 79.34,38.75 79.09,37.64 78.93,37.4 
		72.72,40.83 72.99,41.16 73.49,40.97 74.19,40.79 74.53,40.86 76.31,42.77 77.18,43.71 78.79,45.2 80.14,46.53 80.4,46.74 
		80.77,46.97 89.46,47.04 91.28,47 91.68,46.74 96.18,40.86 96.39,40.5 96.65,39.85 96.72,38.89 96.62,33.2 	"/>
	<path class="st30" d="M96.69,33.11l0.1,5.77l-0.07,0.96l-0.26,0.68l-0.23,0.37l-4.5,5.89l-0.44,0.26l-1.84,0.05l-8.71-0.09
		l-0.38-0.23l-0.26-0.23l-1.35-1.31l-1.61-1.5l-0.89-0.94l-1.78-1.91l0.03,0.03l-0.33-0.09h0.03l-0.7,0.19h0.02l-0.56,0.19
		l-0.33-0.42l6.33-3.5l0.17,0.31l0.26,1.1l0.17,0.58v-0.02l0.3,0.49v-0.02l0.31,0.52v-0.02l0.54,0.66l0.84,0.87v-0.02l0.7,0.52
		l-0.03-0.02l1.78,0.37l2.33-0.03h-0.02l1.5-0.4l-0.03,0.02l1.14-1.1l0.98-1.12l0.72-1.45v0.02l0.19-1.5v0.02l0.07-0.7v0.02
		l-0.19-1.7L96.69,33.11z M90.79,34.83l0.05-0.07l0.17,1.64l-0.07,0.7l-0.19,1.52l-0.73,1.47l-1,1.14l-1.14,1.12l-1.52,0.4
		l-2.36,0.03l-1.8-0.37l-0.72-0.52l-0.84-0.87l-0.56-0.66l-0.33-0.52l-0.3-0.47l-0.17-0.59l-0.26-1.1l0.02,0.02l-0.16-0.26
		l0.09,0.03l-6.21,3.43l0.02-0.09l0.26,0.31l-0.07-0.02l0.51-0.17l0.72-0.19l0.37,0.09l1.8,1.91l0.87,0.94l1.61,1.5l1.35,1.31
		l0.24,0.21l0.37,0.23l-0.03-0.02l8.69,0.07l1.82-0.03l-0.03,0.02l0.4-0.26l-0.02,0.02l4.5-5.88l0.21-0.37v0.02l0.26-0.66
		l-0.02,0.02l0.09-0.94l-0.12-5.68l0.09,0.05L90.79,34.83z"/>
	<polygon class="st31" points="83.39,38.96 80.77,40.86 81.31,41.3 82.15,41.7 83.76,42.07 85.47,42.03 87.56,41.93 88.55,41.53 
		90.07,39.73 90.07,39.52 88.99,40.09 86.79,40.32 85.37,40.09 84.79,39.99 	"/>
	<path class="st32" d="M84.83,39.94l-0.03-0.02l0.59,0.12h-0.02l1.43,0.21h-0.02l2.19-0.23l-0.02,0.02l1.19-0.63v0.35l-1.56,1.82
		l-1.01,0.4l-2.1,0.1l-1.71,0.05l-1.63-0.38l-0.86-0.4l-0.61-0.49l2.73-1.98L84.83,39.94z M83.36,39.01h0.07l-2.62,1.91v-0.1
		l0.54,0.44l0.84,0.4l-0.02-0.02L83.78,42h-0.02l1.71-0.03l2.08-0.1h-0.02l0.98-0.4l-0.02,0.02l1.52-1.78v0.03v-0.21l0.09,0.05
		l-1.1,0.59l-2.22,0.21l-1.43-0.21l-0.59-0.12L83.36,39.01z"/>
	<polygon class="st33" points="72.99,41.04 73.09,41.74 74.09,43.28 75.14,44.8 76.57,46.23 77.74,47.21 78.9,48.09 79.23,48.12 
		79.42,47.47 80,47.07 80.07,46.88 80.37,46.93 78.25,44.85 76.85,43.42 74.93,41.37 74.53,41.04 74.26,40.93 73.86,40.93 	"/>
	<path class="st34" d="M73.86,40.86h0.42l0.28,0.12l0.4,0.35l1.94,2.05l1.38,1.42l2.26,2.22l-0.47-0.07l0.07-0.03l-0.09,0.19
		l-0.59,0.42l0.02-0.03l-0.19,0.7l-0.4-0.03l-1.19-0.89l-1.17-0.98l-1.43-1.43l-1.05-1.54l-1-1.56l-0.12-0.77L73.86,40.86z
		 M73,41.11l0.05-0.07l0.1,0.7l-0.02-0.03l1,1.54l1.05,1.52l1.42,1.42l1.17,0.98l1.17,0.87h-0.03l0.33,0.03l-0.07,0.05l0.17-0.68
		l0.61-0.42l-0.02,0.03l0.09-0.23l0.33,0.03l-0.05,0.1l-2.12-2.08l-1.38-1.42l-1.94-2.05l-0.4-0.33l0.02,0.02L74.25,41h0.02h-0.4
		h0.02L73,41.11z"/>
	<polygon class="st35" points="102.65,23.77 102.41,24.28 102.51,24.65 106.34,24.68 109.3,24.68 109.89,24.02 109.63,23.84 	"/>
	<path class="st36" d="M109.65,23.77l0.33,0.24l-0.65,0.73h-2.99l-3.88-0.03l-0.12-0.44l0.28-0.58L109.65,23.77z M102.65,23.83
		l0.07-0.03l-0.26,0.52v-0.05l0.12,0.37l-0.07-0.05l3.83,0.03h2.96l-0.03,0.03l0.58-0.66l0.02,0.09l-0.26-0.17l0.03,0.02
		L102.65,23.83z"/>
	<path class="st37" d="M109.19,38.55c-0.73-0.21-2.94,0.86-4.41,1.29c-0.02,1.42-0.03,2.83-0.05,4.27c0.02,0.65,0.03,1.31,0.05,1.98
		l0.03,0.68l0.35-0.37l13.63,0.03l0.26-0.03l0.17,0.26l-0.1-0.77v-2.45l-0.07-1.61l-9.5,0.09l-0.37-0.73
		C109.21,40.34,109.93,38.78,109.19,38.55z"/>
	<path class="st38" d="M109.28,38.54l0.07,0.03l0.05,0.03l0.05,0.05l0.03,0.07l0.03,0.07l0.05,0.14l0.02,0.16v0.17l-0.03,0.19
		l-0.02,0.19l-0.03,0.19l-0.05,0.21l-0.09,0.4l-0.03,0.21l-0.03,0.19v-0.02l-0.03,0.19v-0.02v0.17l-0.02-0.03l0.37,0.73l-0.05-0.03
		l9.55-0.07l0.09,1.66v2.45l0.14,1.01L119,46.44l0.05,0.03l-0.24,0.03l-13.64-0.03l0.05-0.02l-0.47,0.47l-0.03-0.84l-0.03-1.98
		l0.03-4.32l0.33-0.1l0.3-0.1l0.3-0.1l0.31-0.1l0.65-0.24l0.31-0.12l0.31-0.1l0.31-0.12l0.3-0.09l0.28-0.09l0.26-0.07l0.24-0.03
		l0.1-0.02l0.1-0.02h0.1h0.1l0.09,0.02l0.07,0.02L109.28,38.54z M109.17,38.62L109.17,38.62l-0.07-0.02h0.02l-0.09-0.02v0.02
		l-0.09-0.02l-0.09,0.02h-0.1l-0.1,0.02l-0.23,0.05l-0.26,0.05l-0.28,0.09l-0.3,0.09l-0.3,0.1l-0.31,0.12l-0.31,0.12l-0.65,0.23
		l-0.31,0.12l-0.31,0.1l-0.3,0.1l-0.28,0.09l0.03-0.05l-0.03,4.27l0.03,1.96l0.03,0.7l-0.1-0.03l0.38-0.38l13.64,0.03l0.3-0.05
		l0.19,0.3l-0.1,0.05l-0.12-0.79v-2.45l-0.07-1.59l0.07,0.05l-9.53,0.07l-0.4-0.77l0.02-0.19l0.03-0.19l0.02-0.19l0.05-0.19
		l0.09-0.42l0.03-0.19l0.05-0.21v0.02l0.02-0.19l0.02-0.19v0.02V39.1v0.02l-0.02-0.16l0.02,0.02l-0.05-0.14h0.02l-0.03-0.05v0.02
		l-0.03-0.05h0.02l-0.05-0.05l0.02,0.02l-0.05-0.03l-0.05-0.03h0.02L109.17,38.62z"/>
	<path class="st5" d="M112.11,22.31l-0.68,0.33l-1.57,1.21l-0.51,0.47l-0.19,0.44c0.03,5.44,0.07,10.86,0.1,16.28l0.09,0.4
		l0.47-0.35l1.64-1.5l0.75-0.7h0.12c-0.02-5.23-0.03-10.46-0.03-15.71l-0.03-0.35L112.11,22.31z"/>
	<path class="st6" d="M112.32,22.81l0.03,0.37l0.03,15.78h-0.16l0.03-0.02l-0.77,0.7l-1.64,1.49l-0.56,0.44l-0.09-0.51l-0.12-16.32
		l0.21-0.45l0.51-0.49l1.59-1.21l0.77-0.37L112.32,22.81z M112.06,22.32l0.09,0.05l-0.7,0.31h0.02l-1.57,1.21l-0.51,0.47l0.02-0.02
		l-0.19,0.44l0.02-0.03l0.1,16.28l0.07,0.4l-0.1-0.03l0.47-0.37l1.64-1.5l0.79-0.7h0.14l-0.07,0.05l-0.03-15.71v0.02l-0.03-0.37
		v0.02L112.06,22.32z"/>
	<polygon class="st39" points="112.52,38.92 118.83,38.89 120.51,38.96 121.31,39.04 121.68,39.29 121.84,39.69 121.58,39.45 
		121.21,39.59 119.6,41.23 119.23,41.23 110.47,41.16 109.89,41.13 109.38,41.53 109.26,41.27 	"/>
	<path class="st40" d="M109.3,41.32l0.03-0.07l0.1,0.24l-0.1-0.02l0.54-0.42l0.59,0.03l8.76,0.07h0.37l-0.03,0.02l1.61-1.64
		l0.42-0.17l0.28,0.3l-0.1,0.05l-0.14-0.4l0.02,0.03l-0.37-0.24h0.03l-0.8-0.07l-1.68-0.07l-6.31,0.03l0.03-0.02L109.3,41.32z
		 M112.5,38.87l6.33-0.03l1.7,0.07l0.82,0.07l0.38,0.28l0.26,0.68l-0.47-0.45l0.07,0.02l-0.37,0.14l0.03-0.02l-1.63,1.68h-0.4
		l-8.76-0.09l-0.58-0.03l0.03-0.02l-0.58,0.45l-0.16-0.37L112.5,38.87z"/>
	<polygon class="st41" points="109.19,41.3 109.86,41.93 111.87,41.88 115.47,41.81 118.08,41.81 119.09,41.84 119.46,41.37 
		118.22,41.34 	"/>
	<path class="st42" d="M118.22,41.27l1.36,0.05l-0.45,0.59l-1.07-0.03h0.02h-2.61l-3.6,0.07l-2.05,0.03l-0.79-0.75L118.22,41.27z
		 M109.19,41.37l0.05-0.12l0.65,0.63l-0.03-0.02l2.01-0.03l3.6-0.07h2.61l1.01,0.03l-0.05,0.02l0.37-0.47l0.05,0.1l-1.24-0.03
		L109.19,41.37z"/>
	<path class="st43" d="M119.09,41.74l0.1,2.15l-0.07,1.54l0.07,0.94l0.07,0.44l-0.24-0.17l-0.16-0.07l-13.7-0.07l-0.35,0.24
		l-0.52,0.19l-0.47,0.8l-0.61,0.44l0.37,0.21l0.51,0.14h3.43l7.52-0.07h2.85l2.71-0.1l0.61-0.03l0.4-0.4l0.14-0.23l0.09-0.91v-3.29
		c-0.02-0.75-0.03-1.5-0.03-2.26l0.03-1.35l-0.23-0.37l-0.51,0.21l-0.87,0.91L119.09,41.74z"/>
	<path class="st44" d="M120.18,40.6L120.18,40.6l0.89-0.93l0.58-0.24l0.24,0.44l-0.03,1.36l0.03,2.26v3.29l-0.07,0.94l-0.16,0.23
		l-0.42,0.44l-0.65,0.03l-2.71,0.1h-2.85l-7.52,0.07h-3.45l-0.52-0.14l-0.45-0.28l0.7-0.49l-0.02,0.02l0.49-0.82l0.52-0.19
		l0.37-0.26l13.73,0.07l0.17,0.09l0.26,0.17l-0.1,0.07l-0.07-0.44l-0.09-0.96l0.09-1.54l-0.12-2.17L120.18,40.6z M119.14,41.79
		l0.02-0.05l0.1,2.15l-0.07,1.54l0.07,0.94l0.1,0.58l-0.38-0.26l-0.14-0.07h0.02l-13.7-0.07h0.05l-0.38,0.24l-0.51,0.19l0.03-0.03
		l-0.49,0.82l-0.63,0.45V48.1l0.37,0.23h-0.02l0.51,0.14h-0.02h3.43l7.52-0.07h2.85l2.71-0.12h-0.02l0.63-0.03l-0.03,0.02l0.4-0.4
		l-0.02,0.02l0.14-0.23v0.03l0.07-0.91v-3.29l-0.03-2.26l0.03-1.35v0.03l-0.21-0.37l0.09,0.02l-0.52,0.23l0.02-0.02l-0.87,0.91
		L119.14,41.79z"/>
	<polygon class="st45" points="102.7,23.74 107.88,23.81 109.63,23.91 110.98,22.9 111.5,22.6 112.15,22.34 111.34,22.1 
		110.07,22.03 105.29,22.03 104.59,22.06 	"/>
	<path class="st46" d="M104.57,21.99l0.72-0.03h4.78l1.29,0.07l0.98,0.31l-0.82,0.31h0.02l-0.52,0.3h0.02l-1.38,1.03l-1.77-0.1
		l-5.35-0.09L104.57,21.99z M102.74,23.77l-0.03-0.1l5.18,0.07l1.75,0.12h-0.03l1.35-1.01l0.52-0.3l0.66-0.26v0.12l-0.8-0.26h0.02
		l-1.28-0.07h-4.78l-0.7,0.03l0.03-0.02L102.74,23.77z"/>
	<path class="st47" d="M102.55,24.51l1.1-0.09l0.61,0.19l0.37,0.24l0.07,15.6c0,2.06-0.02,4.15-0.03,6.21l-0.14,0.17l-0.47,0.37
		l-0.37,0.63l-0.47,0.24l-0.19-0.03l-0.24-0.4l-0.12-0.84C102.62,39.41,102.58,32.01,102.55,24.51z"/>
	<path class="st46" d="M102.63,30.12l0.03,5.58l0.03,5.56l0.02,5.54l0.1,0.84v-0.03l0.24,0.4L103.04,48l0.19,0.03h-0.05l0.47-0.24
		l-0.02,0.02l0.37-0.63l0.49-0.37h-0.02l0.14-0.17v0.03l0.03-6.21l-0.07-15.6l0.02,0.05l-0.37-0.24h0.02l-0.61-0.17h0.02l-1.1,0.07
		l0.07-0.05L102.63,30.12z M102.48,24.44l1.17-0.07l0.65,0.19l0.4,0.28l0.07,15.62l-0.03,6.23l-0.17,0.21l-0.47,0.37l0.02-0.02
		l-0.37,0.65l-0.52,0.26l-0.23-0.03l-0.28-0.44l-0.1-0.86l-0.03-5.56l-0.02-5.56l-0.03-5.58L102.48,24.44z"/>
	<polygon class="st48" points="104.66,24.75 109.12,24.68 109.19,38.61 104.82,39.8 	"/>
	<path class="st49" d="M104.87,39.8l-0.07-0.05l4.37-1.21l-0.03,0.07l-0.09-13.92l0.07,0.07l-4.46,0.07l0.07-0.07L104.87,39.8z
		 M104.61,24.7l4.58-0.09l0.07,14.03l-4.51,1.24L104.61,24.7z"/>
	<polygon class="st50" points="133.05,41.56 132.61,41.91 133.4,42.52 135.64,42.61 138.14,42.31 140.03,42.05 141.29,40.95 
		140.2,40.95 138.14,41.53 133.89,41.74 	"/>
	<path class="st51" d="M133.91,41.68l-0.02-0.02l4.25-0.21h-0.02l2.06-0.58h1.28l-1.42,1.22l-1.89,0.26l-2.52,0.31l-2.26-0.09
		l-0.87-0.68l0.52-0.42L133.91,41.68z M133.05,41.63l0.05-0.02l-0.44,0.35v-0.1l0.79,0.61h-0.03l2.22,0.09l2.5-0.31l1.87-0.26
		L139.98,42l1.28-1.1l0.03,0.12h-1.08h0.02l-2.06,0.56l-4.27,0.23L133.05,41.63z"/>
	<polygon class="st50" points="125.91,24.04 125.69,24.56 125.69,24.82 127.98,25.49 135.55,25.3 140.99,25.49 147.08,30.12 
		148.21,30.47 148.27,29.25 142.62,24.39 139.63,23.9 128.41,23.6 	"/>
	<path class="st51" d="M128.41,23.53l11.23,0.31l2.99,0.47l5.7,4.9l-0.05,1.35l-1.24-0.38l-6.09-4.65l0.03,0.02l-5.44-0.17
		l-7.59,0.17l-2.33-0.66v-0.33l0.23-0.56L128.41,23.53z M125.93,24.09l0.03-0.03l-0.21,0.52v-0.02v0.26l-0.05-0.07l2.29,0.66h-0.02
		l7.57-0.17l5.46,0.17l6.1,4.65h-0.02l1.14,0.35l-0.07,0.05l0.03-1.22l0.02,0.05l-5.65-4.86h0.03l-2.97-0.47l-11.21-0.31
		L125.93,24.09z"/>
	<path class="st52" d="M125.65,24.77h0.52h0.44l0.61,0.26l0.58,0.37l0.17,20.73l-0.05,0.38l-0.47,0.58l-1.05,1.35l-0.35-0.38
		l-0.23-0.4l-0.05-0.73C125.74,39.53,125.69,32.15,125.65,24.77z"/>
	<path class="st53" d="M125.84,46.91L125.84,46.91l0.05,0.73l-0.02-0.02l0.23,0.38h-0.02l0.35,0.38h-0.09l1.05-1.35l0.47-0.58v0.03
		l0.03-0.4v0.02l-0.17-20.73l0.03,0.05l-0.58-0.35h0.02l-0.61-0.26h0.02h-0.44h-0.52l0.07-0.07L125.84,46.91z M125.58,24.72h0.59
		h0.45l0.63,0.26l0.59,0.38l0.17,20.76l-0.03,0.42l-0.49,0.58l-1.1,1.42l-0.4-0.45l-0.24-0.42l-0.03-0.75L125.58,24.72z"/>
	<path class="st54" d="M127.92,25.03c0.02,1.54,0.03,3.08,0.05,4.62v5.25l0.03,1.22l1.75-1l1.36-0.35l1.1-0.23h0.38l0.09-4.16
		l1.24,0.05h2.57l2.2,0.09l1.14,0.38l0.96,0.84l0.52,0.47l0.44,0.61l0.26,0.66l5.88-2.1l0.03-0.79l-0.47-0.66l-2.41-1.92l-1.36-0.96
		l-1.61-1.28l-0.75-0.35l-0.58-0.26l-4.02-0.05L127.92,25.03z"/>
	<path class="st55" d="M136.74,25.07l4.04,0.03l0.59,0.28l0.73,0.35l1.64,1.28h-0.02l1.36,0.96l2.41,1.94l0.51,0.68l-0.05,0.84
		l-5.96,2.15l-0.28-0.72v0.02l-0.44-0.61h0.02l-0.54-0.47h0.02l-0.98-0.84l0.03,0.02l-1.15-0.4h0.02l-2.19-0.09h-2.57l-1.24-0.03
		l0.07-0.07l-0.09,4.23h-0.45h0.02l-1.1,0.21l-1.36,0.35h0.02l-1.84,1.07l-0.05-1.35v-5.25l-0.03-4.67L136.74,25.07z M127.92,25.1
		l0.07-0.07l0.03,4.62v5.25l0.05,1.22l-0.1-0.05l1.77-1.01l1.36-0.35l1.1-0.21h0.4l-0.05,0.05l0.09-4.23l1.29,0.05h2.57l2.2,0.09
		l1.17,0.4l0.96,0.84l0.54,0.49l0.44,0.63l0.26,0.66l-0.07-0.03l5.88-2.12l-0.05,0.07l0.05-0.79v0.03l-0.47-0.66V30l-2.4-1.92
		l-1.36-0.96l-1.63-1.28h0.02l-0.75-0.35l-0.56-0.26l0.02,0.02l-4.02-0.05L127.92,25.1z"/>
	<path class="st56" d="M132.61,34.6l-0.82,0.09l-0.84,0.26l-1.22,0.26l-1.1,0.38l-0.73,0.84l0.17,10.21l1.22,0.12l2.89-0.09
		l1.98,0.05l5.7-0.14l2.06-0.03L143,45.9l3.08-3.11l1.22-1.61l0.47,0.09l2.38,0.82l0.3-0.17l0.17-0.61l0.14-0.35l-2.64-1.05
		l-0.03-1.36v-3.5l0.03-1.22l-0.17-2.38l-5.82,2.12l0.09,0.91l0.14,1.01l-0.05,1.17l-0.12,0.98l-0.23,0.82l-0.49,1.14l-0.65,1.05
		l-0.79,0.66l-0.79,0.66l-0.84,0.3l-1.8,0.09l-1.61,0.09l-1.68-0.03l-0.44-0.17l-0.17-0.58v-0.96
		C132.7,38.68,132.68,36.65,132.61,34.6z"/>
	<path class="st57" d="M132.72,36.14l0.02,1.52l0.02,1.5l0.02,1.52v0.96v-0.02l0.17,0.58l-0.03-0.05l0.44,0.17h-0.02l1.66,0.05
		h-0.02l1.63-0.09l1.8-0.09h-0.02l0.82-0.31l-0.02,0.02l0.79-0.66l0.8-0.65l-0.02,0.02l0.65-1.07v0.02l0.49-1.14l0.21-0.82
		l0.14-0.96h-0.02l0.05-1.17l-0.14-1l-0.09-0.98l5.96-2.15l0.17,2.47l-0.03,1.22v3.5l0.03,1.36l-0.03-0.05l2.68,1.07l-0.14,0.4
		l-0.19,0.65l-0.35,0.19l-2.4-0.84h0.02l-0.49-0.09l0.07-0.02l-1.24,1.63l-3.08,3.11l-1.1,0.66l-2.08,0.05l-5.7,0.12l-1.98-0.03
		l-2.89,0.09l-1.29-0.14l-0.17-10.28l0.77-0.87l1.12-0.4l1.22-0.26l0.84-0.26l0.91-0.09L132.72,36.14z M132.56,34.6l0.07,0.05
		l-0.84,0.09h0.02L130.97,35l-1.22,0.26l-1.08,0.4l0.02-0.02l-0.75,0.82l0.02-0.03l0.17,10.21l-0.05-0.07l1.22,0.14l2.89-0.09
		l1.98,0.03l5.7-0.12l2.05-0.05l-0.02,0.02l1.08-0.66v0.02l3.06-3.11l1.24-1.64l0.52,0.09l2.38,0.84h-0.05l0.3-0.17l-0.02,0.03
		l0.17-0.61l0.12-0.35l0.03,0.07l-2.66-1.07l-0.05-1.4v-3.5l0.05-1.24v0.02l-0.17-2.36l0.09,0.05l-5.84,2.1l0.05-0.07l0.09,0.93
		l0.12,1.01l-0.03,1.19l-0.14,0.96l-0.21,0.84l-0.49,1.15l-0.66,1.07l-0.8,0.66l-0.79,0.66l-0.86,0.31l-1.8,0.09l-1.63,0.09
		l-1.68-0.05l-0.49-0.19l-0.17-0.59v-0.98l-0.02-1.52v0.02l-0.02-1.52l-0.02-1.52L132.56,34.6z"/>
	<polygon class="st58" points="128.01,46.42 126.49,48.4 126.75,48.7 129.32,48.7 138.98,48.75 141.92,48.66 143.79,48.52 
		144.23,48.4 147.16,46.16 149.09,43.89 150.24,42.17 147.48,41.18 146.47,42.49 145.85,43.28 145.15,44.01 144.4,44.76 
		143.7,45.43 143,45.99 142.27,46.42 141.78,46.69 128.54,46.77 	"/>
	<path class="st59" d="M128.57,46.72h-0.03l13.24-0.09h-0.03l0.49-0.26l0.73-0.44l0.7-0.56l0.7-0.66l0.73-0.73l0.7-0.75v0.02
		l0.61-0.8l1.03-1.35l2.89,1.05l-1.19,1.78l-1.92,2.29l-2.96,2.24l-0.45,0.14l-1.89,0.14l-2.94,0.09l-9.65-0.05h-2.61l-0.31-0.37
		l1.59-2.06L128.57,46.72z M127.98,46.48l0.09-0.02l-1.54,1.98v-0.07l0.26,0.3l-0.03-0.02h2.57l9.65,0.03l2.92-0.09l1.89-0.12h-0.02
		l0.44-0.14l-0.02,0.02l2.94-2.24l-0.02,0.02l1.94-2.27h-0.02l1.15-1.71l0.02,0.1l-2.76-1.01l0.09-0.02l-1.01,1.31l-0.61,0.79
		l-0.7,0.75l-0.75,0.75l-0.7,0.65l-0.72,0.58l-0.75,0.44l-0.49,0.28l-13.28,0.09L127.98,46.48z"/>
	<path class="st60" d="M150.33,27.95l0.47,1.4l0.37,2.01l0.12,1.78l0.17,2.31c0.02,0.72,0.02,1.42,0.03,2.13l-0.16,1.52l-0.17,0.93
		l-0.3,0.86l-2.59-1.03v-2.83l0.09-3.76l-0.16-2.13v-0.56l-0.26-0.35l0.17-0.58L150.33,27.95z"/>
	<path class="st61" d="M148.16,29.7l0.02-0.03l-0.16,0.58L148,30.19l0.26,0.37v0.58l0.17,2.13l-0.09,3.76v2.83l-0.03-0.07l2.59,1.05
		l-0.09,0.03l0.3-0.87v0.02l0.16-0.91l0.17-1.52l-0.05-2.13l-0.16-2.31l-0.12-1.78l-0.38-1.99l-0.45-1.4l0.1,0.03L148.16,29.7z
		 M150.37,27.85l0.49,1.49l0.38,2.01l0.12,1.8l0.17,2.31l0.03,2.13l-0.17,1.54l-0.16,0.93l-0.31,0.93l-2.69-1.08v-2.87l0.09-3.76
		v0.02l-0.17-2.15v-0.56l0.02,0.03l-0.28-0.38l0.19-0.61L150.37,27.85z"/>
	<polygon class="st62" points="135.46,39.59 134.59,40.29 132.96,41.7 133.4,41.88 134.64,41.88 137.13,41.82 139.19,41.53 
		140.15,41.04 140.9,40.46 141.29,39.76 141.87,38.54 141.25,38.85 140.76,39.2 139.77,39.5 138.54,39.67 136.86,39.73 
		136.13,39.81 	"/>
	<path class="st63" d="M136.15,39.74h-0.03l0.75-0.09l1.68-0.03h-0.02l1.22-0.17l1-0.31l-0.02,0.02l0.49-0.35l0.79-0.4l-0.65,1.4
		l-0.4,0.72l-0.77,0.58l-0.98,0.49l-2.06,0.31l-2.5,0.03h-1.24l-0.56-0.21l1.71-1.47l0.89-0.73L136.15,39.74z M135.45,39.66
		l0.05-0.02l-0.87,0.7l-1.61,1.4l-0.02-0.1l0.44,0.17h-0.03h1.24l2.48-0.05l2.06-0.3h-0.02l0.96-0.47h-0.02l0.75-0.56l-0.02,0.02
		l0.38-0.7l0.58-1.22l0.09,0.07l-0.61,0.31l-0.49,0.35l-1.01,0.31l-1.24,0.17l-1.68,0.03h0.02l-0.77,0.1L135.45,39.66z"/>
	<polygon class="st64" points="143.49,22.72 142.35,24.07 142.13,24.56 141.46,24.3 140.47,24.07 138.31,24.12 128.8,24.12 
		126.67,24.16 126.23,24.21 125.83,24.21 126.09,23.55 126.93,22.99 127.84,22.32 128.36,22.11 136.92,22.15 141.55,22.24 	"/>
	<path class="st65" d="M141.55,22.31L141.55,22.31l-4.64-0.09l-8.55-0.05h0.03l-0.52,0.21l-0.91,0.66l-0.84,0.56l0.02-0.02
		l-0.26,0.65l-0.05-0.09h0.4h-0.02l0.44-0.03l2.15-0.05h9.52l2.15-0.03l1.03,0.21l0.65,0.28l-0.07,0.02l0.21-0.49l1.15-1.36
		l0.03,0.1L141.55,22.31z M143.6,22.69l-1.21,1.43l0.02-0.02l-0.24,0.54l-0.72-0.3h0.02l-1.01-0.21h0.02l-2.15,0.03h-9.52
		l-2.13,0.05l-0.44,0.05h-0.49l0.3-0.77l0.86-0.58l0.91-0.66l0.56-0.23l8.55,0.03l4.65,0.09L143.6,22.69z"/>
	<polygon class="st66" points="150.33,27.85 149.93,27.24 148.91,26.28 147.83,25.44 146.55,24.3 145.33,23.51 144.66,23.2 
		143.61,22.76 142.01,24.68 143.35,25.49 144.89,26.89 146.69,28.55 147.78,29.51 147.95,29.86 	"/>
	<path class="st67" d="M147.93,29.97l-0.21-0.42l0.02,0.02l-1.1-0.96l-1.8-1.68l-1.52-1.4v0.02l-1.42-0.84l1.7-2.01l1.1,0.45
		l0.66,0.31l1.22,0.79l1.28,1.14l1.1,0.84l1.01,0.96l0.42,0.68L147.93,29.97z M150.28,27.8v0.09l-0.4-0.61h0.02l-1.01-0.96v0.02
		l-1.1-0.84l-1.26-1.14l-1.22-0.79l-0.65-0.3l-1.05-0.44l0.07-0.02l-1.63,1.92l-0.02-0.1l1.36,0.8l1.54,1.4l1.8,1.66l1.1,0.98
		l0.19,0.35l-0.1-0.02L150.28,27.8z"/>
	<path class="st68" d="M132.73,30.42c0.02,3.34,0.05,6.66,0.07,10v1.07l0.03,0.19l2.61-2.12v-9.06L132.73,30.42z"/>
	<path class="st69" d="M135.5,30.44v9.17l-2.71,2.2l-0.03-0.31v-1.07l-0.09-10.07L135.5,30.44z M132.73,30.49l0.05-0.07l0.09,10
		v1.07v-0.02l0.03,0.19l-0.1-0.03l2.59-2.12l-0.02,0.05v-9.06l0.07,0.05L132.73,30.49z"/>
</g>
<path class="st70" d="M7.51,47.23c-0.94-0.88-4.94-16.45-5.44-18.11c0,0,3.82-2.23,4.42,0s3.22,11.87,3.22,11.87
	S11,29.98,12.68,29.12c1.68-0.86,3.39-0.77,4.39,0c1,0.77,2.87,11.87,2.87,11.87s2.82-10.1,3.29-11.87c0.47-1.77,4.49,0,4.49,0
	s-4.99,17.7-5.52,18.11c-0.53,0.41-3.93,0.64-4.37,0c-0.44-0.64-2.96-11.65-2.96-11.65s-2.41,10.96-2.91,11.65
	C11.42,47.91,8.45,48.11,7.51,47.23z"/>
<path class="st70" d="M31.18,34.65c-0.41,0.45-3.66,0.01-4.13-0.78c-0.47-0.8,1.26-3.05,2.4-3.89c1.13-0.84,2.82-1.26,5.05-1.26
	c2.03,0,3.54,0.25,4.53,0.76c0.99,0.51,1.69,1.15,2.1,1.93c0.41,0.78,0.61,2.21,0.61,4.29l-0.05,5.59c0,1.59,0.07,2.77,0.22,3.52
	c0.15,0.76,1.56,0.9,0.82,2.43c-0.74,1.53-4.12,0.65-4.5,0c-0.38-0.65-0.26-0.79-0.44-1.42c-0.08-0.28-0.13-0.47-0.16-0.56
	c-0.78,0.8-1.61,1.39-2.49,1.79c-0.89,0.4-1.83,0.6-2.83,0.6c-1.77,0-3.17-0.51-4.19-1.52c-1.02-1.01-1.53-2.29-1.53-3.84
	c0-1.02,0.23-1.94,0.7-2.74c0.46-0.8,1.11-1.42,1.95-1.84c0.84-0.43,2.04-0.8,3.62-1.12c2.13-0.42,3.6-0.81,4.42-1.18v-0.48
	c0-0.92-0.22-1.58-0.65-1.97c-0.43-0.39-1.25-0.59-2.45-0.59c-0.81,0-1.44,0.17-1.89,0.5C31.83,33.22,31.6,34.2,31.18,34.65z
	 M37.27,38.53c-0.58,0.2-1.51,0.45-2.77,0.73c-1.26,0.28-2.09,0.56-2.48,0.84c-0.59,0.44-0.89,1.01-0.89,1.69
	c0,0.67,0.24,1.25,0.71,1.74c0.47,0.49,1.08,0.73,1.81,0.73c0.82,0,1.6-0.28,2.35-0.85c0.55-0.43,0.91-0.96,1.09-1.59
	c0.12-0.41,0.18-1.19,0.18-2.34V38.53z"/>
</svg>
