<?xml version="1.0" encoding="utf-8"?>
<!-- Generator: Adobe Illustrator 27.1.1, SVG Export Plug-In . SVG Version: 6.00 Build 0)  -->
<svg version="1.1" id="图层_1" xmlns="http://www.w3.org/2000/svg" xmlns:xlink="http://www.w3.org/1999/xlink" x="0px" y="0px"
	 viewBox="0 0 173.7 182.2" style="enable-background:new 0 0 173.7 182.2;" xml:space="preserve">
<style type="text/css">
	.st0{opacity:0.6;fill:#E2E2E2;}
	.st1{fill:#A9A9A9;}
	.st2{fill:none;stroke:#A9A9A9;stroke-width:0.75;stroke-linecap:round;stroke-linejoin:round;stroke-miterlimit:10;}
	.st3{opacity:0.4;fill:#1F8741;stroke:#B2B2B2;stroke-width:0.5;stroke-linecap:round;stroke-linejoin:round;stroke-miterlimit:10;}
	.st4{opacity:0.4;fill:#E61728;stroke:#B2B2B2;stroke-width:0.5;stroke-linecap:round;stroke-linejoin:round;stroke-miterlimit:10;}
	.st5{opacity:0.4;fill:#1E8841;stroke:#B2B2B2;stroke-width:0.5;stroke-linecap:round;stroke-linejoin:round;stroke-miterlimit:10;}
	.st6{fill:#A09D9D;}
	.st7{fill:none;stroke:#000000;stroke-width:0.75;stroke-linecap:round;stroke-linejoin:round;stroke-miterlimit:10;}
	.st8{fill:#A09D9D;stroke:#108F42;stroke-miterlimit:10;}
	.st9{fill:none;stroke:#A53232;stroke-width:0.75;stroke-linecap:round;stroke-linejoin:round;stroke-miterlimit:10;}
	.st10{fill:#A09D9D;stroke:#FFFFFF;stroke-miterlimit:10;}
	.st11{fill:none;stroke:#188C41;stroke-width:0.75;stroke-linecap:round;stroke-linejoin:round;stroke-miterlimit:10;}
	.st12{fill:#27408B;stroke:#000000;stroke-miterlimit:10;}
	.st13{fill:#A09D9D;stroke:#000000;stroke-width:0.75;stroke-linecap:round;stroke-linejoin:round;stroke-miterlimit:10;}
	.st14{fill:#A09D9D;stroke:#108F42;stroke-width:0.75;stroke-linecap:round;stroke-linejoin:round;stroke-miterlimit:10;}
	.st15{fill:#A09D9D;stroke:#A53232;stroke-width:0.75;stroke-linecap:round;stroke-linejoin:round;stroke-miterlimit:10;}
	.st16{fill:none;stroke:#B0ADAD;stroke-width:0.75;stroke-linecap:round;stroke-linejoin:round;stroke-miterlimit:10;}
	.st17{fill:none;stroke:#108F42;stroke-width:0.75;stroke-linecap:round;stroke-linejoin:round;stroke-miterlimit:10;}
	.st18{fill:#E61728;stroke:#B2B2B2;stroke-width:0.5;stroke-linecap:round;stroke-linejoin:round;stroke-miterlimit:10;}
	.st19{font-family:'ArialMT';}
	.st20{font-size:7px;}
	.st21{fill:#423E3E;}
	.st22{font-size:6px;}
	.st23{fill:none;stroke:#1C8A41;stroke-width:0.75;stroke-linecap:round;stroke-linejoin:round;stroke-miterlimit:10;}
	.st24{fill:none;stroke:#169235;stroke-width:0.25;stroke-miterlimit:10;}
	.st25{fill:none;stroke:#A53232;stroke-width:0.25;stroke-miterlimit:10;stroke-dasharray:12,2;}
	.st26{font-size:8.4053px;}
</style>
<path class="st0" d="M140.8,101.9c-2,2.5-1.7,5.8-1.2,12.4c0.3,4.3,0.6,8.4,2.9,12.8c1.5,2.8,3.8,7.3,7.6,7.4c2.8,0,5.5-2.4,6.6-5.2
	c1.2-3.2-0.2-5.4-1.6-11.8c-2.3-11-0.2-14.4-2.9-17C149.2,97.7,143.5,98.4,140.8,101.9z"/>
<path class="st0" d="M122.4,150.2c-2.2,2.9-0.1,10,4.4,11.1c4.8,1.2,10.2-5.2,9.2-8.7C134.8,148.6,125.1,146.6,122.4,150.2z"/>
<path class="st0" d="M94.5,150.7c-2.2,2.9-0.1,10,4.4,11.1c4.8,1.2,10.2-5.2,9.2-8.7C106.9,149.1,97.2,147.1,94.5,150.7z"/>
<path class="st0" d="M59.6,138.3c-9.6,5.2-7.8,26-0.4,29.5c7.5,3.5,24.9-8.9,22.6-19.4C80.1,140.4,67,134.3,59.6,138.3z"/>
<path class="st0" d="M20.2,140.2c-9.6,5.2-7.8,26-0.4,29.5c7.5,3.5,24.9-8.9,22.6-19.4C40.7,142.3,27.6,136.2,20.2,140.2z"/>
<path class="st0" d="M112.4,102c-9.6,5.2-7.8,26-0.4,29.5c7.5,3.5,24.9-8.9,22.6-19.4C132.9,104.1,119.8,98,112.4,102z"/>
<path class="st0" d="M73.8,103.6c-9.6,5.2-7.8,26-0.4,29.5c7.5,3.5,24.9-8.9,22.6-19.4C94.3,105.7,81.2,99.6,73.8,103.6z"/>
<path class="st0" d="M44.3,102.4c-7.6,5.1-3.5,28,4.5,30c6.4,1.6,19.7-8.9,16.8-19.9C63.1,103,49.8,98.8,44.3,102.4z"/>
<path class="st0" d="M23.6,102c-2,2.5-1.7,5.8-1.2,12.4c0.3,4.3,0.6,8.4,2.9,12.8c1.5,2.8,3.8,7.3,7.6,7.4c2.8,0,5.5-2.4,6.6-5.2
	c1.2-3.2-0.2-5.4-1.6-11.8c-2.3-11-0.2-14.4-2.9-17C32,97.9,26.3,98.6,23.6,102z"/>
<polygon class="st1" points="94.9,74.7 94.8,74.7 94.8,74.7 94.8,74.7 94.7,74.6 94.7,74.6 94.7,74.6 94.7,74.6 94.7,74.6 
	94.7,74.5 94.6,74.5 94.6,74.5 94.6,74.5 94.6,74.5 94.6,74.5 94.6,74.4 94.6,74.4 94.6,74.4 94.6,74.4 94.5,74.4 94.5,74.3 
	94.5,74.3 94.5,74.3 94.5,74.3 94.5,74.3 94.5,74.3 94.5,74.2 94.5,74.2 94.5,74.2 94.5,74.2 94.5,74.2 94.5,74.1 94.5,74.1 
	94.5,74.1 94.5,74.1 94.5,74.1 94.5,74 94.5,74 94.5,74 94.4,74 94.4,74 94.4,74 94.4,73.9 94.4,73.9 94.4,73.9 94.4,73.9 
	94.4,73.9 94.4,73.8 94.4,73.8 94.4,73.8 94.4,73.8 94.4,73.8 94.4,73.8 94.4,73.7 94.4,73.7 94.4,73.7 94.4,73.7 94.4,73.7 
	94.4,73.6 94.4,73.6 94.4,73.6 94.4,73.6 94.5,73.6 94.5,73.6 94.5,73.5 94.5,73.5 94.5,73.5 94.5,73.5 94.5,73.5 94.5,73.4 
	94.5,73.4 94.5,73.4 94.5,73.4 94.5,73.4 94.5,73.3 94.5,73.3 94.5,73.3 94.5,73.3 94.5,73.3 94.5,73.3 94.5,73.2 94.5,73.2 
	94.6,73.2 94.6,73.2 94.6,73.2 94.6,73.1 94.6,73.1 94.6,73.1 94.6,73.1 94.6,73.1 94.6,73.1 94.7,73 94.7,73 94.7,73 94.7,73 
	94.7,73 94.7,72.9 94.8,72.9 94.8,72.9 94.8,72.9 94.9,72.9 146.8,72.9 146.9,72.9 146.9,72.9 146.9,72.9 146.9,72.9 147,73 147,73 
	147,73 147,73 147,73 147,73.1 147.1,73.1 147.1,73.1 147.1,73.1 147.1,73.1 147.1,73.1 147.1,73.2 147.1,73.2 147.1,73.2 
	147.1,73.2 147.1,73.2 147.2,73.3 147.2,73.3 147.2,73.3 147.2,73.3 147.2,73.3 147.2,73.3 147.2,73.4 147.2,73.4 147.2,73.4 
	147.2,73.4 147.2,73.4 147.2,73.5 147.2,73.5 147.2,73.5 147.2,73.5 147.2,73.5 147.2,73.6 147.2,73.6 147.2,73.6 147.2,73.6 
	147.2,73.6 147.2,73.6 147.2,73.7 147.2,73.7 147.2,73.7 147.2,73.7 147.2,73.7 147.2,73.8 147.2,73.8 147.2,73.8 147.2,73.8 
	147.2,73.8 147.2,73.8 147.2,73.9 147.2,73.9 147.2,73.9 147.2,73.9 147.2,73.9 147.2,74 147.2,74 147.2,74 147.2,74 147.2,74 
	147.2,74 147.2,74.1 147.2,74.1 147.2,74.1 147.2,74.1 147.2,74.1 147.2,74.2 147.2,74.2 147.2,74.2 147.2,74.2 147.2,74.2 
	147.2,74.3 147.2,74.3 147.2,74.3 147.2,74.3 147.2,74.3 147.1,74.3 147.1,74.4 147.1,74.4 147.1,74.4 147.1,74.4 147.1,74.4 
	147.1,74.5 147.1,74.5 147.1,74.5 147.1,74.5 147,74.5 147,74.5 147,74.6 147,74.6 147,74.6 147,74.6 146.9,74.6 146.9,74.7 
	146.9,74.7 146.9,74.7 146.8,74.7 "/>
<polygon class="st2" points="94.9,74.7 94.8,74.7 94.8,74.7 94.8,74.7 94.7,74.6 94.7,74.6 94.7,74.6 94.7,74.6 94.7,74.6 
	94.7,74.5 94.6,74.5 94.6,74.5 94.6,74.5 94.6,74.5 94.6,74.5 94.6,74.4 94.6,74.4 94.6,74.4 94.6,74.4 94.5,74.4 94.5,74.3 
	94.5,74.3 94.5,74.3 94.5,74.3 94.5,74.3 94.5,74.3 94.5,74.2 94.5,74.2 94.5,74.2 94.5,74.2 94.5,74.2 94.5,74.1 94.5,74.1 
	94.5,74.1 94.5,74.1 94.5,74.1 94.5,74 94.5,74 94.5,74 94.4,74 94.4,74 94.4,74 94.4,73.9 94.4,73.9 94.4,73.9 94.4,73.9 
	94.4,73.9 94.4,73.8 94.4,73.8 94.4,73.8 94.4,73.8 94.4,73.8 94.4,73.8 94.4,73.7 94.4,73.7 94.4,73.7 94.4,73.7 94.4,73.7 
	94.4,73.6 94.4,73.6 94.4,73.6 94.4,73.6 94.5,73.6 94.5,73.6 94.5,73.5 94.5,73.5 94.5,73.5 94.5,73.5 94.5,73.5 94.5,73.4 
	94.5,73.4 94.5,73.4 94.5,73.4 94.5,73.4 94.5,73.3 94.5,73.3 94.5,73.3 94.5,73.3 94.5,73.3 94.5,73.3 94.5,73.2 94.5,73.2 
	94.6,73.2 94.6,73.2 94.6,73.2 94.6,73.1 94.6,73.1 94.6,73.1 94.6,73.1 94.6,73.1 94.6,73.1 94.7,73 94.7,73 94.7,73 94.7,73 
	94.7,73 94.7,72.9 94.8,72.9 94.8,72.9 94.8,72.9 94.9,72.9 146.8,72.9 146.9,72.9 146.9,72.9 146.9,72.9 146.9,72.9 147,73 147,73 
	147,73 147,73 147,73 147,73.1 147.1,73.1 147.1,73.1 147.1,73.1 147.1,73.1 147.1,73.1 147.1,73.2 147.1,73.2 147.1,73.2 
	147.1,73.2 147.1,73.2 147.2,73.3 147.2,73.3 147.2,73.3 147.2,73.3 147.2,73.3 147.2,73.3 147.2,73.4 147.2,73.4 147.2,73.4 
	147.2,73.4 147.2,73.4 147.2,73.5 147.2,73.5 147.2,73.5 147.2,73.5 147.2,73.5 147.2,73.6 147.2,73.6 147.2,73.6 147.2,73.6 
	147.2,73.6 147.2,73.6 147.2,73.7 147.2,73.7 147.2,73.7 147.2,73.7 147.2,73.7 147.2,73.8 147.2,73.8 147.2,73.8 147.2,73.8 
	147.2,73.8 147.2,73.8 147.2,73.9 147.2,73.9 147.2,73.9 147.2,73.9 147.2,73.9 147.2,74 147.2,74 147.2,74 147.2,74 147.2,74 
	147.2,74 147.2,74.1 147.2,74.1 147.2,74.1 147.2,74.1 147.2,74.1 147.2,74.2 147.2,74.2 147.2,74.2 147.2,74.2 147.2,74.2 
	147.2,74.3 147.2,74.3 147.2,74.3 147.2,74.3 147.2,74.3 147.1,74.3 147.1,74.4 147.1,74.4 147.1,74.4 147.1,74.4 147.1,74.4 
	147.1,74.5 147.1,74.5 147.1,74.5 147.1,74.5 147,74.5 147,74.5 147,74.6 147,74.6 147,74.6 147,74.6 146.9,74.6 146.9,74.7 
	146.9,74.7 146.9,74.7 146.8,74.7 "/>
<polygon class="st1" points="44.2,47.1 44.1,47.1 44.1,47 44.1,47 44.1,47 44.1,47 44,47 44,46.9 44,46.9 44,46.9 44,46.9 44,46.9 
	44,46.8 44,46.8 44,46.8 44,46.8 44,46.8 44,46.8 43.9,46.7 43.9,46.7 43.9,46.7 43.9,46.7 43.9,46.7 43.9,46.6 43.9,46.6 
	43.9,46.6 43.9,46.6 43.9,46.6 43.9,46.6 43.9,46.5 43.9,46.5 43.9,46.5 43.9,46.5 43.9,46.5 43.9,46.4 43.9,46.4 43.9,46.4 
	43.9,46.4 43.9,46.4 43.9,46.4 43.9,46.3 43.9,46.3 43.9,46.3 43.9,46.3 43.9,46.3 43.9,46.2 43.9,46.2 43.9,46.2 43.9,46.2 
	43.9,46.2 43.9,46.1 43.9,46.1 43.9,46.1 43.9,46.1 43.9,46.1 43.9,46.1 43.9,46 43.9,46 43.9,46 43.9,46 43.9,46 43.9,45.9 
	43.9,45.9 43.9,45.9 43.9,45.9 43.9,45.9 43.9,45.9 43.9,45.8 43.9,45.8 43.9,45.8 43.9,45.8 43.9,45.8 43.9,45.7 43.9,45.7 
	43.9,45.7 43.9,45.7 43.9,45.7 43.9,45.7 43.9,45.6 43.9,45.6 43.9,45.6 43.9,45.6 43.9,45.6 44,45.5 44,45.5 44,45.5 44,45.5 
	44,45.5 44,45.4 44,45.4 44,45.4 44,45.4 44,45.4 44,45.4 44,45.3 44.1,45.3 44.1,45.3 44.1,45.3 44.1,45.3 44.1,45.2 44.2,45.2 
	150.6,45.2 150.7,45.2 150.7,45.3 150.8,45.3 150.8,45.3 150.8,45.3 150.8,45.3 150.8,45.4 150.8,45.4 150.8,45.4 150.9,45.4 
	150.9,45.4 150.9,45.4 150.9,45.5 150.9,45.5 150.9,45.5 150.9,45.5 150.9,45.5 150.9,45.6 150.9,45.6 150.9,45.6 150.9,45.6 
	150.9,45.6 150.9,45.7 150.9,45.7 150.9,45.7 150.9,45.7 151,45.7 151,45.7 151,45.8 151,45.8 151,45.8 151,45.8 151,45.8 151,45.9 
	151,45.9 151,45.9 151,45.9 151,45.9 151,45.9 151,46 151,46 151,46 151,46 151,46 151,46.1 151,46.1 151,46.1 151,46.1 151,46.1 
	151,46.1 151,46.2 151,46.2 151,46.2 151,46.2 151,46.2 151,46.3 151,46.3 151,46.3 151,46.3 151,46.3 151,46.4 151,46.4 151,46.4 
	151,46.4 151,46.4 151,46.4 151,46.5 151,46.5 151,46.5 151,46.5 151,46.5 151,46.6 151,46.6 150.9,46.6 150.9,46.6 150.9,46.6 
	150.9,46.6 150.9,46.7 150.9,46.7 150.9,46.7 150.9,46.7 150.9,46.7 150.9,46.8 150.9,46.8 150.9,46.8 150.9,46.8 150.9,46.8 
	150.9,46.8 150.9,46.9 150.9,46.9 150.8,46.9 150.8,46.9 150.8,46.9 150.8,47 150.8,47 150.8,47 150.8,47 150.7,47 150.7,47.1 
	150.6,47.1 "/>
<polygon class="st2" points="44.2,47.1 44.1,47.1 44.1,47 44.1,47 44.1,47 44.1,47 44,47 44,46.9 44,46.9 44,46.9 44,46.9 44,46.9 
	44,46.8 44,46.8 44,46.8 44,46.8 44,46.8 44,46.8 43.9,46.7 43.9,46.7 43.9,46.7 43.9,46.7 43.9,46.7 43.9,46.6 43.9,46.6 
	43.9,46.6 43.9,46.6 43.9,46.6 43.9,46.6 43.9,46.5 43.9,46.5 43.9,46.5 43.9,46.5 43.9,46.5 43.9,46.4 43.9,46.4 43.9,46.4 
	43.9,46.4 43.9,46.4 43.9,46.4 43.9,46.3 43.9,46.3 43.9,46.3 43.9,46.3 43.9,46.3 43.9,46.2 43.9,46.2 43.9,46.2 43.9,46.2 
	43.9,46.2 43.9,46.1 43.9,46.1 43.9,46.1 43.9,46.1 43.9,46.1 43.9,46.1 43.9,46 43.9,46 43.9,46 43.9,46 43.9,46 43.9,45.9 
	43.9,45.9 43.9,45.9 43.9,45.9 43.9,45.9 43.9,45.9 43.9,45.8 43.9,45.8 43.9,45.8 43.9,45.8 43.9,45.8 43.9,45.7 43.9,45.7 
	43.9,45.7 43.9,45.7 43.9,45.7 43.9,45.7 43.9,45.6 43.9,45.6 43.9,45.6 43.9,45.6 43.9,45.6 44,45.5 44,45.5 44,45.5 44,45.5 
	44,45.5 44,45.4 44,45.4 44,45.4 44,45.4 44,45.4 44,45.4 44,45.3 44.1,45.3 44.1,45.3 44.1,45.3 44.1,45.3 44.1,45.2 44.2,45.2 
	150.6,45.2 150.7,45.2 150.7,45.3 150.8,45.3 150.8,45.3 150.8,45.3 150.8,45.3 150.8,45.4 150.8,45.4 150.8,45.4 150.9,45.4 
	150.9,45.4 150.9,45.4 150.9,45.5 150.9,45.5 150.9,45.5 150.9,45.5 150.9,45.5 150.9,45.6 150.9,45.6 150.9,45.6 150.9,45.6 
	150.9,45.6 150.9,45.7 150.9,45.7 150.9,45.7 150.9,45.7 151,45.7 151,45.7 151,45.8 151,45.8 151,45.8 151,45.8 151,45.8 151,45.9 
	151,45.9 151,45.9 151,45.9 151,45.9 151,45.9 151,46 151,46 151,46 151,46 151,46 151,46.1 151,46.1 151,46.1 151,46.1 151,46.1 
	151,46.1 151,46.2 151,46.2 151,46.2 151,46.2 151,46.2 151,46.3 151,46.3 151,46.3 151,46.3 151,46.3 151,46.4 151,46.4 151,46.4 
	151,46.4 151,46.4 151,46.4 151,46.5 151,46.5 151,46.5 151,46.5 151,46.5 151,46.6 151,46.6 150.9,46.6 150.9,46.6 150.9,46.6 
	150.9,46.6 150.9,46.7 150.9,46.7 150.9,46.7 150.9,46.7 150.9,46.7 150.9,46.8 150.9,46.8 150.9,46.8 150.9,46.8 150.9,46.8 
	150.9,46.8 150.9,46.9 150.9,46.9 150.8,46.9 150.8,46.9 150.8,46.9 150.8,47 150.8,47 150.8,47 150.8,47 150.7,47 150.7,47.1 
	150.6,47.1 "/>
<polygon class="st1" points="79.8,19.4 79.7,19.4 79.6,19.4 79.6,19.4 79.6,19.4 79.6,19.3 79.5,19.3 79.5,19.3 79.5,19.3 
	79.5,19.3 79.5,19.2 79.5,19.2 79.4,19.2 79.4,19.2 79.4,19.2 79.4,19.2 79.4,19.1 79.4,19.1 79.4,19.1 79.4,19.1 79.4,19.1 
	79.4,19 79.4,19 79.4,19 79.3,19 79.3,19 79.3,18.9 79.3,18.9 79.3,18.9 79.3,18.9 79.3,18.9 79.3,18.9 79.3,18.8 79.3,18.8 
	79.3,18.8 79.3,18.8 79.3,18.8 79.3,18.7 79.3,18.7 79.3,18.7 79.3,18.7 79.3,18.7 79.3,18.7 79.3,18.6 79.3,18.6 79.3,18.6 
	79.3,18.6 79.3,18.6 79.3,18.5 79.3,18.5 79.3,18.5 79.3,18.5 79.3,18.5 79.3,18.5 79.3,18.4 79.3,18.4 79.3,18.4 79.3,18.4 
	79.3,18.4 79.3,18.3 79.3,18.3 79.3,18.3 79.3,18.3 79.3,18.3 79.3,18.3 79.3,18.2 79.3,18.2 79.3,18.2 79.3,18.2 79.3,18.2 
	79.3,18.1 79.3,18.1 79.3,18.1 79.3,18.1 79.3,18.1 79.3,18 79.3,18 79.4,18 79.4,18 79.4,18 79.4,18 79.4,17.9 79.4,17.9 
	79.4,17.9 79.4,17.9 79.4,17.9 79.4,17.8 79.4,17.8 79.4,17.8 79.5,17.8 79.5,17.8 79.5,17.8 79.5,17.7 79.5,17.7 79.5,17.7 
	79.6,17.7 79.6,17.7 79.6,17.6 79.6,17.6 79.7,17.6 79.8,17.6 161.1,17.6 161.2,17.6 161.3,17.6 161.3,17.6 161.3,17.7 161.3,17.7 
	161.4,17.7 161.4,17.7 161.4,17.7 161.4,17.8 161.4,17.8 161.4,17.8 161.4,17.8 161.5,17.8 161.5,17.8 161.5,17.9 161.5,17.9 
	161.5,17.9 161.5,17.9 161.5,17.9 161.5,18 161.5,18 161.5,18 161.5,18 161.5,18 161.6,18 161.6,18.1 161.6,18.1 161.6,18.1 
	161.6,18.1 161.6,18.1 161.6,18.2 161.6,18.2 161.6,18.2 161.6,18.2 161.6,18.2 161.6,18.3 161.6,18.3 161.6,18.3 161.6,18.3 
	161.6,18.3 161.6,18.3 161.6,18.4 161.6,18.4 161.6,18.4 161.6,18.4 161.6,18.4 161.6,18.5 161.6,18.5 161.6,18.5 161.6,18.5 
	161.6,18.5 161.6,18.5 161.6,18.6 161.6,18.6 161.6,18.6 161.6,18.6 161.6,18.6 161.6,18.7 161.6,18.7 161.6,18.7 161.6,18.7 
	161.6,18.7 161.6,18.7 161.6,18.8 161.6,18.8 161.6,18.8 161.6,18.8 161.6,18.8 161.6,18.9 161.6,18.9 161.6,18.9 161.6,18.9 
	161.6,18.9 161.6,18.9 161.6,19 161.5,19 161.5,19 161.5,19 161.5,19 161.5,19.1 161.5,19.1 161.5,19.1 161.5,19.1 161.5,19.1 
	161.5,19.2 161.5,19.2 161.5,19.2 161.4,19.2 161.4,19.2 161.4,19.2 161.4,19.3 161.4,19.3 161.4,19.3 161.4,19.3 161.3,19.3 
	161.3,19.4 161.3,19.4 161.3,19.4 161.2,19.4 161.1,19.4 "/>
<polygon class="st2" points="79.8,19.4 79.7,19.4 79.6,19.4 79.6,19.4 79.6,19.4 79.6,19.3 79.5,19.3 79.5,19.3 79.5,19.3 
	79.5,19.3 79.5,19.2 79.5,19.2 79.4,19.2 79.4,19.2 79.4,19.2 79.4,19.2 79.4,19.1 79.4,19.1 79.4,19.1 79.4,19.1 79.4,19.1 
	79.4,19 79.4,19 79.4,19 79.3,19 79.3,19 79.3,18.9 79.3,18.9 79.3,18.9 79.3,18.9 79.3,18.9 79.3,18.9 79.3,18.8 79.3,18.8 
	79.3,18.8 79.3,18.8 79.3,18.8 79.3,18.7 79.3,18.7 79.3,18.7 79.3,18.7 79.3,18.7 79.3,18.7 79.3,18.6 79.3,18.6 79.3,18.6 
	79.3,18.6 79.3,18.6 79.3,18.5 79.3,18.5 79.3,18.5 79.3,18.5 79.3,18.5 79.3,18.5 79.3,18.4 79.3,18.4 79.3,18.4 79.3,18.4 
	79.3,18.4 79.3,18.3 79.3,18.3 79.3,18.3 79.3,18.3 79.3,18.3 79.3,18.3 79.3,18.2 79.3,18.2 79.3,18.2 79.3,18.2 79.3,18.2 
	79.3,18.1 79.3,18.1 79.3,18.1 79.3,18.1 79.3,18.1 79.3,18 79.3,18 79.4,18 79.4,18 79.4,18 79.4,18 79.4,17.9 79.4,17.9 
	79.4,17.9 79.4,17.9 79.4,17.9 79.4,17.8 79.4,17.8 79.4,17.8 79.5,17.8 79.5,17.8 79.5,17.8 79.5,17.7 79.5,17.7 79.5,17.7 
	79.6,17.7 79.6,17.7 79.6,17.6 79.6,17.6 79.7,17.6 79.8,17.6 161.1,17.6 161.2,17.6 161.3,17.6 161.3,17.6 161.3,17.7 161.3,17.7 
	161.4,17.7 161.4,17.7 161.4,17.7 161.4,17.8 161.4,17.8 161.4,17.8 161.4,17.8 161.5,17.8 161.5,17.8 161.5,17.9 161.5,17.9 
	161.5,17.9 161.5,17.9 161.5,17.9 161.5,18 161.5,18 161.5,18 161.5,18 161.5,18 161.6,18 161.6,18.1 161.6,18.1 161.6,18.1 
	161.6,18.1 161.6,18.1 161.6,18.2 161.6,18.2 161.6,18.2 161.6,18.2 161.6,18.2 161.6,18.3 161.6,18.3 161.6,18.3 161.6,18.3 
	161.6,18.3 161.6,18.3 161.6,18.4 161.6,18.4 161.6,18.4 161.6,18.4 161.6,18.4 161.6,18.5 161.6,18.5 161.6,18.5 161.6,18.5 
	161.6,18.5 161.6,18.5 161.6,18.6 161.6,18.6 161.6,18.6 161.6,18.6 161.6,18.6 161.6,18.7 161.6,18.7 161.6,18.7 161.6,18.7 
	161.6,18.7 161.6,18.7 161.6,18.8 161.6,18.8 161.6,18.8 161.6,18.8 161.6,18.8 161.6,18.9 161.6,18.9 161.6,18.9 161.6,18.9 
	161.6,18.9 161.6,18.9 161.6,19 161.5,19 161.5,19 161.5,19 161.5,19 161.5,19.1 161.5,19.1 161.5,19.1 161.5,19.1 161.5,19.1 
	161.5,19.2 161.5,19.2 161.5,19.2 161.4,19.2 161.4,19.2 161.4,19.2 161.4,19.3 161.4,19.3 161.4,19.3 161.4,19.3 161.3,19.3 
	161.3,19.4 161.3,19.4 161.3,19.4 161.2,19.4 161.1,19.4 "/>
<path class="st3" d="M95,21.7c1.4,1.9,4.1,2.4,6.1,1.6c2.8-1.2,4.3-5.1,2.6-7.7c-1.5-2.3-4.9-2.9-7.3-1.3C94,16,93.3,19.5,95,21.7z"
	/>
<path class="st3" d="M102.4,77.1c1.4,1.9,4.1,2.4,6.1,1.6c2.8-1.2,4.3-5.1,2.6-7.7c-1.5-2.3-4.9-2.9-7.3-1.3
	C101.4,71.3,100.7,74.8,102.4,77.1z"/>
<path class="st4" d="M124.8,77c1.4,1.9,4.1,2.4,6.1,1.6c2.8-1.2,4.3-5.1,2.6-7.7c-1.5-2.3-4.9-2.9-7.3-1.3
	C123.8,71.2,123.1,74.7,124.8,77z"/>
<path class="st4" d="M139.9,21.7c1.4,1.9,4.1,2.4,6.1,1.6c2.8-1.2,4.3-5.1,2.6-7.7c-1.5-2.3-4.9-2.9-7.3-1.3
	C138.9,16,138.2,19.5,139.9,21.7z"/>
<path class="st4" d="M102.5,43.3c-1.1,1.5-1.8,4.1-0.6,5.5c1.2,1.5,3.8,1.1,4.2,1.1c0.8-0.1,2.2-0.3,2.9-1.3
	c1.3-1.8-0.8-3.9,0.2-5.5c0.7-1.1,2-0.5,10.1-0.6c1.3,0,3,0,4.9,0.8c0.8,0.4,1.9,0.8,2.7,1.9c1.1,1.6,0.3,2.7,1.3,3.7
	c1.1,1.3,3.9,1.7,5.5,0.3c1.4-1.2,1.7-3.6,0.9-5.2c-1.1-2.1-3.9-2.4-15.5-2.7C107.1,41,104.2,41.1,102.5,43.3z"/>
<path class="st5" d="M63.5,43.3c-0.1,0.1-0.2,0.3-0.2,0.3c-0.9,1.1-1.6,3.2-0.7,4.8c1,1.8,3.7,2,5.4,1.5c1.6-0.5,1.5-1.3,2.9-1.7
	c2.7-0.7,4.6,2.3,6.3,1.6c1.7-0.7,0.6-3.6,2.9-5.6c1.8-1.6,4.3-1.3,4.7-1.3c0.8,0.1,2.5,0.3,3.5,1.5c1.5,1.9-0.2,4.2,1.2,5.6
	c1.2,1.2,3.9,0.8,5.5-0.2c1.8-1,3.7-3.4,3.2-5.2c-0.4-1.4-2.1-2-18.6-3.6C79.7,40.9,66.8,39.6,63.5,43.3z"/>
<polygon class="st6" points="98.6,75.6 97.1,73.8 98.6,71.9 100.7,71.9 100.7,75.6 "/>
<polygon class="st7" points="98.6,75.6 97.1,73.8 98.6,71.9 100.7,71.9 100.7,75.6 "/>
<polygon class="st8" points="105.1,75.6 105.1,71.9 106.3,71.9 108,73.8 106.3,75.6 "/>
<polygon class="st6" points="114.6,75.6 114.6,71.9 115.9,71.9 118,73.8 115.9,75.6 "/>
<polygon class="st7" points="114.6,75.6 114.6,71.9 115.9,71.9 118,73.8 115.9,75.6 "/>
<polygon class="st6" points="128,75.6 126.7,73.8 128,71.9 129.9,71.9 129.9,75.6 "/>
<polygon class="st9" points="128,75.6 126.7,73.8 128,71.9 129.9,71.9 129.9,75.6 "/>
<polygon class="st6" points="140.8,75.6 140.8,71.9 142.3,71.9 144.5,73.8 142.3,75.6 "/>
<polygon class="st7" points="140.8,75.6 140.8,71.9 142.3,71.9 144.5,73.8 142.3,75.6 "/>
<polygon class="st6" points="48.6,48 46.8,46.1 48.6,44.3 51.3,44.3 51.3,48 "/>
<polygon class="st7" points="48.6,48 46.8,46.1 48.6,44.3 51.3,44.3 51.3,48 "/>
<polygon class="st6" points="58.2,48 56.2,46.1 58.2,44.3 61.3,44.3 61.3,48 "/>
<polygon class="st7" points="58.2,48 56.2,46.1 58.2,44.3 61.3,44.3 61.3,48 "/>
<polygon class="st8" points="64.1,48 64.1,44.3 65.5,44.3 67.7,46.1 65.5,48 "/>
<polygon class="st10" points="74.6,48 74.6,44.3 75.8,44.3 77.6,46.1 75.8,48 "/>
<polygon class="st11" points="74.6,48 74.6,44.3 75.8,44.3 77.6,46.1 75.8,48 "/>
<polygon class="st6" points="83,48 81.1,46.1 83,44.3 85.8,44.3 85.8,48 "/>
<polygon class="st7" points="83,48 81.1,46.1 83,44.3 85.8,44.3 85.8,48 "/>
<polygon class="st10" points="92.1,48 92.1,44.3 93.4,44.3 95.3,46.1 93.4,48 "/>
<polygon class="st11" points="92.1,48 92.1,44.3 93.4,44.3 95.3,46.1 93.4,48 "/>
<polygon class="st10" points="103.6,48 103.6,44.3 105.3,44.3 107.8,46.1 105.3,48 "/>
<polygon class="st9" points="103.6,48 103.6,44.3 105.3,44.3 107.8,46.1 105.3,48 "/>
<polygon class="st6" points="112.1,48 109.8,46.1 112.1,44.3 115.6,44.3 115.6,48 "/>
<polygon class="st7" points="112.1,48 109.8,46.1 112.1,44.3 115.6,44.3 115.6,48 "/>
<polygon class="st6" points="116.3,48 116.3,44.3 117.9,44.3 120.2,46.1 117.9,48 "/>
<polygon class="st7" points="116.3,48 116.3,44.3 117.9,44.3 120.2,46.1 117.9,48 "/>
<polygon class="st6" points="129.6,48 127.9,46.1 129.6,44.3 132.2,44.3 132.2,48 "/>
<polygon class="st9" points="129.6,48 127.9,46.1 129.6,44.3 132.2,44.3 132.2,48 "/>
<polygon class="st6" points="144.2,48 142,46.1 144.2,44.3 147.5,44.3 147.5,48 "/>
<polygon class="st7" points="144.2,48 142,46.1 144.2,44.3 147.5,44.3 147.5,48 "/>
<polygon class="st12" points="83,20.3 81.5,18.5 83,16.7 85.2,16.7 85.2,20.3 "/>
<polygon class="st13" points="83,20.3 81.5,18.5 83,16.7 85.2,16.7 85.2,20.3 "/>
<polygon class="st12" points="89.7,20.3 88,18.5 89.7,16.7 92.2,16.7 92.2,20.3 "/>
<polygon class="st13" points="89.7,20.3 88,18.5 89.7,16.7 92.2,16.7 92.2,20.3 "/>
<polygon class="st12" points="97.7,20.3 97.7,16.7 98.9,16.7 100.7,18.5 98.9,20.3 "/>
<polygon class="st14" points="97.7,20.3 97.7,16.7 98.9,16.7 100.7,18.5 98.9,20.3 "/>
<polygon class="st12" points="109,20.3 109,16.7 110.6,16.7 113,18.5 110.6,20.3 "/>
<polygon class="st13" points="109,20.3 109,16.7 110.6,16.7 113,18.5 110.6,20.3 "/>
<polygon class="st12" points="121.3,20.3 120,18.5 121.3,16.7 123.3,16.7 123.3,20.3 "/>
<polygon class="st13" points="121.3,20.3 120,18.5 121.3,16.7 123.3,16.7 123.3,20.3 "/>
<polygon class="st12" points="128.8,20.3 127.5,18.5 128.8,16.7 130.7,16.7 130.7,20.3 "/>
<polygon class="st13" points="128.8,20.3 127.5,18.5 128.8,16.7 130.7,16.7 130.7,20.3 "/>
<polygon class="st12" points="143.2,20.3 141.8,18.5 143.2,16.7 145.3,16.7 145.3,20.3 "/>
<polygon class="st15" points="143.2,20.3 141.8,18.5 143.2,16.7 145.3,16.7 145.3,20.3 "/>
<polygon class="st12" points="156.8,20.3 155.1,18.5 156.8,16.7 159.4,16.7 159.4,20.3 "/>
<polygon class="st13" points="156.8,20.3 155.1,18.5 156.8,16.7 159.4,16.7 159.4,20.3 "/>
<polyline class="st11" points="76.1,44.3 76.1,44.1 76.1,43.8 76.2,43.6 76.2,43.3 76.3,43.1 76.3,42.9 76.4,42.6 76.5,42.4 
	76.6,42.2 76.7,41.9 76.8,41.7 76.9,41.4 77.1,41.2 77.2,41 77.4,40.7 77.5,40.5 77.7,40.2 77.9,40 78.1,39.8 78.3,39.5 78.5,39.3 
	78.8,39 79,38.8 79.2,38.6 79.5,38.3 79.8,38.1 80,37.8 80.3,37.6 80.6,37.4 80.9,37.1 81.2,36.9 81.5,36.6 81.8,36.4 82.1,36.2 
	82.4,35.9 82.7,35.7 83.1,35.4 83.4,35.2 83.8,35 84.1,34.7 84.4,34.5 84.8,34.2 85.1,34 85.5,33.8 85.9,33.5 86.2,33.3 86.6,33 
	86.9,32.8 87.3,32.6 87.7,32.3 88,32.1 88.4,31.8 88.8,31.6 89.1,31.4 89.5,31.1 89.8,30.9 90.2,30.7 90.5,30.4 90.9,30.2 
	91.2,29.9 91.6,29.7 91.9,29.5 92.3,29.2 92.6,29 92.9,28.7 93.2,28.5 93.6,28.3 93.9,28 94.2,27.8 94.5,27.5 94.8,27.3 95,27.1 
	95.3,26.8 95.6,26.6 95.8,26.3 96.1,26.1 96.3,25.9 96.6,25.6 96.8,25.4 97,25.1 97.2,24.9 97.4,24.7 97.6,24.4 97.8,24.2 98,23.9 
	98.1,23.7 98.3,23.5 98.4,23.2 98.5,23 98.7,22.7 98.8,22.5 98.9,22.3 98.9,22 99,21.8 99.1,21.5 99.1,21.3 99.2,21.1 99.2,20.8 
	99.2,20.6 99.2,20.3 "/>
<polyline class="st11" points="93.7,44.3 93.7,44.1 93.7,43.8 93.7,43.6 93.7,43.3 93.7,43.1 93.7,42.9 93.7,42.6 93.8,42.4 
	93.8,42.2 93.8,41.9 93.8,41.7 93.9,41.4 93.9,41.2 93.9,41 94,40.7 94,40.5 94.1,40.2 94.1,40 94.1,39.8 94.2,39.5 94.2,39.3 
	94.3,39 94.4,38.8 94.4,38.6 94.5,38.3 94.5,38.1 94.6,37.8 94.7,37.6 94.7,37.4 94.8,37.1 94.9,36.9 95,36.6 95,36.4 95.1,36.2 
	95.2,35.9 95.3,35.7 95.3,35.4 95.4,35.2 95.5,35 95.6,34.7 95.7,34.5 95.8,34.2 95.8,34 95.9,33.8 96,33.5 96.1,33.3 96.2,33 
	96.3,32.8 96.4,32.6 96.4,32.3 96.5,32.1 96.6,31.8 96.7,31.6 96.8,31.4 96.9,31.1 97,30.9 97,30.7 97.1,30.4 97.2,30.2 97.3,29.9 
	97.4,29.7 97.5,29.5 97.6,29.2 97.6,29 97.7,28.7 97.8,28.5 97.9,28.3 97.9,28 98,27.8 98.1,27.5 98.1,27.3 98.2,27.1 98.3,26.8 
	98.3,26.6 98.4,26.3 98.5,26.1 98.5,25.9 98.6,25.6 98.6,25.4 98.7,25.1 98.7,24.9 98.8,24.7 98.8,24.4 98.9,24.2 98.9,23.9 
	99,23.7 99,23.5 99,23.2 99.1,23 99.1,22.7 99.1,22.5 99.1,22.3 99.2,22 99.2,21.8 99.2,21.5 99.2,21.3 99.2,21.1 99.2,20.8 
	99.2,20.6 99.2,20.3 "/>
<polyline class="st9" points="105.7,44.3 105.7,44.1 105.7,43.8 105.7,43.6 105.8,43.3 105.9,43.1 106,42.9 106.1,42.6 106.3,42.4 
	106.4,42.2 106.6,41.9 106.8,41.7 107,41.4 107.2,41.2 107.5,41 107.7,40.7 108,40.5 108.3,40.2 108.6,40 108.9,39.8 109.3,39.5 
	109.6,39.3 110,39 110.4,38.8 110.8,38.6 111.2,38.3 111.6,38.1 112.1,37.8 112.5,37.6 113,37.4 113.5,37.1 114,36.9 114.5,36.6 
	115,36.4 115.5,36.2 116,35.9 116.5,35.7 117.1,35.4 117.6,35.2 118.2,35 118.8,34.7 119.3,34.5 119.9,34.2 120.5,34 121.1,33.8 
	121.6,33.5 122.2,33.3 122.8,33 123.4,32.8 124,32.6 124.6,32.3 125.2,32.1 125.8,31.8 126.4,31.6 127,31.4 127.6,31.1 128.2,30.9 
	128.7,30.7 129.3,30.4 129.9,30.2 130.5,29.9 131,29.7 131.6,29.5 132.1,29.2 132.7,29 133.2,28.7 133.7,28.5 134.3,28.3 134.8,28 
	135.3,27.8 135.7,27.5 136.2,27.3 136.7,27.1 137.1,26.8 137.6,26.6 138,26.3 138.4,26.1 138.8,25.9 139.2,25.6 139.6,25.4 
	139.9,25.1 140.3,24.9 140.6,24.7 140.9,24.4 141.2,24.2 141.5,23.9 141.8,23.7 142,23.5 142.2,23.2 142.4,23 142.6,22.7 
	142.8,22.5 143,22.3 143.1,22 143.2,21.8 143.3,21.5 143.4,21.3 143.5,21.1 143.5,20.8 143.5,20.6 143.6,20.3 "/>
<polyline class="st16" points="98.9,71.9 98.9,71.7 98.9,71.5 98.8,71.2 98.8,71 98.7,70.8 98.6,70.5 98.4,70.3 98.3,70 98.1,69.8 
	97.9,69.6 97.7,69.3 97.5,69.1 97.3,68.8 97,68.6 96.7,68.4 96.4,68.1 96.1,67.9 95.8,67.6 95.5,67.4 95.1,67.2 94.7,66.9 
	94.3,66.7 93.9,66.4 93.5,66.2 93,66 92.6,65.7 92.1,65.5 91.6,65.2 91.1,65 90.6,64.8 90.1,64.5 89.6,64.3 89.1,64 88.5,63.8 
	88,63.6 87.4,63.3 86.8,63.1 86.2,62.8 85.6,62.6 85,62.4 84.4,62.1 83.8,61.9 83.2,61.6 82.6,61.4 82,61.2 81.4,60.9 80.7,60.7 
	80.1,60.5 79.5,60.2 78.8,60 78.2,59.7 77.6,59.5 77,59.3 76.3,59 75.7,58.8 75.1,58.5 74.5,58.3 73.8,58.1 73.2,57.8 72.6,57.6 
	72,57.3 71.4,57.1 70.9,56.9 70.3,56.6 69.7,56.4 69.2,56.1 68.6,55.9 68.1,55.7 67.5,55.4 67,55.2 66.5,54.9 66,54.7 65.6,54.5 
	65.1,54.2 64.6,54 64.2,53.7 63.8,53.5 63.4,53.3 63,53 62.6,52.8 62.2,52.5 61.9,52.3 61.6,52.1 61.2,51.8 60.9,51.6 60.7,51.3 
	60.4,51.1 60.2,50.9 59.9,50.6 59.7,50.4 59.6,50.1 59.4,49.9 59.2,49.7 59.1,49.4 59,49.2 58.9,49 58.8,48.7 58.8,48.5 58.8,48.2 
	58.8,48 "/>
<polyline class="st17" points="106.6,71.9 106.6,71.7 106.5,71.5 106.5,71.2 106.4,71 106.3,70.8 106.2,70.5 106.1,70.3 105.9,70 
	105.8,69.8 105.6,69.6 105.4,69.3 105.1,69.1 104.9,68.8 104.6,68.6 104.3,68.4 104,68.1 103.7,67.9 103.4,67.6 103,67.4 
	102.7,67.2 102.3,66.9 101.9,66.7 101.5,66.4 101,66.2 100.6,66 100.1,65.7 99.7,65.5 99.2,65.2 98.7,65 98.2,64.8 97.7,64.5 
	97.1,64.3 96.6,64 96,63.8 95.5,63.6 94.9,63.3 94.3,63.1 93.7,62.8 93.1,62.6 92.5,62.4 91.9,62.1 91.3,61.9 90.7,61.6 90,61.4 
	89.4,61.2 88.8,60.9 88.1,60.7 87.5,60.5 86.9,60.2 86.2,60 85.6,59.7 85,59.5 84.3,59.3 83.7,59 83,58.8 82.4,58.5 81.8,58.3 
	81.2,58.1 80.6,57.8 79.9,57.6 79.3,57.3 78.7,57.1 78.2,56.9 77.6,56.6 77,56.4 76.4,56.1 75.9,55.9 75.3,55.7 74.8,55.4 
	74.3,55.2 73.8,54.9 73.3,54.7 72.8,54.5 72.3,54.2 71.9,54 71.4,53.7 71,53.5 70.6,53.3 70.2,53 69.8,52.8 69.4,52.5 69.1,52.3 
	68.7,52.1 68.4,51.8 68.1,51.6 67.8,51.3 67.6,51.1 67.3,50.9 67.1,50.6 66.9,50.4 66.7,50.1 66.5,49.9 66.4,49.7 66.3,49.4 
	66.1,49.2 66.1,49 66,48.7 65.9,48.5 65.9,48.2 65.9,48 "/>
<polyline class="st16" points="116.3,71.9 116.3,71.7 116.3,71.5 116.3,71.2 116.3,71 116.3,70.8 116.2,70.5 116.2,70.3 116.2,70 
	116.2,69.8 116.2,69.6 116.2,69.3 116.2,69.1 116.1,68.8 116.1,68.6 116.1,68.4 116.1,68.1 116,67.9 116,67.6 116,67.4 115.9,67.2 
	115.9,66.9 115.9,66.7 115.8,66.4 115.8,66.2 115.8,66 115.7,65.7 115.7,65.5 115.6,65.2 115.6,65 115.5,64.8 115.5,64.5 
	115.4,64.3 115.4,64 115.4,63.8 115.3,63.6 115.3,63.3 115.2,63.1 115.2,62.8 115.1,62.6 115,62.4 115,62.1 114.9,61.9 114.9,61.6 
	114.8,61.4 114.8,61.2 114.7,60.9 114.7,60.7 114.6,60.5 114.6,60.2 114.5,60 114.4,59.7 114.4,59.5 114.3,59.3 114.3,59 
	114.2,58.8 114.2,58.5 114.1,58.3 114,58.1 114,57.8 113.9,57.6 113.9,57.3 113.8,57.1 113.8,56.9 113.7,56.6 113.7,56.4 
	113.6,56.1 113.6,55.9 113.5,55.7 113.5,55.4 113.4,55.2 113.4,54.9 113.4,54.7 113.3,54.5 113.3,54.2 113.2,54 113.2,53.7 
	113.2,53.5 113.1,53.3 113.1,53 113.1,52.8 113,52.5 113,52.3 113,52.1 112.9,51.8 112.9,51.6 112.9,51.3 112.9,51.1 112.8,50.9 
	112.8,50.6 112.8,50.4 112.8,50.1 112.8,49.9 112.7,49.7 112.7,49.4 112.7,49.2 112.7,49 112.7,48.7 112.7,48.5 112.7,48.2 
	112.7,48 "/>
<polyline class="st9" points="128.3,71.9 128.3,71.7 128.3,71.5 128.2,71.2 128.2,71 128.1,70.8 128.1,70.5 128,70.3 127.9,70 
	127.8,69.8 127.7,69.6 127.6,69.3 127.5,69.1 127.4,68.8 127.2,68.6 127.1,68.4 126.9,68.1 126.7,67.9 126.5,67.6 126.3,67.4 
	126.1,67.2 125.9,66.9 125.7,66.7 125.5,66.4 125.2,66.2 125,66 124.7,65.7 124.5,65.5 124.2,65.2 123.9,65 123.6,64.8 123.3,64.5 
	123,64.3 122.7,64 122.4,63.8 122.1,63.6 121.8,63.3 121.5,63.1 121.1,62.8 120.8,62.6 120.5,62.4 120.1,62.1 119.8,61.9 
	119.4,61.6 119.1,61.4 118.7,61.2 118.4,60.9 118,60.7 117.7,60.5 117.3,60.2 117,60 116.6,59.7 116.3,59.5 115.9,59.3 115.6,59 
	115.2,58.8 114.9,58.5 114.5,58.3 114.2,58.1 113.8,57.8 113.5,57.6 113.1,57.3 112.8,57.1 112.5,56.9 112.2,56.6 111.8,56.4 
	111.5,56.1 111.2,55.9 110.9,55.7 110.6,55.4 110.3,55.2 110,54.9 109.8,54.7 109.5,54.5 109.2,54.2 109,54 108.7,53.7 108.5,53.5 
	108.3,53.3 108,53 107.8,52.8 107.6,52.5 107.4,52.3 107.2,52.1 107.1,51.8 106.9,51.6 106.7,51.3 106.6,51.1 106.5,50.9 
	106.3,50.6 106.2,50.4 106.1,50.1 106,49.9 105.9,49.7 105.9,49.4 105.8,49.2 105.8,49 105.7,48.7 105.7,48.5 105.7,48.2 105.7,48 
	"/>
<polyline class="st16" points="142.7,71.9 142.7,71.7 142.7,71.5 142.7,71.2 142.7,71 142.7,70.8 142.7,70.5 142.7,70.3 142.7,70 
	142.7,69.8 142.7,69.6 142.7,69.3 142.7,69.1 142.7,68.8 142.8,68.6 142.8,68.4 142.8,68.1 142.8,67.9 142.8,67.6 142.8,67.4 
	142.9,67.2 142.9,66.9 142.9,66.7 142.9,66.4 142.9,66.2 143,66 143,65.7 143,65.5 143,65.2 143.1,65 143.1,64.8 143.1,64.5 
	143.1,64.3 143.2,64 143.2,63.8 143.2,63.6 143.3,63.3 143.3,63.1 143.3,62.8 143.3,62.6 143.4,62.4 143.4,62.1 143.4,61.9 
	143.5,61.6 143.5,61.4 143.5,61.2 143.6,60.9 143.6,60.7 143.6,60.5 143.7,60.2 143.7,60 143.7,59.7 143.8,59.5 143.8,59.3 
	143.8,59 143.9,58.8 143.9,58.5 143.9,58.3 144,58.1 144,57.8 144,57.6 144.1,57.3 144.1,57.1 144.1,56.9 144.1,56.6 144.2,56.4 
	144.2,56.1 144.2,55.9 144.3,55.7 144.3,55.4 144.3,55.2 144.3,54.9 144.4,54.7 144.4,54.5 144.4,54.2 144.4,54 144.5,53.7 
	144.5,53.5 144.5,53.3 144.5,53 144.5,52.8 144.6,52.5 144.6,52.3 144.6,52.1 144.6,51.8 144.6,51.6 144.6,51.3 144.7,51.1 
	144.7,50.9 144.7,50.6 144.7,50.4 144.7,50.1 144.7,49.9 144.7,49.7 144.7,49.4 144.7,49.2 144.7,49 144.7,48.7 144.7,48.5 
	144.7,48.2 144.7,48 "/>
<polyline class="st16" points="49,44.3 49,44.1 49.1,43.8 49.1,43.6 49.2,43.3 49.2,43.1 49.3,42.9 49.4,42.6 49.6,42.4 49.7,42.2 
	49.9,41.9 50.1,41.7 50.2,41.4 50.4,41.2 50.7,41 50.9,40.7 51.2,40.5 51.4,40.2 51.7,40 52,39.8 52.3,39.5 52.6,39.3 53,39 
	53.3,38.8 53.7,38.6 54.1,38.3 54.5,38.1 54.8,37.8 55.3,37.6 55.7,37.4 56.1,37.1 56.5,36.9 57,36.6 57.5,36.4 57.9,36.2 
	58.4,35.9 58.9,35.7 59.4,35.4 59.9,35.2 60.4,35 60.9,34.7 61.4,34.5 61.9,34.2 62.5,34 63,33.8 63.5,33.5 64,33.3 64.6,33 
	65.1,32.8 65.7,32.6 66.2,32.3 66.7,32.1 67.3,31.8 67.8,31.6 68.3,31.4 68.9,31.1 69.4,30.9 69.9,30.7 70.5,30.4 71,30.2 
	71.5,29.9 72,29.7 72.5,29.5 73,29.2 73.5,29 74,28.7 74.5,28.5 74.9,28.3 75.4,28 75.8,27.8 76.3,27.5 76.7,27.3 77.1,27.1 
	77.5,26.8 77.9,26.6 78.3,26.3 78.7,26.1 79.1,25.9 79.4,25.6 79.8,25.4 80.1,25.1 80.4,24.9 80.7,24.7 81,24.4 81.2,24.2 
	81.5,23.9 81.7,23.7 81.9,23.5 82.2,23.2 82.3,23 82.5,22.7 82.7,22.5 82.8,22.3 82.9,22 83,21.8 83.1,21.5 83.2,21.3 83.3,21.1 
	83.3,20.8 83.3,20.6 83.3,20.3 "/>
<polyline class="st16" points="58.8,44.3 58.8,44.1 58.8,43.8 58.8,43.6 58.9,43.3 58.9,43.1 59,42.9 59.1,42.6 59.2,42.4 
	59.4,42.2 59.5,41.9 59.7,41.7 59.9,41.4 60,41.2 60.2,41 60.5,40.7 60.7,40.5 60.9,40.2 61.2,40 61.5,39.8 61.7,39.5 62,39.3 
	62.4,39 62.7,38.8 63,38.6 63.3,38.3 63.7,38.1 64.1,37.8 64.4,37.6 64.8,37.4 65.2,37.1 65.6,36.9 66,36.6 66.4,36.4 66.9,36.2 
	67.3,35.9 67.8,35.7 68.2,35.4 68.7,35.2 69.1,35 69.6,34.7 70.1,34.5 70.5,34.2 71,34 71.5,33.8 72,33.5 72.5,33.3 73,33 
	73.4,32.8 73.9,32.6 74.4,32.3 74.9,32.1 75.4,31.8 75.9,31.6 76.4,31.4 76.9,31.1 77.4,30.9 77.8,30.7 78.3,30.4 78.8,30.2 
	79.3,29.9 79.7,29.7 80.2,29.5 80.7,29.2 81.1,29 81.5,28.7 82,28.5 82.4,28.3 82.8,28 83.2,27.8 83.6,27.5 84,27.3 84.4,27.1 
	84.8,26.8 85.2,26.6 85.5,26.3 85.8,26.1 86.2,25.9 86.5,25.6 86.8,25.4 87.1,25.1 87.4,24.9 87.7,24.7 87.9,24.4 88.2,24.2 
	88.4,23.9 88.6,23.7 88.8,23.5 89,23.2 89.2,23 89.3,22.7 89.5,22.5 89.6,22.3 89.7,22 89.8,21.8 89.9,21.5 90,21.3 90,21.1 
	90.1,20.8 90.1,20.6 90.1,20.3 "/>
<polyline class="st17" points="65.9,44.3 65.9,44.1 65.9,43.8 66,43.6 66,43.3 66.1,43.1 66.2,42.9 66.3,42.6 66.4,42.4 66.6,42.2 
	66.7,41.9 66.9,41.7 67.1,41.4 67.3,41.2 67.5,41 67.7,40.7 68,40.5 68.2,40.2 68.5,40 68.8,39.8 69.1,39.5 69.4,39.3 69.7,39 
	70.1,38.8 70.4,38.6 70.8,38.3 71.2,38.1 71.5,37.8 71.9,37.6 72.3,37.4 72.8,37.1 73.2,36.9 73.6,36.6 74.1,36.4 74.5,36.2 
	75,35.9 75.5,35.7 75.9,35.4 76.4,35.2 76.9,35 77.4,34.7 77.9,34.5 78.4,34.2 78.9,34 79.4,33.8 80,33.5 80.5,33.3 81,33 
	81.5,32.8 82,32.6 82.6,32.3 83.1,32.1 83.6,31.8 84.1,31.6 84.6,31.4 85.2,31.1 85.7,30.9 86.2,30.7 86.7,30.4 87.2,30.2 
	87.7,29.9 88.2,29.7 88.7,29.5 89.2,29.2 89.7,29 90.1,28.7 90.6,28.5 91,28.3 91.5,28 91.9,27.8 92.4,27.5 92.8,27.3 93.2,27.1 
	93.6,26.8 94,26.6 94.3,26.3 94.7,26.1 95.1,25.9 95.4,25.6 95.7,25.4 96,25.1 96.3,24.9 96.6,24.7 96.9,24.4 97.2,24.2 97.4,23.9 
	97.6,23.7 97.9,23.5 98.1,23.2 98.2,23 98.4,22.7 98.6,22.5 98.7,22.3 98.8,22 98.9,21.8 99,21.5 99.1,21.3 99.1,21.1 99.2,20.8 
	99.2,20.6 99.2,20.3 "/>
<polyline class="st16" points="118.3,44.3 118.3,44.1 118.3,43.8 118.3,43.6 118.3,43.3 118.3,43.1 118.3,42.9 118.3,42.6 
	118.3,42.4 118.3,42.2 118.3,41.9 118.4,41.7 118.4,41.4 118.4,41.2 118.4,41 118.4,40.7 118.5,40.5 118.5,40.2 118.5,40 
	118.6,39.8 118.6,39.5 118.6,39.3 118.7,39 118.7,38.8 118.7,38.6 118.8,38.3 118.8,38.1 118.8,37.8 118.9,37.6 118.9,37.4 
	119,37.1 119,36.9 119,36.6 119.1,36.4 119.1,36.2 119.2,35.9 119.2,35.7 119.3,35.4 119.3,35.2 119.4,35 119.4,34.7 119.5,34.5 
	119.5,34.2 119.6,34 119.6,33.8 119.7,33.5 119.7,33.3 119.8,33 119.8,32.8 119.9,32.6 120,32.3 120,32.1 120.1,31.8 120.1,31.6 
	120.2,31.4 120.2,31.1 120.3,30.9 120.3,30.7 120.4,30.4 120.4,30.2 120.5,29.9 120.5,29.7 120.6,29.5 120.6,29.2 120.7,29 
	120.7,28.7 120.8,28.5 120.8,28.3 120.9,28 120.9,27.8 120.9,27.5 121,27.3 121,27.1 121.1,26.8 121.1,26.6 121.1,26.3 121.2,26.1 
	121.2,25.9 121.2,25.6 121.3,25.4 121.3,25.1 121.3,24.9 121.4,24.7 121.4,24.4 121.4,24.2 121.5,23.9 121.5,23.7 121.5,23.5 
	121.5,23.2 121.5,23 121.6,22.7 121.6,22.5 121.6,22.3 121.6,22 121.6,21.8 121.6,21.5 121.6,21.3 121.6,21.1 121.6,20.8 
	121.6,20.6 121.6,20.3 "/>
<polyline class="st16" points="112.7,44.3 112.7,44.1 112.7,43.8 112.7,43.6 112.7,43.3 112.7,43.1 112.7,42.9 112.7,42.6 
	112.7,42.4 112.7,42.2 112.7,41.9 112.7,41.7 112.6,41.4 112.6,41.2 112.6,41 112.6,40.7 112.6,40.5 112.6,40.2 112.6,40 
	112.6,39.8 112.5,39.5 112.5,39.3 112.5,39 112.5,38.8 112.5,38.6 112.5,38.3 112.4,38.1 112.4,37.8 112.4,37.6 112.4,37.4 
	112.4,37.1 112.3,36.9 112.3,36.6 112.3,36.4 112.3,36.2 112.2,35.9 112.2,35.7 112.2,35.4 112.2,35.2 112.2,35 112.1,34.7 
	112.1,34.5 112.1,34.2 112.1,34 112,33.8 112,33.5 112,33.3 111.9,33 111.9,32.8 111.9,32.6 111.9,32.3 111.8,32.1 111.8,31.8 
	111.8,31.6 111.8,31.4 111.7,31.1 111.7,30.9 111.7,30.7 111.7,30.4 111.6,30.2 111.6,29.9 111.6,29.7 111.6,29.5 111.5,29.2 
	111.5,29 111.5,28.7 111.5,28.5 111.4,28.3 111.4,28 111.4,27.8 111.4,27.5 111.3,27.3 111.3,27.1 111.3,26.8 111.3,26.6 
	111.3,26.3 111.2,26.1 111.2,25.9 111.2,25.6 111.2,25.4 111.2,25.1 111.2,24.9 111.2,24.7 111.1,24.4 111.1,24.2 111.1,23.9 
	111.1,23.7 111.1,23.5 111.1,23.2 111.1,23 111.1,22.7 111.1,22.5 111,22.3 111,22 111,21.8 111,21.5 111,21.3 111,21.1 111,20.8 
	111,20.6 111,20.3 "/>
<polyline class="st9" points="130.1,44.3 130.1,44.1 130.1,43.8 130.1,43.6 130.1,43.3 130.2,43.1 130.2,42.9 130.2,42.6 
	130.3,42.4 130.3,42.2 130.4,41.9 130.5,41.7 130.5,41.4 130.6,41.2 130.7,41 130.8,40.7 130.9,40.5 131,40.2 131.1,40 131.2,39.8 
	131.4,39.5 131.5,39.3 131.6,39 131.8,38.8 131.9,38.6 132,38.3 132.2,38.1 132.3,37.8 132.5,37.6 132.7,37.4 132.8,37.1 133,36.9 
	133.2,36.6 133.4,36.4 133.6,36.2 133.7,35.9 133.9,35.7 134.1,35.4 134.3,35.2 134.5,35 134.7,34.7 134.9,34.5 135.1,34.2 
	135.3,34 135.5,33.8 135.8,33.5 136,33.3 136.2,33 136.4,32.8 136.6,32.6 136.8,32.3 137,32.1 137.2,31.8 137.4,31.6 137.7,31.4 
	137.9,31.1 138.1,30.9 138.3,30.7 138.5,30.4 138.7,30.2 138.9,29.9 139.1,29.7 139.3,29.5 139.5,29.2 139.7,29 139.9,28.7 
	140.1,28.5 140.2,28.3 140.4,28 140.6,27.8 140.8,27.5 140.9,27.3 141.1,27.1 141.3,26.8 141.4,26.6 141.6,26.3 141.7,26.1 
	141.9,25.9 142,25.6 142.1,25.4 142.3,25.1 142.4,24.9 142.5,24.7 142.6,24.4 142.7,24.2 142.8,23.9 142.9,23.7 143,23.5 
	143.1,23.2 143.2,23 143.2,22.7 143.3,22.5 143.3,22.3 143.4,22 143.4,21.8 143.5,21.5 143.5,21.3 143.5,21.1 143.5,20.8 
	143.5,20.6 143.6,20.3 "/>
<polyline class="st16" points="144.7,44.3 144.7,44.1 144.8,43.8 144.8,43.6 144.8,43.3 144.8,43.1 144.9,42.9 144.9,42.6 
	144.9,42.4 145,42.2 145,41.9 145.1,41.7 145.2,41.4 145.3,41.2 145.3,41 145.4,40.7 145.5,40.5 145.6,40.2 145.7,40 145.8,39.8 
	145.9,39.5 146.1,39.3 146.2,39 146.3,38.8 146.4,38.6 146.6,38.3 146.7,38.1 146.9,37.8 147,37.6 147.2,37.4 147.3,37.1 
	147.5,36.9 147.6,36.6 147.8,36.4 148,36.2 148.2,35.9 148.3,35.7 148.5,35.4 148.7,35.2 148.9,35 149.1,34.7 149.2,34.5 
	149.4,34.2 149.6,34 149.8,33.8 150,33.5 150.2,33.3 150.4,33 150.6,32.8 150.8,32.6 151,32.3 151.2,32.1 151.4,31.8 151.6,31.6 
	151.8,31.4 152,31.1 152.2,30.9 152.4,30.7 152.5,30.4 152.7,30.2 152.9,29.9 153.1,29.7 153.3,29.5 153.5,29.2 153.7,29 
	153.8,28.7 154,28.5 154.2,28.3 154.3,28 154.5,27.8 154.7,27.5 154.8,27.3 155,27.1 155.1,26.8 155.3,26.6 155.4,26.3 155.5,26.1 
	155.7,25.9 155.8,25.6 155.9,25.4 156,25.1 156.2,24.9 156.3,24.7 156.4,24.4 156.5,24.2 156.6,23.9 156.6,23.7 156.7,23.5 
	156.8,23.2 156.9,23 156.9,22.7 157,22.5 157,22.3 157.1,22 157.1,21.8 157.2,21.5 157.2,21.3 157.2,21.1 157.2,20.8 157.2,20.6 
	157.2,20.3 "/>
<path class="st18" d="M160.7,55.8"/>
<text transform="matrix(1 0 0 1 6.5877 48.0103)" class="st19 st20">Genome b</text>
<text transform="matrix(1 0 0 1 6.5882 19.1573)" class="st19 st20">Genome a</text>
<text transform="matrix(1 0 0 1 7.0932 75.924)" class="st19 st20">Genome c</text>
<polygon class="st6" points="32.2,126.7 30.3,124.8 32.2,122.9 34.9,122.9 34.9,126.7 "/>
<polygon class="st7" points="32.2,126.7 30.3,124.8 32.2,122.9 34.9,122.9 34.9,126.7 "/>
<polygon class="st12" points="31.6,108.8 30,106.9 31.6,105 33.9,105 33.9,108.8 "/>
<polygon class="st13" points="31.6,108.8 30,106.9 31.6,105 33.9,105 33.9,108.8 "/>
<polyline class="st16" points="32.6,122.9 32.6,122.8 32.6,122.7 32.6,122.5 32.6,122.4 32.6,122.3 32.6,122.1 32.6,122 32.6,121.9 
	32.6,121.7 32.6,121.6 32.6,121.5 32.6,121.3 32.6,121.2 32.6,121.1 32.6,120.9 32.6,120.8 32.6,120.7 32.6,120.5 32.6,120.4 
	32.6,120.3 32.6,120.1 32.6,120 32.6,119.9 32.6,119.7 32.6,119.6 32.6,119.5 32.6,119.3 32.6,119.2 32.6,119.1 32.6,118.9 
	32.6,118.8 32.6,118.7 32.6,118.5 32.6,118.4 32.6,118.3 32.6,118.1 32.6,118 32.6,117.9 32.6,117.7 32.6,117.6 32.6,117.5 
	32.6,117.3 32.6,117.2 32.6,117.1 32.6,116.9 32.6,116.8 32.6,116.7 32.6,116.5 32.6,116.4 32.6,116.3 32.6,116.1 32.6,116 
	32.6,115.8 32.6,115.7 32.6,115.6 32.6,115.4 32.6,115.3 32.6,115.2 32.6,115 32.6,114.9 32.6,114.8 32.6,114.6 32.6,114.5 
	32.6,114.4 32.6,114.2 32.6,114.1 32.6,114 32.6,113.8 32.6,113.7 32.6,113.6 32.6,113.4 32.6,113.3 32.6,113.2 32.6,113 
	32.6,112.9 32.6,112.8 32.6,112.6 32.6,112.5 32.6,112.4 32.6,112.2 32.6,112.1 32.6,112 32.6,111.8 32.6,111.7 32.6,111.6 
	32.6,111.4 32.6,111.3 32.6,111.2 32.6,111 32.6,110.9 32.6,110.8 32.6,110.6 32.6,110.5 32.6,110.4 32.6,110.2 32.6,110.1 
	32.6,110 32.6,109.8 32.6,109.7 32.6,109.6 "/>
<g>
	<polygon class="st6" points="46.4,126.1 44.3,124.2 46.4,122.3 49.6,122.3 49.6,126.1 	"/>
	<polygon class="st7" points="46.4,126.1 44.3,124.2 46.4,122.3 49.6,122.3 49.6,126.1 	"/>
	<polygon class="st12" points="45.9,108.2 44.2,106.3 45.9,104.4 48.4,104.4 48.4,108.2 	"/>
	<polygon class="st13" points="45.9,108.2 44.2,106.3 45.9,104.4 48.4,104.4 48.4,108.2 	"/>
	<polyline class="st16" points="46.9,122.3 46.9,122.2 46.9,122 46.9,121.9 46.9,121.8 46.9,121.6 46.9,121.5 46.9,121.4 
		46.9,121.2 46.9,121.1 46.9,121 46.9,120.8 46.9,120.7 46.9,120.6 46.9,120.4 46.9,120.3 46.9,120.2 46.9,120 46.9,119.9 
		46.9,119.8 46.9,119.6 46.9,119.5 46.9,119.4 46.9,119.2 46.9,119.1 46.9,118.9 46.9,118.8 46.9,118.7 46.9,118.5 46.9,118.4 
		46.9,118.3 46.9,118.1 46.9,118 46.9,117.9 46.9,117.7 46.9,117.6 46.9,117.5 46.9,117.3 46.9,117.2 46.9,117.1 46.9,116.9 
		46.9,116.8 46.9,116.7 46.9,116.5 46.9,116.4 46.9,116.3 46.9,116.1 46.9,116 46.9,115.9 46.9,115.7 46.9,115.6 46.9,115.5 
		46.9,115.3 46.9,115.2 46.9,115.1 46.9,114.9 46.9,114.8 46.9,114.7 46.9,114.5 46.9,114.4 46.9,114.3 46.9,114.1 46.9,114 
		46.9,113.9 46.9,113.7 46.9,113.6 46.9,113.5 46.9,113.3 46.9,113.2 46.9,113.1 46.9,112.9 46.9,112.8 46.9,112.7 46.9,112.5 
		46.9,112.4 46.9,112.3 46.9,112.1 46.9,112 46.9,111.9 46.9,111.7 46.9,111.6 46.9,111.5 46.9,111.3 46.9,111.2 46.9,111.1 
		46.9,110.9 46.9,110.8 46.9,110.7 46.9,110.5 46.9,110.4 46.9,110.3 46.9,110.1 46.9,110 46.9,109.8 46.9,109.7 46.9,109.6 
		46.9,109.4 46.9,109.3 46.9,109.2 46.9,109 46.9,108.9 	"/>
	<polyline class="st16" points="50.3,122.7 50.4,122.7 50.5,122.6 50.7,122.5 50.8,122.5 50.9,122.4 51,122.3 51.1,122.2 
		51.3,122.2 51.4,122.1 51.5,122 51.6,122 51.7,121.9 51.9,121.8 52,121.8 52.1,121.7 52.2,121.6 52.3,121.6 52.5,121.5 52.6,121.4 
		52.7,121.3 52.8,121.3 52.9,121.2 53.1,121.1 53.2,121.1 53.3,121 53.4,120.9 53.6,120.9 53.7,120.8 53.8,120.7 53.9,120.7 
		54,120.6 54.1,120.5 54.3,120.4 54.4,120.4 54.5,120.3 54.6,120.2 54.8,120.2 54.9,120.1 55,120 55.1,120 55.2,119.9 55.4,119.8 
		55.5,119.7 55.6,119.7 55.7,119.6 55.8,119.5 56,119.5 56.1,119.4 56.2,119.3 56.3,119.3 56.4,119.2 56.6,119.1 56.7,119.1 
		56.8,119 56.9,118.9 57,118.8 57.2,118.8 57.3,118.7 57.4,118.6 57.5,118.6 57.6,118.5 57.8,118.4 57.9,118.4 58,118.3 58.1,118.2 
		58.2,118.2 58.4,118.1 58.5,118 58.6,117.9 58.7,117.9 58.8,117.8 59,117.7 59.1,117.7 59.2,117.6 59.3,117.5 59.4,117.5 
		59.6,117.4 59.7,117.3 59.8,117.3 59.9,117.2 60,117.1 60.2,117 60.3,117 60.4,116.9 60.5,116.8 60.6,116.8 60.8,116.7 60.9,116.6 
		61,116.6 61.1,116.5 61.2,116.4 61.4,116.4 61.5,116.3 61.6,116.2 61.7,116.1 61.8,116.1 62,116 62.1,115.9 62.2,115.9 62.3,115.8 
			"/>
	<text transform="matrix(0.866 -0.5 0.5 0.866 38.4573 108.8701)" class="st21 st19 st22">a2</text>
	<text transform="matrix(0.866 -0.5 0.5 0.866 49.3267 132.8662)" class="st21 st19 st22">b2</text>
</g>
<polygon class="st6" points="61.2,116.4 59.8,114.5 61.2,112.7 63.4,112.7 63.4,116.4 "/>
<polygon class="st7" points="61.2,116.4 59.8,114.5 61.2,112.7 63.4,112.7 63.4,116.4 "/>
<polyline class="st16" points="47.4,107.7 47.5,107.8 47.6,107.9 47.8,107.9 47.9,108 48,108 48.1,108.1 48.3,108.2 48.4,108.2 
	48.5,108.3 48.6,108.3 48.8,108.4 48.9,108.5 49,108.5 49.1,108.6 49.3,108.7 49.4,108.7 49.5,108.8 49.6,108.8 49.8,108.9 
	49.9,109 50,109 50.1,109.1 50.3,109.1 50.4,109.2 50.5,109.3 50.6,109.3 50.8,109.4 50.9,109.4 51,109.5 51.1,109.6 51.3,109.6 
	51.4,109.7 51.5,109.7 51.6,109.8 51.7,109.9 51.9,109.9 52,110 52.1,110 52.2,110.1 52.4,110.2 52.5,110.2 52.6,110.3 52.7,110.4 
	52.9,110.4 53,110.5 53.1,110.5 53.2,110.6 53.4,110.7 53.5,110.7 53.6,110.8 53.7,110.8 53.9,110.9 54,111 54.1,111 54.2,111.1 
	54.4,111.1 54.5,111.2 54.6,111.3 54.7,111.3 54.9,111.4 55,111.4 55.1,111.5 55.2,111.6 55.4,111.6 55.5,111.7 55.6,111.7 
	55.7,111.8 55.9,111.9 56,111.9 56.1,112 56.2,112.1 56.4,112.1 56.5,112.2 56.6,112.2 56.7,112.3 56.9,112.4 57,112.4 57.1,112.5 
	57.2,112.5 57.4,112.6 57.5,112.7 57.6,112.7 57.7,112.8 57.9,112.8 58,112.9 58.1,113 58.2,113 58.4,113.1 58.5,113.1 58.6,113.2 
	58.7,113.3 58.9,113.3 59,113.4 59.1,113.5 59.2,113.5 59.4,113.6 59.5,113.6 59.6,113.7 59.7,113.8 59.9,113.8 "/>
<g>
	<polyline class="st23" points="80.2,122.1 80.3,122 80.4,121.9 80.6,121.9 80.7,121.8 80.8,121.7 80.9,121.7 81,121.6 81.2,121.5 
		81.3,121.5 81.4,121.4 81.5,121.3 81.6,121.3 81.8,121.2 81.9,121.1 82,121 82.1,121 82.2,120.9 82.4,120.8 82.5,120.8 82.6,120.7 
		82.7,120.6 82.8,120.6 83,120.5 83.1,120.4 83.2,120.4 83.3,120.3 83.4,120.2 83.6,120.1 83.7,120.1 83.8,120 83.9,119.9 84,119.9 
		84.2,119.8 84.3,119.7 84.4,119.7 84.5,119.6 84.6,119.5 84.8,119.4 84.9,119.4 85,119.3 85.1,119.2 85.2,119.2 85.4,119.1 
		85.5,119 85.6,119 85.7,118.9 85.8,118.8 86,118.8 86.1,118.7 86.2,118.6 86.3,118.5 86.4,118.5 86.6,118.4 86.7,118.3 86.8,118.3 
		86.9,118.2 87,118.1 87.2,118.1 87.3,118 87.4,117.9 87.5,117.9 87.7,117.8 87.8,117.7 87.9,117.6 88,117.6 88.1,117.5 88.3,117.4 
		88.4,117.4 88.5,117.3 88.6,117.2 88.7,117.2 88.9,117.1 89,117 89.1,117 89.2,116.9 89.3,116.8 89.5,116.7 89.6,116.7 89.7,116.6 
		89.8,116.5 89.9,116.5 90.1,116.4 90.2,116.3 90.3,116.3 90.4,116.2 90.5,116.1 90.7,116.1 90.8,116 90.9,115.9 91,115.8 
		91.1,115.8 91.3,115.7 91.4,115.6 91.5,115.6 91.6,115.5 91.7,115.4 91.9,115.4 92,115.3 92.1,115.2 92.2,115.1 	"/>
</g>
<polyline class="st23" points="78.3,107.1 78.4,107.2 78.5,107.2 78.7,107.3 78.8,107.3 78.9,107.4 79,107.5 79.2,107.5 79.3,107.6 
	79.4,107.6 79.5,107.7 79.7,107.8 79.8,107.8 79.9,107.9 80,107.9 80.2,108 80.3,108.1 80.4,108.1 80.5,108.2 80.7,108.2 
	80.8,108.3 80.9,108.4 81,108.4 81.2,108.5 81.3,108.6 81.4,108.6 81.5,108.7 81.7,108.7 81.8,108.8 81.9,108.9 82,108.9 82.2,109 
	82.3,109 82.4,109.1 82.5,109.2 82.7,109.2 82.8,109.3 82.9,109.3 83,109.4 83.2,109.5 83.3,109.5 83.4,109.6 83.5,109.6 
	83.7,109.7 83.8,109.8 83.9,109.8 84,109.9 84.2,109.9 84.3,110 84.4,110.1 84.5,110.1 84.7,110.2 84.8,110.3 84.9,110.3 85,110.4 
	85.2,110.4 85.3,110.5 85.4,110.6 85.5,110.6 85.7,110.7 85.8,110.7 85.9,110.8 86,110.9 86.2,110.9 86.3,111 86.4,111 86.5,111.1 
	86.7,111.2 86.8,111.2 86.9,111.3 87,111.3 87.2,111.4 87.3,111.5 87.4,111.5 87.5,111.6 87.7,111.7 87.8,111.7 87.9,111.8 
	88,111.8 88.2,111.9 88.3,112 88.4,112 88.5,112.1 88.7,112.1 88.8,112.2 88.9,112.3 89,112.3 89.2,112.4 89.3,112.4 89.4,112.5 
	89.5,112.6 89.7,112.6 89.8,112.7 89.9,112.7 90,112.8 90.2,112.9 90.3,112.9 90.4,113 90.5,113 90.7,113.1 90.8,113.2 "/>
<path class="st3" d="M69.6,128.5c2.2,2.9,6.2,3.7,9.3,2.4c4.3-1.8,6.6-7.7,4-11.7c-2.3-3.5-7.5-4.4-11.1-2
	C68.1,119.7,67,125.1,69.6,128.5z"/>
<polygon class="st10" points="78.9,124.5 78.9,120.8 80.1,120.8 81.9,122.6 80.1,124.5 "/>
<polygon class="st11" points="78.9,124.5 78.9,120.8 80.1,120.8 81.9,122.6 80.1,124.5 "/>
<polygon class="st10" points="70.6,124.6 70.6,120.8 71.8,120.8 73.6,122.7 71.8,124.6 "/>
<polygon class="st11" points="70.6,124.6 70.6,120.8 71.8,120.8 73.6,122.7 71.8,124.6 "/>
<path class="st24" d="M73,123.9c0.4,1.9,1.3,1.9,1.3,1.9"/>
<g>
	<polygon class="st14" points="75.6,108.2 75.6,104.4 76.8,104.4 78.6,106.3 76.8,108.2 	"/>
	<polyline class="st11" points="76.3,122.2 76.3,122.1 76.3,122 76.3,121.8 76.3,121.7 76.3,121.5 76.3,121.4 76.3,121.3 
		76.3,121.1 76.3,121 76.3,120.8 76.3,120.7 76.3,120.6 76.3,120.4 76.3,120.3 76.3,120.1 76.3,120 76.3,119.8 76.3,119.7 
		76.3,119.6 76.3,119.4 76.3,119.3 76.3,119.1 76.3,119 76.3,118.9 76.3,118.7 76.3,118.6 76.3,118.4 76.3,118.3 76.3,118.2 
		76.3,118 76.3,117.9 76.3,117.7 76.3,117.6 76.3,117.5 76.3,117.3 76.3,117.2 76.3,117 76.3,116.9 76.3,116.7 76.3,116.6 
		76.3,116.5 76.3,116.3 76.3,116.2 76.3,116 76.3,115.9 76.3,115.8 76.3,115.6 76.3,115.5 76.3,115.3 76.3,115.2 76.3,115.1 
		76.3,114.9 76.3,114.8 76.3,114.6 76.3,114.5 76.3,114.4 76.3,114.2 76.3,114.1 76.3,113.9 76.3,113.8 76.3,113.7 76.3,113.5 
		76.3,113.4 76.3,113.2 76.3,113.1 76.3,112.9 76.3,112.8 76.3,112.7 76.3,112.5 76.3,112.4 76.3,112.2 76.3,112.1 76.3,112 
		76.3,111.8 76.3,111.7 76.3,111.5 76.3,111.4 76.3,111.3 76.3,111.1 76.3,111 76.3,110.8 76.3,110.7 76.3,110.6 76.3,110.4 
		76.3,110.3 76.3,110.1 76.3,110 76.3,109.8 76.3,109.7 76.3,109.6 76.3,109.4 76.3,109.3 76.3,109.1 76.3,109 76.3,108.9 
		76.3,108.7 76.3,108.6 76.3,108.4 76.3,108.3 76.3,108.2 	"/>
	<polygon class="st10" points="74.6,129.6 74.6,125.8 75.9,125.8 77.9,127.7 75.9,129.6 	"/>
	<polygon class="st11" points="74.6,129.6 74.6,125.8 75.9,125.8 77.9,127.7 75.9,129.6 	"/>
	<path class="st24" d="M73.7,123.4c0,0,0.5-0.9,2.6-1.2c2.1-0.3,2.6-0.3,2.6-0.3"/>
	<path class="st24" d="M76.6,125.8c1.1-0.6,1.9-2.4,1.9-2.4"/>
	<polygon class="st14" points="91.2,115.7 91.2,111.9 92.4,111.9 94.2,113.8 92.4,115.7 	"/>
	<text transform="matrix(0.866 -0.5 0.5 0.866 68.259 108.2258)" class="st21 st19 st22">a3</text>
	<text transform="matrix(0.866 -0.5 0.5 0.866 78.967 133.9389)" class="st21 st19 st22">b3</text>
</g>
<polygon class="st6" points="127,156.8 125,154.9 127,153 129.9,153 129.9,156.8 "/>
<polygon class="st7" points="127,156.8 125,154.9 127,153 129.9,153 129.9,156.8 "/>
<polygon class="st12" points="100.6,156.8 99.3,154.9 100.6,153 102.6,153 102.6,156.8 "/>
<polygon class="st13" points="100.6,156.8 99.3,154.9 100.6,153 102.6,153 102.6,156.8 "/>
<g>
	<polygon class="st6" points="128.4,116.7 127,114.9 128.4,113 130.6,113 130.6,116.7 	"/>
	<g>
		<g>
			<polygon class="st6" points="112.5,126.6 110.1,124.7 112.5,122.9 116,122.9 116,126.6 			"/>
			<polygon class="st7" points="112.5,126.6 110.1,124.7 112.5,122.9 116,122.9 116,126.6 			"/>
			<polygon class="st12" points="111.1,108.3 111.1,104.5 112.7,104.5 115.1,106.4 112.7,108.3 			"/>
			<polygon class="st13" points="111.1,108.3 111.1,104.5 112.7,104.5 115.1,106.4 112.7,108.3 			"/>
			<polyline class="st16" points="113.3,122.6 113.3,122.5 113.3,122.4 113.3,122.2 113.3,122.1 113.3,121.9 113.3,121.8 
				113.3,121.6 113.3,121.5 113.2,121.3 113.2,121.2 113.2,121.1 113.2,120.9 113.2,120.8 113.2,120.6 113.2,120.5 113.2,120.3 
				113.2,120.2 113.2,120.1 113.2,119.9 113.2,119.8 113.2,119.6 113.2,119.5 113.2,119.3 113.2,119.2 113.2,119 113.2,118.9 
				113.2,118.8 113.2,118.6 113.2,118.5 113.2,118.3 113.2,118.2 113.2,118 113.2,117.9 113.2,117.8 113.2,117.6 113.2,117.5 
				113.2,117.3 113.2,117.2 113.2,117 113.2,116.9 113.2,116.7 113.2,116.6 113.2,116.5 113.2,116.3 113.2,116.2 113.2,116 
				113.2,115.9 113.2,115.7 113.2,115.6 113.2,115.5 113.2,115.3 113.2,115.2 113.2,115 113.2,114.9 113.2,114.7 113.2,114.6 
				113.2,114.5 113.1,114.3 113.1,114.2 113.1,114 113.1,113.9 113.1,113.7 113.1,113.6 113.1,113.4 113.1,113.3 113.1,113.2 
				113.1,113 113.1,112.9 113.1,112.7 113.1,112.6 113.1,112.4 113.1,112.3 113.1,112.2 113.1,112 113.1,111.9 113.1,111.7 
				113.1,111.6 113.1,111.4 113.1,111.3 113.1,111.1 113.1,111 113.1,110.9 113.1,110.7 113.1,110.6 113.1,110.4 113.1,110.3 
				113.1,110.1 113.1,110 113.1,109.9 113.1,109.7 113.1,109.6 113.1,109.4 113.1,109.3 113.1,109.1 113.1,109 113.1,108.8 
				113.1,108.7 113.1,108.6 113.1,108.4 113.1,108.3 			"/>
			<text transform="matrix(0.866 -0.5 0.5 0.866 103.5062 111.1561)" class="st21 st19 st22">a4</text>
			<text transform="matrix(0.866 -0.5 0.5 0.866 114.6717 132.8669)" class="st21 st19 st22">b6</text>
		</g>
		<g>
			<polyline class="st16" points="115.5,122.9 115.6,122.8 115.7,122.7 115.8,122.6 116,122.6 116.1,122.5 116.2,122.4 116.3,122.4 
				116.4,122.3 116.6,122.2 116.7,122.2 116.8,122.1 116.9,122 117,122 117.2,121.9 117.3,121.8 117.4,121.7 117.5,121.7 
				117.6,121.6 117.8,121.5 117.9,121.5 118,121.4 118.1,121.3 118.2,121.3 118.4,121.2 118.5,121.1 118.6,121.1 118.7,121 
				118.8,120.9 119,120.8 119.1,120.8 119.2,120.7 119.3,120.6 119.4,120.6 119.6,120.5 119.7,120.4 119.8,120.4 119.9,120.3 
				120,120.2 120.2,120.2 120.3,120.1 120.4,120 120.5,119.9 120.6,119.9 120.8,119.8 120.9,119.7 121,119.7 121.1,119.6 
				121.2,119.5 121.4,119.5 121.5,119.4 121.6,119.3 121.7,119.3 121.8,119.2 122,119.1 122.1,119 122.2,119 122.3,118.9 
				122.4,118.8 122.6,118.8 122.7,118.7 122.8,118.6 122.9,118.6 123,118.5 123.2,118.4 123.3,118.3 123.4,118.3 123.5,118.2 
				123.6,118.1 123.8,118.1 123.9,118 124,117.9 124.1,117.9 124.2,117.8 124.4,117.7 124.5,117.7 124.6,117.6 124.7,117.5 
				124.8,117.4 125,117.4 125.1,117.3 125.2,117.2 125.3,117.2 125.4,117.1 125.6,117 125.7,117 125.8,116.9 125.9,116.8 
				126.1,116.8 126.2,116.7 126.3,116.6 126.4,116.5 126.5,116.5 126.7,116.4 126.8,116.3 126.9,116.3 127,116.2 127.1,116.1 
				127.3,116.1 127.4,116 127.5,115.9 			"/>
		</g>
		<polygon class="st7" points="128.4,116.6 127,114.7 128.4,112.8 130.6,112.8 130.6,116.6 		"/>
		<polyline class="st16" points="114.6,107.9 114.7,107.9 114.8,108 115,108 115.1,108.1 115.2,108.2 115.3,108.2 115.5,108.3 
			115.6,108.4 115.7,108.4 115.8,108.5 116,108.5 116.1,108.6 116.2,108.7 116.3,108.7 116.5,108.8 116.6,108.8 116.7,108.9 
			116.8,109 117,109 117.1,109.1 117.2,109.1 117.3,109.2 117.5,109.3 117.6,109.3 117.7,109.4 117.8,109.4 118,109.5 118.1,109.6 
			118.2,109.6 118.3,109.7 118.5,109.7 118.6,109.8 118.7,109.9 118.8,109.9 119,110 119.1,110.1 119.2,110.1 119.3,110.2 
			119.5,110.2 119.6,110.3 119.7,110.4 119.8,110.4 120,110.5 120.1,110.5 120.2,110.6 120.3,110.7 120.5,110.7 120.6,110.8 
			120.7,110.8 120.8,110.9 121,111 121.1,111 121.2,111.1 121.3,111.1 121.5,111.2 121.6,111.3 121.7,111.3 121.8,111.4 122,111.5 
			122.1,111.5 122.2,111.6 122.3,111.6 122.5,111.7 122.6,111.8 122.7,111.8 122.8,111.9 123,111.9 123.1,112 123.2,112.1 
			123.3,112.1 123.5,112.2 123.6,112.2 123.7,112.3 123.8,112.4 124,112.4 124.1,112.5 124.2,112.5 124.3,112.6 124.5,112.7 
			124.6,112.7 124.7,112.8 124.8,112.8 125,112.9 125.1,113 125.2,113 125.3,113.1 125.5,113.2 125.6,113.2 125.7,113.3 
			125.8,113.3 126,113.4 126.1,113.5 126.2,113.5 126.3,113.6 126.5,113.6 126.6,113.7 126.7,113.8 126.8,113.8 126.9,113.9 
			127.1,113.9 		"/>
		<text transform="matrix(0.866 -0.5 0.5 0.866 129.2367 122.9355)" class="st21 st19 st22">c3</text>
	</g>
</g>
<polygon class="st6" points="147.5,126.5 145.6,124.6 147.5,122.8 150.3,122.8 150.3,126.5 "/>
<polygon class="st7" points="147.5,126.5 145.6,124.6 147.5,122.8 150.3,122.8 150.3,126.5 "/>
<polygon class="st12" points="146.9,108.6 145.3,106.7 146.9,104.8 149.2,104.8 149.2,108.6 "/>
<polygon class="st13" points="146.9,108.6 145.3,106.7 146.9,104.8 149.2,104.8 149.2,108.6 "/>
<polyline class="st16" points="147.9,122.8 147.9,122.6 147.9,122.5 147.9,122.4 147.9,122.2 147.9,122.1 147.9,122 147.9,121.8 
	147.9,121.7 147.9,121.6 147.9,121.4 147.9,121.3 147.9,121.1 147.9,121 147.9,120.9 147.9,120.7 147.9,120.6 147.9,120.5 
	147.9,120.3 147.9,120.2 147.9,120.1 147.9,119.9 147.9,119.8 147.9,119.7 147.9,119.5 147.9,119.4 147.9,119.3 147.9,119.1 
	147.9,119 147.9,118.9 147.9,118.7 147.9,118.6 147.9,118.5 147.9,118.3 147.9,118.2 147.9,118.1 147.9,117.9 147.9,117.8 
	147.9,117.7 147.9,117.5 147.9,117.4 147.9,117.3 147.9,117.1 147.9,117 147.9,116.9 147.9,116.7 147.9,116.6 147.9,116.5 
	147.9,116.3 147.9,116.2 147.9,116.1 147.9,115.9 147.9,115.8 147.9,115.7 147.9,115.5 147.9,115.4 147.9,115.3 147.9,115.1 
	147.9,115 147.9,114.9 147.9,114.7 147.9,114.6 147.9,114.5 147.9,114.3 147.9,114.2 147.9,114.1 147.9,113.9 147.9,113.8 
	147.9,113.7 147.9,113.5 147.9,113.4 147.9,113.3 147.9,113.1 147.9,113 147.9,112.8 147.9,112.7 147.9,112.6 147.9,112.4 
	147.9,112.3 147.9,112.2 147.9,112 147.9,111.9 147.9,111.8 147.9,111.6 147.9,111.5 147.9,111.4 147.9,111.2 147.9,111.1 
	147.9,111 147.9,110.8 147.9,110.7 147.9,110.6 147.9,110.4 147.9,110.3 147.9,110.2 147.9,110 147.9,109.9 147.9,109.8 
	147.9,109.6 147.9,109.5 147.9,109.4 "/>
<path class="st4" d="M18.3,166.2c2.3,2.5,6.7,3.1,10,2c4.6-1.5,7.1-6.5,4.3-9.9c-2.4-3-8-3.8-11.9-1.7
	C16.7,158.7,15.5,163.2,18.3,166.2z"/>
<polygon class="st10" points="19.9,163.7 19.9,159.9 21.6,159.9 24.1,161.8 21.6,163.7 "/>
<polygon class="st9" points="19.9,163.7 19.9,159.9 21.6,159.9 24.1,161.8 21.6,163.7 "/>
<polygon class="st6" points="27.7,164 25.9,162.1 27.7,160.2 30.4,160.2 30.4,164 "/>
<polygon class="st9" points="27.7,164 25.9,162.1 27.7,160.2 30.4,160.2 30.4,164 "/>
<polygon class="st15" points="24.7,145.3 23.3,143.4 24.7,141.6 26.9,141.6 26.9,145.3 "/>
<polyline class="st9" points="25.3,160.7 25.3,160.5 25.3,160.4 25.3,160.2 25.3,160.1 25.3,159.9 25.3,159.8 25.3,159.6 
	25.3,159.5 25.3,159.3 25.3,159.2 25.3,159 25.3,158.9 25.3,158.7 25.3,158.6 25.3,158.4 25.3,158.3 25.3,158.1 25.3,158 
	25.3,157.8 25.3,157.7 25.3,157.5 25.4,157.4 25.4,157.2 25.4,157.1 25.4,156.9 25.4,156.8 25.4,156.6 25.4,156.5 25.4,156.3 
	25.4,156.2 25.4,156 25.4,155.9 25.4,155.7 25.4,155.6 25.4,155.4 25.4,155.3 25.4,155.1 25.4,155 25.4,154.8 25.4,154.7 
	25.4,154.5 25.4,154.4 25.4,154.2 25.4,154.1 25.4,153.9 25.4,153.8 25.4,153.6 25.4,153.5 25.4,153.3 25.4,153.2 25.4,153 
	25.4,152.9 25.4,152.7 25.5,152.6 25.5,152.4 25.5,152.3 25.5,152.1 25.5,152 25.5,151.8 25.5,151.7 25.5,151.5 25.5,151.4 
	25.5,151.2 25.5,151.1 25.5,150.9 25.5,150.8 25.5,150.6 25.5,150.5 25.5,150.3 25.5,150.2 25.5,150 25.5,149.9 25.5,149.7 
	25.5,149.6 25.5,149.4 25.5,149.3 25.5,149.1 25.5,149 25.5,148.8 25.5,148.7 25.5,148.5 25.5,148.4 25.5,148.2 25.5,148.1 
	25.5,147.9 25.5,147.8 25.5,147.6 25.5,147.5 25.5,147.3 25.5,147.2 25.5,147 25.5,146.9 25.5,146.7 25.5,146.6 25.5,146.4 
	25.5,146.3 25.5,146.1 25.5,146 25.5,145.8 25.5,145.7 "/>
<path class="st25" d="M23.5,162.1c1.6,0.1,3.1-0.3,3.1-0.3"/>
<polyline class="st9" points="38.2,152.1 38.1,152 38,151.9 37.9,151.8 37.7,151.8 37.6,151.7 37.5,151.6 37.4,151.5 37.3,151.5 
	37.2,151.4 37.1,151.3 37,151.2 36.9,151.2 36.8,151.1 36.6,151 36.5,150.9 36.4,150.8 36.3,150.8 36.2,150.7 36.1,150.6 36,150.5 
	35.9,150.5 35.8,150.4 35.6,150.3 35.5,150.2 35.4,150.2 35.3,150.1 35.2,150 35.1,149.9 35,149.8 34.9,149.8 34.8,149.7 
	34.7,149.6 34.5,149.5 34.4,149.5 34.3,149.4 34.2,149.3 34.1,149.2 34,149.1 33.9,149.1 33.8,149 33.7,148.9 33.6,148.8 
	33.4,148.8 33.3,148.7 33.2,148.6 33.1,148.5 33,148.4 32.9,148.4 32.8,148.3 32.7,148.2 32.6,148.1 32.5,148.1 32.4,148 
	32.2,147.9 32.1,147.8 32,147.7 31.9,147.7 31.8,147.6 31.7,147.5 31.6,147.4 31.5,147.4 31.4,147.3 31.3,147.2 31.1,147.1 31,147 
	30.9,147 30.8,146.9 30.7,146.8 30.6,146.7 30.5,146.7 30.4,146.6 30.3,146.5 30.2,146.4 30,146.3 29.9,146.3 29.8,146.2 
	29.7,146.1 29.6,146 29.5,146 29.4,145.9 29.3,145.8 29.2,145.7 29.1,145.7 28.9,145.6 28.8,145.5 28.7,145.4 28.6,145.3 
	28.5,145.3 28.4,145.2 28.3,145.1 28.2,145 28.1,145 27.9,144.9 27.8,144.8 27.7,144.7 27.6,144.7 27.5,144.6 27.4,144.5 
	27.3,144.4 27.2,144.4 "/>
<polyline class="st9" points="38.6,152.6 38.5,152.6 38.3,152.7 38.2,152.8 38.1,152.9 37.9,153 37.8,153 37.6,153.1 37.5,153.2 
	37.4,153.3 37.2,153.3 37.1,153.4 37,153.5 36.8,153.6 36.7,153.6 36.6,153.7 36.4,153.8 36.3,153.9 36.2,154 36,154 35.9,154.1 
	35.7,154.2 35.6,154.3 35.5,154.3 35.3,154.4 35.2,154.5 35.1,154.6 34.9,154.6 34.8,154.7 34.7,154.8 34.5,154.9 34.4,154.9 
	34.2,155 34.1,155.1 34,155.2 33.8,155.2 33.7,155.3 33.6,155.4 33.4,155.5 33.3,155.5 33.2,155.6 33,155.7 32.9,155.8 32.7,155.8 
	32.6,155.9 32.5,156 32.3,156.1 32.2,156.1 32.1,156.2 31.9,156.3 31.8,156.4 31.6,156.4 31.5,156.5 31.4,156.6 31.2,156.7 
	31.1,156.7 31,156.8 30.8,156.9 30.7,157 30.6,157 30.4,157.1 30.3,157.2 30.1,157.3 30,157.3 29.9,157.4 29.7,157.5 29.6,157.6 
	29.5,157.6 29.3,157.7 29.2,157.8 29.1,157.9 28.9,157.9 28.8,158 28.6,158.1 28.5,158.2 28.4,158.3 28.2,158.3 28.1,158.4 
	28,158.5 27.8,158.6 27.7,158.6 27.6,158.7 27.4,158.8 27.3,158.9 27.1,158.9 27,159 26.9,159.1 26.7,159.2 26.6,159.2 26.5,159.3 
	26.3,159.4 26.2,159.5 26.1,159.6 25.9,159.6 25.8,159.7 25.7,159.8 25.5,159.9 25.4,159.9 25.2,160 25.1,160.1 25,160.2 "/>
<polygon class="st6" points="38.3,154.6 37,152.7 38.3,150.8 40.3,150.8 40.3,154.6 "/>
<polygon class="st9" points="38.3,154.6 37,152.7 38.3,150.8 40.3,150.8 40.3,154.6 "/>
<g>
	<polygon class="st6" points="60.4,162.9 58.2,161.1 60.4,159.2 63.5,159.2 63.5,162.9 	"/>
	<polygon class="st7" points="60.4,162.9 58.2,161.1 60.4,159.2 63.5,159.2 63.5,162.9 	"/>
	<polygon class="st12" points="59.8,145 58.1,143.1 59.8,141.3 62.4,141.3 62.4,145 	"/>
	<polygon class="st13" points="59.8,145 58.1,143.1 59.8,141.3 62.4,141.3 62.4,145 	"/>
	<polyline class="st16" points="60.9,159.2 60.9,159 60.9,158.9 60.9,158.8 60.9,158.6 60.9,158.5 60.9,158.4 60.9,158.2 
		60.9,158.1 60.9,158 60.9,157.8 60.9,157.7 60.9,157.6 60.9,157.4 60.9,157.3 60.9,157.2 60.9,157 60.9,156.9 60.9,156.8 
		60.9,156.6 60.9,156.5 60.9,156.4 60.9,156.2 60.9,156.1 60.9,156 60.9,155.8 60.9,155.7 60.9,155.6 60.9,155.4 60.9,155.3 
		60.9,155.2 60.9,155 60.9,154.9 60.9,154.8 60.9,154.6 60.9,154.5 60.9,154.4 60.9,154.2 60.9,154.1 60.9,153.9 60.9,153.8 
		60.9,153.7 60.9,153.5 60.9,153.4 60.9,153.3 60.9,153.1 60.9,153 60.9,152.9 60.9,152.7 60.9,152.6 60.9,152.5 60.9,152.3 
		60.9,152.2 60.9,152.1 60.9,151.9 60.9,151.8 60.9,151.7 60.9,151.5 60.9,151.4 60.9,151.3 60.9,151.1 60.9,151 60.9,150.9 
		60.9,150.7 60.9,150.6 60.9,150.5 60.9,150.3 60.9,150.2 60.9,150.1 60.9,149.9 60.9,149.8 60.9,149.7 60.9,149.5 60.9,149.4 
		60.9,149.3 60.9,149.1 60.9,149 60.9,148.9 60.9,148.7 60.9,148.6 60.9,148.5 60.9,148.3 60.9,148.2 60.9,148.1 60.9,147.9 
		60.9,147.8 60.9,147.7 60.9,147.5 60.9,147.4 60.9,147.3 60.9,147.1 60.9,147 60.9,146.9 60.9,146.7 60.9,146.6 60.9,146.5 
		60.9,146.3 60.9,146.2 60.9,146.1 60.9,145.9 60.9,145.8 	"/>
	<polyline class="st16" points="64.2,159.6 64.4,159.5 64.5,159.5 64.6,159.4 64.7,159.3 64.8,159.3 65,159.2 65.1,159.1 65.2,159 
		65.3,159 65.4,158.9 65.6,158.8 65.7,158.8 65.8,158.7 65.9,158.6 66,158.6 66.2,158.5 66.3,158.4 66.4,158.4 66.5,158.3 
		66.6,158.2 66.8,158.1 66.9,158.1 67,158 67.1,157.9 67.2,157.9 67.4,157.8 67.5,157.7 67.6,157.7 67.7,157.6 67.8,157.5 68,157.5 
		68.1,157.4 68.2,157.3 68.3,157.2 68.4,157.2 68.6,157.1 68.7,157 68.8,157 68.9,156.9 69,156.8 69.2,156.8 69.3,156.7 69.4,156.6 
		69.5,156.6 69.6,156.5 69.8,156.4 69.9,156.3 70,156.3 70.1,156.2 70.2,156.1 70.4,156.1 70.5,156 70.6,155.9 70.7,155.9 
		70.9,155.8 71,155.7 71.1,155.7 71.2,155.6 71.3,155.5 71.5,155.4 71.6,155.4 71.7,155.3 71.8,155.2 71.9,155.2 72.1,155.1 
		72.2,155 72.3,155 72.4,154.9 72.5,154.8 72.7,154.8 72.8,154.7 72.9,154.6 73,154.5 73.1,154.5 73.3,154.4 73.4,154.3 73.5,154.3 
		73.6,154.2 73.7,154.1 73.9,154.1 74,154 74.1,153.9 74.2,153.8 74.3,153.8 74.5,153.7 74.6,153.6 74.7,153.6 74.8,153.5 
		74.9,153.4 75.1,153.4 75.2,153.3 75.3,153.2 75.4,153.2 75.5,153.1 75.7,153 75.8,152.9 75.9,152.9 76,152.8 76.1,152.7 
		76.3,152.7 	"/>
	<text transform="matrix(0.866 -0.5 0.5 0.866 52.3946 152.5483)" class="st21 st19 st22">a8</text>
	<text transform="matrix(0.866 -0.5 0.5 0.866 60.3132 172.4204)" class="st21 st19 st22">b8</text>
</g>
<polygon class="st6" points="75.2,153.3 73.7,151.4 75.2,149.5 77.3,149.5 77.3,153.3 "/>
<polygon class="st7" points="75.2,153.3 73.7,151.4 75.2,149.5 77.3,149.5 77.3,153.3 "/>
<polyline class="st16" points="61.3,144.6 61.4,144.7 61.6,144.7 61.7,144.8 61.8,144.9 61.9,144.9 62.1,145 62.2,145 62.3,145.1 
	62.4,145.2 62.6,145.2 62.7,145.3 62.8,145.3 62.9,145.4 63.1,145.5 63.2,145.5 63.3,145.6 63.4,145.6 63.6,145.7 63.7,145.8 
	63.8,145.8 63.9,145.9 64.1,145.9 64.2,146 64.3,146.1 64.4,146.1 64.6,146.2 64.7,146.3 64.8,146.3 64.9,146.4 65.1,146.4 
	65.2,146.5 65.3,146.6 65.4,146.6 65.6,146.7 65.7,146.7 65.8,146.8 65.9,146.9 66.1,146.9 66.2,147 66.3,147 66.4,147.1 
	66.6,147.2 66.7,147.2 66.8,147.3 66.9,147.3 67.1,147.4 67.2,147.5 67.3,147.5 67.4,147.6 67.6,147.7 67.7,147.7 67.8,147.8 
	67.9,147.8 68.1,147.9 68.2,148 68.3,148 68.4,148.1 68.6,148.1 68.7,148.2 68.8,148.3 68.9,148.3 69.1,148.4 69.2,148.4 
	69.3,148.5 69.4,148.6 69.6,148.6 69.7,148.7 69.8,148.7 69.9,148.8 70.1,148.9 70.2,148.9 70.3,149 70.4,149 70.6,149.1 
	70.7,149.2 70.8,149.2 70.9,149.3 71.1,149.4 71.2,149.4 71.3,149.5 71.4,149.5 71.6,149.6 71.7,149.7 71.8,149.7 71.9,149.8 
	72.1,149.8 72.2,149.9 72.3,150 72.4,150 72.5,150.1 72.7,150.1 72.8,150.2 72.9,150.3 73,150.3 73.2,150.4 73.3,150.4 73.4,150.5 
	73.5,150.6 73.7,150.6 73.8,150.7 "/>
<text transform="matrix(1 0 0 1 7.7579 136.2602)" class="st19 st20">HOC1</text>
<text transform="matrix(1 0 0 1 40.2716 99.3725)" class="st19 st20">HOC2</text>
<text transform="matrix(1 0 0 1 83.338 136.2602)" class="st19 st26">HOC3</text>
<text transform="matrix(1 0 0 1 107.5118 99.3725)" class="st19 st20">HOC4</text>
<text transform="matrix(1 0 0 1 138.2081 136.2602)" class="st19 st20">HOC5</text>
<text transform="matrix(1 0 0 1 30.0235 168.2445)" class="st19 st20">HOC6</text>
<text transform="matrix(1 0 0 1 66.0948 168.2445)" class="st19 st20">HOC7</text>
<text transform="matrix(1 0 0 1 97.2872 168.2445)" class="st19 st20">HOC8</text>
<text transform="matrix(1 0 0 1 129.1622 168.2445)" class="st19 st20">HOC9</text>
<text transform="matrix(0.866 -0.5 0.5 0.866 94.9006 86.0822)" class="st21 st19 st22">c1</text>
<text transform="matrix(0.866 -0.5 0.5 0.866 104.2222 86.0822)" class="st21 st19 st22">c2</text>
<text transform="matrix(0.866 -0.5 0.5 0.866 113.4556 86.0822)" class="st21 st19 st22">c3</text>
<text transform="matrix(0.866 -0.5 0.5 0.866 125.5388 86.0822)" class="st21 st19 st22">c4</text>
<text transform="matrix(0.866 -0.5 0.5 0.866 139.0884 86.0822)" class="st21 st19 st22">c5</text>
<text transform="matrix(0.866 -0.5 0.5 0.866 24.0131 109.6294)" class="st21 st19 st22">a1</text>
<text transform="matrix(0.866 -0.5 0.5 0.866 32.6934 133.9388)" class="st21 st19 st22">b1</text>
<text transform="matrix(0.866 -0.5 0.5 0.866 59.0111 124.2517)" class="st21 st19 st22">c1</text>
<text transform="matrix(0.866 -0.5 0.5 0.866 93.6032 122.1565)" class="st21 st19 st22">c2</text>
<text transform="matrix(0.866 -0.5 0.5 0.866 127.5422 149.6116)" class="st21 st19 st22">b4</text>
<text transform="matrix(0.866 -0.5 0.5 0.866 99.7633 149.8864)" class="st21 st19 st22">a6</text>
<text transform="matrix(0.866 -0.5 0.5 0.866 139.3392 109.4417)" class="st21 st19 st22">a5</text>
<text transform="matrix(0.866 -0.5 0.5 0.866 150.3467 131.6124)" class="st21 st19 st22">b7</text>
<text transform="matrix(0.866 -0.5 0.5 0.866 17.5425 150.8761)" class="st21 st19 st22">a7</text>
<text transform="matrix(0.866 -0.5 0.5 0.866 23.4823 173.3059)" class="st21 st19 st22">b5</text>
<text transform="matrix(0.866 -0.5 0.5 0.866 38.1338 162.8363)" class="st21 st19 st22">c4</text>
<text transform="matrix(0.866 -0.5 0.5 0.866 73.5151 161.9352)" class="st21 st19 st22">c5</text>
<text transform="matrix(0.866 -0.5 0.5 0.866 47.0032 57.797)" class="st21 st19 st22">b1</text>
<text transform="matrix(0.866 -0.5 0.5 0.866 56.3247 57.797)" class="st21 st19 st22">b2</text>
<text transform="matrix(0.866 -0.5 0.5 0.866 64.967 57.796)" class="st21 st19 st22">b3</text>
<text transform="matrix(0.866 -0.5 0.5 0.866 81.4692 57.796)" class="st21 st19 st22">b4</text>
<text transform="matrix(0.866 -0.5 0.5 0.866 102.5889 57.797)" class="st21 st19 st22">b5</text>
<text transform="matrix(0.866 -0.5 0.5 0.866 109.854 57.796)" class="st21 st19 st22">b6</text>
<text transform="matrix(0.866 -0.5 0.5 0.866 116.3911 57.796)" class="st21 st19 st22">b7</text>
<text transform="matrix(0.866 -0.5 0.5 0.866 140.7781 57.796)" class="st21 st19 st22">b8</text>
<text transform="matrix(0.866 -0.5 0.5 0.866 82.8174 13.6061)" class="st21 st19 st22">a1</text>
<text transform="matrix(0.866 -0.5 0.5 0.866 92.1389 13.6061)" class="st21 st19 st22">a2</text>
<text transform="matrix(0.866 -0.5 0.5 0.866 101.3723 13.6061)" class="st21 st19 st22">a3</text>
<text transform="matrix(0.866 -0.5 0.5 0.866 111.4556 13.6061)" class="st21 st19 st22">a4</text>
<text transform="matrix(0.866 -0.5 0.5 0.866 122.0051 13.6061)" class="st21 st19 st22">a5</text>
<text transform="matrix(0.866 -0.5 0.5 0.866 130.4985 13.6061)" class="st21 st19 st22">a6</text>
<text transform="matrix(0.866 -0.5 0.5 0.866 143.9358 13.6061)" class="st21 st19 st22">a7</text>
<text transform="matrix(0.866 -0.5 0.5 0.866 157.6726 13.6061)" class="st21 st19 st22">a8</text>
</svg>
